<svg width="1480" height="767" viewBox="0 0 1480 767" fill="none" xmlns="http://www.w3.org/2000/svg">
<g clip-path="url(#clip0_107:36)">
<rect width="1480" height="767" fill="white"/>
<rect x="-343" y="367.861" width="1086" height="202" transform="rotate(-21.427 -343 367.861)" fill="black"/>
<path d="M-286.339 458.92C-272.398 494.442 -248.524 499.305 -215.682 486.416C-185.924 474.738 -172.506 459.263 -178.074 435.614L-198.583 443.663C-196.692 457.153 -205.268 464.076 -221.756 470.546C-241.059 478.121 -255.887 476.206 -263.988 455.563L-267.829 445.777C-276.14 424.598 -266.041 413.674 -247.14 406.256C-229.848 399.47 -218.934 398.9 -211.448 411.276L-190.938 403.227C-202.878 380.687 -223.321 378.655 -253.348 390.439C-286.189 403.327 -300.227 423.531 -286.339 458.92ZM-82.1967 383.911C-74.2533 404.152 -83.1561 416.154 -106.346 425.255C-129.671 434.408 -144.36 431.665 -152.303 411.424L-156.038 401.907C-163.771 382.202 -154.921 370.066 -131.597 360.912C-108.407 351.812 -93.6646 354.689 -85.9317 374.394L-82.1967 383.911ZM-174.759 414.513C-160.661 450.437 -136.332 455.276 -100.139 441.073C-64.0802 426.922 -49.5356 406.828 -63.6338 370.903C-77.5217 335.514 -101.746 330.944 -137.804 345.095C-173.997 359.298 -188.647 379.124 -174.759 414.513ZM38.9844 384.464L66.7322 373.575L30.4345 281.082L11.6679 288.447L40.1274 360.967L-37.5275 307.753L-65.4093 318.695L-29.1116 411.188L-10.345 403.823L-38.9097 331.035L38.9844 384.464ZM71.1732 340.275C81.4717 360.211 99.2104 362.84 131.382 350.215C163.017 337.8 174.261 323.487 166.16 302.844C150.168 262.093 86.3895 315.586 77.394 292.664C73.6064 283.012 80.8941 276.749 98.1862 269.963C112.931 264.177 123.367 263.175 128.653 272.703L149.296 264.601C139.715 245.312 120.928 243.558 92.2418 254.816C63.2876 266.179 49.7932 281.065 57.5788 300.904C73.8338 342.325 137.139 287.626 146.66 311.888C150.29 321.138 143.534 327.966 125.303 335.12C107.877 341.959 98.6481 342.487 91.8164 332.174L71.1732 340.275ZM188.631 238.027L218.458 314.032L238.699 306.088L208.872 230.084L246.137 215.459L239.667 198.972L144.895 236.164L151.366 252.651L188.631 238.027ZM251.906 194.168L288.203 286.661L308.579 278.665L295.217 244.617L326.316 232.413L360.455 258.307L382.975 249.469L346.893 222.172C357.752 213.579 360.504 201.67 354.823 187.193C347.511 168.561 332.066 162.71 311.155 170.917L251.906 194.168ZM334.997 196.984C337.891 204.357 335.734 211.082 325.279 215.185L289.22 229.336L278.225 201.32L314.284 187.169C324.874 183.013 330.842 186.395 333.787 193.901L334.997 196.984ZM407.492 196.224L409.2 147.755L443.417 182.126L407.492 196.224ZM391.123 139.534L386.805 247.966L405.839 240.496L406.763 213.681L455.825 194.428L474.74 213.457L495.785 205.198L419.005 128.592L391.123 139.534ZM480.637 157.929C494.577 193.451 518.452 198.314 551.293 185.425C581.052 173.747 594.47 158.272 588.902 134.623L568.393 142.672C570.283 156.162 561.708 163.085 545.22 169.555C525.917 177.13 511.088 175.215 502.987 154.572L499.147 144.786C490.835 123.607 500.935 112.682 519.835 105.265C537.127 98.479 548.041 97.9086 555.528 110.285L576.037 102.236C564.098 79.6962 543.654 77.664 513.628 89.4476C480.786 102.336 466.749 122.54 480.637 157.929ZM612.372 71.7346L642.199 147.739L662.44 139.796L632.613 63.7912L669.878 49.1669L663.408 32.679L568.636 69.871L575.107 86.3589L612.372 71.7346Z" fill="white"/>
<rect x="82.8087" y="533.094" width="1086" height="202" transform="rotate(-1.73094 82.8087 533.094)" fill="black"/>
<path d="M109.331 684.962C110.483 723.105 131.322 735.729 166.586 734.663C198.539 733.698 216.388 723.65 219.116 699.508L197.094 700.174C194.328 713.512 183.921 717.14 166.217 717.675C145.49 718.301 132.175 711.5 131.505 689.334L131.187 678.827C130.5 656.085 143.69 649.204 163.985 648.59C182.552 648.029 193.02 651.171 195.898 665.346L217.92 664.681C214.275 639.435 195.713 630.632 163.472 631.606C128.208 632.672 108.182 646.963 109.331 684.962ZM326.809 683.144C327.466 704.878 315.039 713.177 290.139 713.93C265.094 714.687 252.189 707.153 251.532 685.419L251.223 675.2C250.583 654.041 263.006 645.598 288.051 644.841C312.951 644.089 325.861 651.766 326.501 672.925L326.809 683.144ZM229.349 680.759C230.515 719.333 251.79 732.088 290.652 730.914C329.37 729.744 349.836 715.727 348.67 677.153C347.522 639.154 326.256 626.687 287.537 627.857C248.675 629.031 228.201 642.76 229.349 680.759ZM440.714 724.506L470.509 723.606L467.507 624.291L447.357 624.9L449.71 702.769L394.533 626.496L364.594 627.401L367.596 726.716L387.746 726.107L385.385 647.951L440.714 724.506ZM485.913 693.751C488.89 715.991 504.705 724.445 539.249 723.401C573.217 722.375 588.628 712.689 587.958 690.523C586.636 646.767 508.56 675.635 507.816 651.022C507.503 640.659 516.475 637.218 535.043 636.657C550.875 636.178 561.038 638.753 562.803 649.504L584.969 648.834C582.45 627.445 565.353 619.462 534.551 620.392C503.461 621.332 485.739 630.799 486.383 652.102C487.727 696.577 565.764 666.415 566.551 692.467C566.851 702.398 558.188 706.55 538.613 707.141C519.902 707.707 511.035 705.093 508.079 693.081L485.913 693.751ZM630.959 637.072L633.425 718.683L655.159 718.026L652.693 636.415L692.707 635.206L692.172 617.502L590.41 620.577L590.945 638.281L630.959 637.072ZM705.314 617.105L708.315 716.419L730.193 715.758L729.088 679.199L762.481 678.19L785.896 714.075L810.077 713.344L785.306 675.483C798.426 671.053 805.03 660.769 804.56 645.224C803.956 625.217 791.386 614.504 768.933 615.182L705.314 617.105ZM782.595 647.76C782.834 655.677 778.538 661.281 767.311 661.62L728.592 662.79L727.683 632.708L766.402 631.538C777.772 631.195 782.251 636.39 782.495 644.45L782.595 647.76ZM851.105 671.478L869.048 626.419L889.679 670.312L851.105 671.478ZM854.8 612.587L814.189 713.22L834.627 712.602L844.535 687.668L897.215 686.076L908.61 710.367L931.207 709.684L884.738 611.683L854.8 612.587ZM932.877 660.075C934.029 698.217 954.868 710.842 990.132 709.776C1022.09 708.81 1039.93 698.763 1042.66 674.621L1020.64 675.287C1017.87 688.624 1007.47 692.252 989.763 692.787C969.036 693.414 955.721 686.613 955.051 664.447L954.733 653.94C954.046 631.198 967.236 624.316 987.531 623.703C1006.1 623.142 1016.57 626.283 1019.44 640.459L1041.47 639.793C1037.82 614.548 1019.26 605.745 987.018 606.719C951.754 607.785 931.728 622.076 932.877 660.075ZM1085.95 623.322L1088.42 704.933L1110.15 704.276L1107.69 622.665L1147.7 621.456L1147.17 603.752L1045.41 606.827L1045.94 624.531L1085.95 623.322Z" fill="white"/>
<rect x="599.928" y="197.138" width="1086" height="281.435" transform="rotate(25.2221 599.928 197.138)" fill="black"/>
<path d="M538.76 372.711C522.499 407.232 535.352 427.931 567.269 442.965C596.189 456.587 616.653 455.721 630.027 435.438L610.096 426.05C601.584 436.685 590.663 435.202 574.64 427.654C555.881 418.818 547.094 406.72 556.544 386.659L561.023 377.149C570.719 356.566 585.595 356.41 603.963 365.062C620.768 372.978 628.675 380.523 624.815 394.463L644.747 403.851C652.941 379.696 640.385 363.436 611.204 349.69C579.288 334.657 554.96 338.319 538.76 372.711ZM733.44 469.665C724.174 489.336 709.335 491.101 686.798 480.485C664.131 469.808 656.042 457.243 665.308 437.572L669.665 428.323C678.685 409.173 693.585 407.277 716.252 417.955C738.789 428.57 746.817 441.265 737.797 460.415L733.44 469.665ZM647.647 423.363C631.202 458.276 644.384 479.289 679.558 495.857C714.601 512.363 739.197 509.146 755.642 474.233C771.841 439.841 758.536 419.089 723.493 402.583C688.32 386.015 663.846 388.972 647.647 423.363ZM816.224 558.162L843.19 570.865L885.531 480.977L867.293 472.387L834.095 542.863L819.483 449.866L792.386 437.103L750.046 526.99L768.284 535.581L801.604 464.844L816.224 558.162ZM870.453 551.235C863.027 572.409 873.291 587.112 904.557 601.839C935.301 616.321 953.427 614.672 962.877 594.61C981.531 555.008 898.852 545.351 909.345 523.075C913.763 513.695 923.32 514.695 940.125 522.611C954.455 529.361 962.347 536.262 959.047 546.645L979.109 556.095C986.559 535.887 974.937 521.022 947.059 507.89C918.921 494.636 898.832 495.042 889.75 514.323C870.789 554.576 954.021 563.061 942.915 586.64C938.681 595.629 929.077 595.403 911.36 587.057C894.425 579.08 887.706 572.732 890.515 560.684L870.453 551.235ZM1025.43 566.456L990.642 640.32L1010.31 649.585L1045.11 575.722L1081.32 592.78L1088.87 576.757L996.767 533.374L989.219 549.397L1025.43 566.456ZM1100.76 582.36L1058.42 672.247L1078.22 681.574L1093.81 648.485L1124.03 662.721L1128.64 705.321L1150.53 715.63L1145.61 670.654C1159.31 672.652 1169.86 666.478 1176.48 652.409C1185.01 634.301 1178.67 619.054 1158.34 609.482L1100.76 582.36ZM1155.76 644.714C1152.38 651.879 1146.01 654.927 1135.85 650.141L1100.81 633.634L1113.63 606.407L1148.67 622.914C1158.97 627.762 1160.6 634.422 1157.17 641.718L1155.76 644.714ZM1206.07 696.908L1242.49 664.877L1240.99 713.353L1206.07 696.908ZM1236.06 646.089L1154.25 717.383L1172.75 726.097L1192.88 708.361L1240.56 730.82L1239.71 757.637L1260.16 767.271L1263.16 658.852L1236.06 646.089ZM1284.13 723.807C1267.87 758.329 1280.72 779.028 1312.64 794.061C1341.56 807.684 1362.02 806.818 1375.4 786.535L1355.47 777.147C1346.96 787.782 1336.03 786.298 1320.01 778.751C1301.25 769.915 1292.47 757.817 1301.92 737.755L1306.39 728.245C1316.09 707.662 1330.97 707.507 1349.33 716.159C1366.14 724.075 1374.05 731.619 1370.19 745.559L1390.12 754.948C1398.31 730.793 1385.76 714.532 1356.58 700.787C1324.66 685.753 1300.33 689.416 1284.13 723.807ZM1437.24 760.431L1402.45 834.295L1422.12 843.56L1456.91 769.697L1493.13 786.755L1500.67 770.732L1408.57 727.349L1401.02 743.372L1437.24 760.431Z" fill="white"/>
<rect x="182" y="196.287" width="1086" height="202" fill="black"/>
<path d="M201.48 301.751C201.48 339.911 221.928 353.159 257.208 353.159C289.176 353.159 307.32 343.655 310.776 319.607L288.744 319.607C285.576 332.855 275.064 336.167 257.352 336.167C236.616 336.167 223.512 328.967 223.512 306.791L223.512 296.279C223.512 273.527 236.904 267.047 257.208 267.047C275.784 267.047 286.152 270.503 288.6 284.759L310.632 284.759C307.752 259.415 289.464 250.055 257.208 250.055C221.928 250.055 201.48 263.735 201.48 301.751ZM418.914 306.503C418.914 328.247 406.242 336.167 381.33 336.167C356.274 336.167 343.602 328.247 343.602 306.503L343.602 296.279C343.602 275.111 356.274 267.047 381.33 267.047C406.242 267.047 418.914 275.111 418.914 296.279L418.914 306.503ZM321.57 301.175C321.57 339.767 342.45 353.159 381.33 353.159C420.066 353.159 440.946 339.767 440.946 301.175C440.946 263.159 420.066 250.055 381.33 250.055C342.45 250.055 321.57 263.159 321.57 301.175ZM531.518 351.287L561.326 351.287L561.326 251.927L541.166 251.927L541.166 329.831L488.318 251.927L458.366 251.927L458.366 351.287L478.526 351.287L478.526 273.095L531.518 351.287ZM577.625 321.911C579.929 344.231 595.481 353.159 630.041 353.159C664.025 353.159 679.721 343.943 679.721 321.767C679.721 277.991 600.809 304.487 600.809 279.863C600.809 269.495 609.881 266.327 628.457 266.327C644.297 266.327 654.377 269.207 655.817 280.007L677.993 280.007C676.121 258.551 659.273 250.055 628.457 250.055C597.353 250.055 579.353 258.983 579.353 280.295C579.353 324.791 658.265 296.999 658.265 323.063C658.265 332.999 649.481 336.887 629.897 336.887C611.177 336.887 602.393 334.007 599.801 321.911L577.625 321.911ZM724.317 269.639L724.317 351.287L746.061 351.287L746.061 269.639L786.093 269.639L786.093 251.927L684.285 251.927L684.285 269.639L724.317 269.639ZM799.241 251.927L799.241 351.287L821.129 351.287L821.129 314.711L854.537 314.711L876.857 351.287L901.049 351.287L877.433 312.695C890.681 308.663 897.593 298.583 897.593 283.031C897.593 263.015 885.353 251.927 862.889 251.927L799.241 251.927ZM875.561 284.903C875.561 292.823 871.097 298.295 859.865 298.295L821.129 298.295L821.129 268.199L859.865 268.199C871.241 268.199 875.561 273.527 875.561 281.591L875.561 284.903ZM943.323 310.679L962.619 266.183L981.915 310.679L943.323 310.679ZM948.795 251.927L905.163 351.287L925.611 351.287L936.267 326.663L988.971 326.663L999.627 351.287L1022.23 351.287L978.747 251.927L948.795 251.927ZM1025.4 301.751C1025.4 339.911 1045.85 353.159 1081.13 353.159C1113.1 353.159 1131.24 343.655 1134.7 319.607L1112.67 319.607C1109.5 332.855 1098.99 336.167 1081.27 336.167C1060.54 336.167 1047.43 328.967 1047.43 306.791L1047.43 296.279C1047.43 273.527 1060.83 267.047 1081.13 267.047C1099.71 267.047 1110.07 270.503 1112.52 284.759L1134.55 284.759C1131.67 259.415 1113.39 250.055 1081.13 250.055C1045.85 250.055 1025.4 263.735 1025.4 301.751ZM1179.52 269.639L1179.52 351.287L1201.26 351.287L1201.26 269.639L1241.3 269.639L1241.3 251.927L1139.49 251.927L1139.49 269.639L1179.52 269.639Z" fill="white"/>
<rect x="-79.9995" y="115.373" width="1086" height="202" transform="rotate(-6.03995 -79.9995 115.373)" fill="black"/>
<path d="M-49.5305 218.202C-45.5152 256.15 -23.7867 267.173 11.2974 263.461C43.088 260.097 60.1312 248.737 61.0376 224.458L39.1279 226.777C37.3715 240.284 27.2664 244.684 9.65269 246.548C-10.9682 248.73 -24.7571 242.949 -27.0905 220.896L-28.1966 210.442C-30.5906 187.816 -17.9547 179.963 2.23654 177.827C20.7094 175.872 31.3835 178.218 35.318 192.137L57.2277 189.819C51.6969 164.919 32.5256 157.535 0.448614 160.929C-34.6355 164.641 -53.5306 180.397 -49.5305 218.202ZM167.197 200.049C169.485 221.672 157.717 230.881 132.943 233.503C108.026 236.139 94.5909 229.596 92.303 207.973L91.2272 197.806C88.9998 176.755 100.753 167.403 125.67 164.766C150.444 162.145 163.894 168.831 166.121 189.881L167.197 200.049ZM69.8326 204.993C73.8934 243.371 96.0666 254.491 134.731 250.4C173.252 246.324 192.607 230.81 188.546 192.432C184.546 154.627 162.403 143.793 123.882 147.869C85.2178 151.96 65.8325 167.188 69.8326 204.993ZM283.888 232.736L313.53 229.599L303.075 130.791L283.027 132.912L291.224 210.384L230.473 138.473L200.687 141.624L211.142 240.433L231.19 238.312L222.962 160.554L283.888 232.736ZM326.648 198.671C331.287 220.625 347.692 227.867 382.061 224.23C415.856 220.655 430.495 209.838 428.162 187.785C423.555 144.252 347.87 178.905 345.279 154.417C344.188 144.107 352.876 140.002 371.349 138.047C387.101 136.38 397.428 138.184 399.996 148.772L422.049 146.439C417.93 125.299 400.282 118.623 369.637 121.866C338.705 125.138 321.745 135.911 323.987 157.104C328.669 201.353 404.219 165.412 406.961 191.332C408.007 201.213 399.681 206.003 380.205 208.064C361.589 210.034 352.551 208.094 348.7 196.338L326.648 198.671ZM467.025 131.254L475.616 212.449L497.24 210.161L488.649 128.966L528.458 124.754L526.595 107.14L425.352 117.853L427.215 135.466L467.025 131.254ZM539.669 105.757L550.124 204.565L571.891 202.262L568.042 165.889L601.265 162.374L627.309 196.398L651.367 193.853L623.822 157.96C636.572 152.556 642.385 141.805 640.748 126.339C638.642 106.435 625.303 96.696 602.964 99.0597L539.669 105.757ZM619.036 130.519C619.869 138.395 616.006 144.307 604.836 145.489L566.315 149.564L563.148 119.635L601.669 115.56C612.982 114.363 617.839 119.206 618.687 127.226L619.036 130.519ZM689.134 149.022L703.641 102.743L727.512 144.961L689.134 149.022ZM688.393 90.0205L655.458 193.42L675.793 191.268L683.799 165.66L736.21 160.114L749.398 183.48L771.881 181.101L718.179 86.8689L688.393 90.0205ZM769.818 131.507C773.833 169.455 795.561 180.478 830.645 176.766C862.436 173.402 879.479 162.042 880.386 137.764L858.476 140.082C856.72 153.59 846.614 157.99 829.001 159.853C808.38 162.035 794.591 156.254 792.258 134.201L791.152 123.747C788.757 101.122 801.393 93.2685 821.585 91.1321C840.057 89.1775 850.732 91.5233 854.666 105.443L876.576 103.124C871.045 78.2241 851.874 70.8403 819.797 74.2344C784.713 77.9466 765.817 93.7022 769.818 131.507ZM919.701 83.3569L928.293 164.552L949.916 162.264L941.325 81.0689L981.134 76.8567L979.271 59.243L878.028 69.9554L879.892 87.5691L919.701 83.3569Z" fill="white"/>
<rect x="-13.3594" y="351" width="1086" height="202" transform="rotate(1.6 -13.3594 351)" fill="black"/>
<path d="M3.16825 456.967C2.10276 495.112 22.1729 508.926 57.4391 509.911C89.3947 510.803 107.797 501.81 111.923 477.868L89.8997 477.252C86.363 490.407 75.7626 493.424 58.0575 492.929C37.3296 492.35 24.4317 484.787 25.0509 462.62L25.3444 452.112C25.9797 429.369 39.5474 423.265 59.8435 423.832C78.4123 424.351 88.6797 428.095 90.7287 442.414L112.752 443.029C110.581 417.615 92.5614 407.748 60.318 406.847C25.0517 405.862 4.22972 418.966 3.16825 456.967ZM220.385 467.788C219.778 489.524 206.89 497.087 181.988 496.391C156.941 495.691 144.495 487.421 145.103 465.685L145.388 455.465C145.979 434.305 158.871 426.598 183.917 427.298C208.82 427.994 221.262 436.408 220.671 457.568L220.385 467.788ZM123.228 459.744C122.15 498.321 142.648 512.291 181.513 513.376C220.234 514.458 241.48 501.654 242.557 463.077C243.619 425.076 223.113 411.394 184.392 410.313C145.527 409.227 124.289 421.743 123.228 459.744ZM331.694 515.699L361.491 516.531L364.265 417.21L344.113 416.647L341.938 494.52L291.285 415.171L261.345 414.335L258.571 513.656L278.723 514.219L280.906 436.057L331.694 515.699ZM378.604 487.621C380.283 509.997 395.58 519.356 430.127 520.321C464.097 521.27 480.045 512.496 480.664 490.328C481.886 446.569 402.265 470.852 402.953 446.237C403.242 435.873 412.399 432.96 430.968 433.478C446.802 433.921 456.797 437.081 457.935 447.917L480.102 448.536C478.83 427.036 462.226 418.073 431.422 417.213C400.33 416.344 382.088 424.766 381.493 446.07C380.25 490.549 459.908 464.971 459.18 491.025C458.903 500.957 450.013 504.598 430.437 504.051C411.724 503.528 403.024 500.404 400.771 488.241L378.604 487.621ZM526.698 439.466L524.418 521.082L546.154 521.689L548.434 440.073L588.45 441.191L588.944 423.486L487.176 420.643L486.682 438.348L526.698 439.466ZM602.087 423.853L599.313 523.174L621.192 523.785L622.214 487.223L655.609 488.156L676.899 525.341L701.081 526.017L678.552 486.78C691.907 483.12 699.098 473.237 699.532 457.691C700.091 437.682 688.166 426.257 665.71 425.63L602.087 423.853ZM677.457 458.947C677.236 466.864 672.621 472.209 661.393 471.895L622.672 470.814L623.512 440.729L662.233 441.811C673.605 442.129 677.774 447.575 677.549 455.636L677.457 458.947ZM744.473 486.605L765.004 442.665L783.05 487.682L744.473 486.605ZM751.583 428.028L705.194 526.131L725.634 526.702L736.973 502.386L789.657 503.857L799.621 528.769L822.22 529.4L781.523 428.865L751.583 428.028ZM826.769 479.972C825.703 518.117 845.773 531.931 881.04 532.916C912.995 533.809 931.398 524.815 935.524 500.873L913.5 500.258C909.964 513.412 899.363 516.429 881.658 515.935C860.93 515.356 848.032 507.793 848.652 485.625L848.945 475.117C849.58 452.374 863.148 446.271 883.444 446.838C902.013 447.356 912.28 451.1 914.329 465.419L936.353 466.034C934.182 440.62 916.162 430.753 883.919 429.852C848.652 428.867 827.83 441.971 826.769 479.972ZM981.724 452.176L979.444 533.792L1001.18 534.399L1003.46 452.783L1043.48 453.901L1043.97 436.196L942.202 433.353L941.707 451.058L981.724 452.176Z" fill="white"/>
<rect x="288.641" y="199.286" width="1086" height="202" transform="rotate(1.6 288.641 199.286)" fill="black"/>
<path d="M305.168 305.253C304.103 343.398 324.173 357.212 359.439 358.197C391.395 359.089 409.797 350.096 413.923 326.154L391.9 325.538C388.363 338.693 377.763 341.71 360.058 341.215C339.33 340.637 326.432 333.073 327.051 310.906L327.344 300.398C327.98 277.655 341.547 271.551 361.844 272.118C380.412 272.637 390.68 276.381 392.729 290.7L414.752 291.315C412.581 265.901 394.561 256.034 362.318 255.133C327.052 254.148 306.23 267.252 305.168 305.253ZM522.385 316.074C521.778 337.81 508.89 345.373 483.988 344.677C458.941 343.978 446.495 335.707 447.103 313.971L447.388 303.751C447.979 282.592 460.871 274.885 485.917 275.584C510.82 276.28 523.262 284.694 522.671 305.854L522.385 316.074ZM425.228 308.03C424.15 346.607 444.648 360.577 483.513 361.663C522.234 362.744 543.48 349.94 544.557 311.363C545.619 273.362 525.113 259.68 486.392 258.599C447.527 257.513 426.289 270.029 425.228 308.03ZM633.694 363.985L663.491 364.817L666.265 265.496L646.113 264.933L643.938 342.807L593.285 263.457L563.345 262.621L560.571 361.942L580.723 362.505L582.906 284.344L633.694 363.985ZM680.604 335.908C682.283 358.283 697.58 367.642 732.127 368.607C766.097 369.556 782.045 360.782 782.664 338.614C783.886 294.855 704.265 319.138 704.953 294.523C705.242 284.159 714.399 281.246 732.968 281.765C748.802 282.207 758.797 285.367 759.935 296.203L782.102 296.822C780.83 275.322 764.226 266.359 733.422 265.499C702.33 264.63 684.088 273.052 683.493 294.356C682.25 338.835 761.908 313.257 761.18 339.311C760.903 349.243 752.013 352.884 732.437 352.337C713.724 351.815 705.024 348.69 702.771 336.527L680.604 335.908ZM828.698 287.752L826.418 369.368L848.154 369.975L850.434 288.359L890.45 289.477L890.944 271.772L789.176 268.929L788.682 286.634L828.698 287.752ZM904.087 272.139L901.313 371.46L923.192 372.071L924.214 335.509L957.609 336.442L978.899 373.627L1003.08 374.303L980.552 335.066C993.907 331.406 1001.1 321.523 1001.53 305.977C1002.09 285.969 990.166 274.543 967.71 273.916L904.087 272.139ZM979.457 307.233C979.236 315.15 974.621 320.495 963.393 320.181L924.672 319.1L925.512 289.016L964.233 290.097C975.605 290.415 979.774 295.861 979.549 303.922L979.457 307.233ZM1046.47 334.891L1067 290.951L1085.05 335.968L1046.47 334.891ZM1053.58 276.315L1007.19 374.418L1027.63 374.988L1038.97 350.672L1091.66 352.143L1101.62 377.055L1124.22 377.686L1083.52 277.151L1053.58 276.315ZM1128.77 328.258C1127.7 366.403 1147.77 380.217 1183.04 381.202C1215 382.095 1233.4 373.101 1237.52 349.159L1215.5 348.544C1211.96 361.698 1201.36 364.715 1183.66 364.221C1162.93 363.642 1150.03 356.079 1150.65 333.911L1150.95 323.403C1151.58 300.66 1165.15 294.557 1185.44 295.124C1204.01 295.642 1214.28 299.387 1216.33 313.705L1238.35 314.32C1236.18 288.906 1218.16 279.039 1185.92 278.138C1150.65 277.153 1129.83 290.257 1128.77 328.258ZM1283.72 300.462L1281.44 382.078L1303.18 382.685L1305.46 301.069L1345.48 302.187L1345.97 284.482L1244.2 281.639L1243.71 299.344L1283.72 300.462Z" fill="white"/>
<rect x="522.786" y="616.426" width="1086" height="202" transform="rotate(-2.25908 522.786 616.426)" fill="black"/>
<path d="M546.408 721.04C547.912 759.17 568.866 771.602 604.119 770.211C636.062 768.951 653.817 758.739 656.323 734.574L634.308 735.442C631.664 748.805 621.291 752.529 603.593 753.227C582.873 754.044 569.495 747.366 568.621 725.208L568.207 714.704C567.31 691.969 580.436 684.967 600.725 684.166C619.286 683.434 629.782 686.479 632.79 700.627L654.805 699.759C650.928 674.548 632.286 665.916 600.055 667.187C564.802 668.578 544.909 683.053 546.408 721.04ZM763.86 717.217C764.718 738.944 752.368 747.358 727.475 748.34C702.438 749.327 689.464 741.913 688.607 720.186L688.204 709.97C687.37 688.818 699.714 680.261 724.75 679.274C749.643 678.292 762.623 685.85 763.457 707.001L763.86 717.217ZM666.382 715.731C667.903 754.293 689.295 766.851 728.145 765.319C766.851 763.792 787.187 749.587 785.665 711.025C784.167 673.039 762.787 660.768 724.081 662.295C685.231 663.827 664.884 677.744 666.382 715.731ZM878.142 757.528L907.927 756.353L904.01 657.07L883.866 657.865L886.937 735.708L831.059 659.948L801.13 661.129L805.047 760.411L825.191 759.617L822.109 681.486L878.142 757.528ZM923.055 726.357C926.237 748.569 942.129 756.877 976.662 755.515C1010.62 754.175 1025.94 744.348 1025.07 722.189C1023.34 678.447 945.534 708.033 944.564 683.428C944.155 673.068 953.095 669.545 971.656 668.813C987.484 668.188 997.67 670.669 999.534 681.404L1021.69 680.53C1018.98 659.164 1001.81 651.339 971.015 652.553C939.935 653.779 922.301 663.41 923.141 684.706C924.895 729.167 1002.65 698.286 1003.68 724.33C1004.07 734.258 995.445 738.489 975.877 739.261C957.171 739.999 948.281 737.468 945.214 725.483L923.055 726.357ZM1067.57 668.344L1070.79 749.928L1092.52 749.071L1089.3 667.486L1129.3 665.908L1128.6 648.21L1026.87 652.223L1027.57 669.922L1067.57 668.344ZM1141.74 647.692L1145.66 746.975L1167.53 746.112L1166.09 709.564L1199.47 708.248L1223.21 743.915L1247.39 742.962L1222.27 705.331C1235.35 700.779 1241.85 690.435 1241.24 674.895C1240.45 654.894 1227.79 644.298 1205.34 645.183L1141.74 647.692ZM1219.3 677.634C1219.61 685.548 1215.37 691.191 1204.14 691.634L1165.44 693.161L1164.25 663.089L1202.96 661.562C1214.33 661.113 1218.85 666.267 1219.17 674.325L1219.3 677.634ZM1288.03 700.719L1305.55 655.497L1326.59 699.198L1288.03 700.719ZM1291.18 641.797L1251.5 742.799L1271.93 741.993L1281.61 716.969L1334.27 714.891L1345.89 739.076L1368.48 738.185L1321.11 640.616L1291.18 641.797ZM1369.69 688.562C1371.19 726.693 1392.15 739.124 1427.4 737.734C1459.34 736.474 1477.1 726.262 1479.6 702.096L1457.59 702.965C1454.95 716.327 1444.57 720.051 1426.87 720.749C1406.15 721.567 1392.78 714.889 1391.9 692.73L1391.49 682.226C1390.59 659.492 1403.72 652.489 1424.01 651.689C1442.57 650.956 1453.06 654.001 1456.07 668.149L1478.09 667.281C1474.21 642.07 1455.57 633.438 1423.34 634.71C1388.08 636.101 1368.19 650.576 1369.69 688.562ZM1522.42 650.4L1525.64 731.985L1547.37 731.128L1544.15 649.543L1584.15 647.965L1583.45 630.267L1481.72 634.28L1482.42 651.978L1522.42 650.4Z" fill="white"/>
<rect x="426.641" y="-64" width="1086" height="202" transform="rotate(1.6 426.641 -64)" fill="black"/>
<path d="M443.168 41.9667C442.103 80.1119 462.173 93.9256 497.439 94.9107C529.395 95.8033 547.797 86.8096 551.923 62.8675L529.9 62.2523C526.363 75.4067 515.763 78.4239 498.058 77.9294C477.33 77.3504 464.432 69.7873 465.051 47.6199L465.344 37.112C465.98 14.3689 479.547 8.26536 499.844 8.83229C518.412 9.35096 528.68 13.0951 530.729 27.4139L552.752 28.0291C550.581 2.61454 532.561 -7.25244 500.318 -8.15308C465.052 -9.13816 444.23 3.96556 443.168 41.9667ZM660.385 52.788C659.778 74.5235 646.89 82.0866 621.988 81.391C596.941 80.6914 584.495 72.4207 585.103 50.6852L585.388 40.4652C585.979 19.3054 598.871 11.5984 623.917 12.298C648.82 12.9936 661.262 21.4083 660.671 42.568L660.385 52.788ZM563.228 44.7441C562.15 83.321 582.648 97.2908 621.513 98.3764C660.234 99.458 681.48 86.6542 682.557 48.0773C683.619 10.0761 663.113 -3.60581 624.392 -4.68738C585.527 -5.77298 564.289 6.7429 563.228 44.7441ZM771.694 100.699L801.491 101.531L804.265 2.20966L784.113 1.64675L781.938 79.5204L731.285 0.171151L701.345 -0.665159L698.571 98.6561L718.723 99.219L720.906 21.0575L771.694 100.699ZM818.604 72.6215C820.283 94.9971 835.58 104.356 870.127 105.321C904.097 106.27 920.045 97.4956 920.664 75.3282C921.886 31.5693 842.265 55.8516 842.953 31.2372C843.242 20.8732 852.399 17.9598 870.968 18.4785C886.802 18.9207 896.797 22.0811 897.935 32.9171L920.102 33.5362C918.83 12.0363 902.226 3.07324 871.422 2.2128C840.33 1.34433 822.088 9.76625 821.493 31.0699C820.25 75.5486 899.908 49.9708 899.18 76.0246C898.903 85.9567 890.013 89.598 870.437 89.0512C851.724 88.5285 843.024 85.4043 840.771 73.2407L818.604 72.6215ZM966.698 24.4657L964.418 106.082L986.154 106.689L988.434 25.0729L1028.45 26.1906L1028.94 8.48553L927.176 5.64288L926.682 23.348L966.698 24.4657ZM1042.09 8.85264L1039.31 108.174L1061.19 108.785L1062.21 72.2233L1095.61 73.1561L1116.9 110.341L1141.08 111.017L1118.55 71.7802C1131.91 68.1197 1139.1 58.2366 1139.53 42.6907C1140.09 22.6825 1128.17 11.257 1105.71 10.6298L1042.09 8.85264ZM1117.46 43.9468C1117.24 51.8637 1112.62 57.2089 1101.39 56.8953L1062.67 55.8137L1063.51 25.7294L1102.23 26.811C1113.6 27.1287 1117.77 32.5752 1117.55 40.6361L1117.46 43.9468ZM1184.47 71.6047L1205 27.6649L1223.05 72.6823L1184.47 71.6047ZM1191.58 13.0284L1145.19 111.131L1165.63 111.702L1176.97 87.3855L1229.66 88.8571L1239.62 113.769L1262.22 114.4L1221.52 13.8647L1191.58 13.0284ZM1266.77 64.972C1265.7 103.117 1285.77 116.931 1321.04 117.916C1353 118.809 1371.4 109.815 1375.52 85.8728L1353.5 85.2576C1349.96 98.412 1339.36 101.429 1321.66 100.935C1300.93 100.356 1288.03 92.7926 1288.65 70.6252L1288.95 60.1173C1289.58 37.3742 1303.15 31.2706 1323.44 31.8376C1342.01 32.3562 1352.28 36.1004 1354.33 50.4192L1376.35 51.0343C1374.18 25.6198 1356.16 15.7528 1323.92 14.8522C1288.65 13.8671 1267.83 26.9708 1266.77 64.972ZM1421.72 37.1758L1419.44 118.792L1441.18 119.399L1443.46 37.7829L1483.48 38.9007L1483.97 21.1956L1382.2 18.3529L1381.71 36.058L1421.72 37.1758Z" fill="white"/>
<rect x="532.641" y="252" width="1086" height="202" transform="rotate(1.6 532.641 252)" fill="black"/>
<path d="M549.168 357.967C548.103 396.112 568.173 409.926 603.439 410.911C635.395 411.803 653.797 402.81 657.923 378.868L635.9 378.252C632.363 391.407 621.763 394.424 604.058 393.929C583.33 393.35 570.432 385.787 571.051 363.62L571.344 353.112C571.98 330.369 585.547 324.265 605.844 324.832C624.412 325.351 634.68 329.095 636.729 343.414L658.752 344.029C656.581 318.615 638.561 308.748 606.318 307.847C571.052 306.862 550.23 319.966 549.168 357.967ZM766.385 368.788C765.778 390.524 752.89 398.087 727.988 397.391C702.941 396.691 690.495 388.421 691.103 366.685L691.388 356.465C691.979 335.305 704.871 327.598 729.917 328.298C754.82 328.994 767.262 337.408 766.671 358.568L766.385 368.788ZM669.228 360.744C668.15 399.321 688.648 413.291 727.513 414.376C766.234 415.458 787.48 402.654 788.557 364.077C789.619 326.076 769.113 312.394 730.392 311.313C691.527 310.227 670.289 322.743 669.228 360.744ZM877.694 416.699L907.491 417.531L910.265 318.21L890.113 317.647L887.938 395.52L837.285 316.171L807.345 315.335L804.571 414.656L824.723 415.219L826.906 337.057L877.694 416.699ZM924.604 388.621C926.283 410.997 941.58 420.356 976.127 421.321C1010.1 422.27 1026.04 413.496 1026.66 391.328C1027.89 347.569 948.265 371.852 948.953 347.237C949.242 336.873 958.399 333.96 976.968 334.478C992.802 334.921 1002.8 338.081 1003.94 348.917L1026.1 349.536C1024.83 328.036 1008.23 319.073 977.422 318.213C946.33 317.344 928.088 325.766 927.493 347.07C926.25 391.549 1005.91 365.971 1005.18 392.025C1004.9 401.957 996.013 405.598 976.437 405.051C957.724 404.528 949.024 401.404 946.771 389.241L924.604 388.621ZM1072.7 340.466L1070.42 422.082L1092.15 422.689L1094.43 341.073L1134.45 342.191L1134.94 324.486L1033.18 321.643L1032.68 339.348L1072.7 340.466ZM1148.09 324.853L1145.31 424.174L1167.19 424.785L1168.21 388.223L1201.61 389.156L1222.9 426.341L1247.08 427.017L1224.55 387.78C1237.91 384.12 1245.1 374.237 1245.53 358.691C1246.09 338.682 1234.17 327.257 1211.71 326.63L1148.09 324.853ZM1223.46 359.947C1223.24 367.864 1218.62 373.209 1207.39 372.895L1168.67 371.814L1169.51 341.729L1208.23 342.811C1219.6 343.129 1223.77 348.575 1223.55 356.636L1223.46 359.947ZM1290.47 387.605L1311 343.665L1329.05 388.682L1290.47 387.605ZM1297.58 329.028L1251.19 427.131L1271.63 427.702L1282.97 403.386L1335.66 404.857L1345.62 429.769L1368.22 430.4L1327.52 329.865L1297.58 329.028ZM1372.77 380.972C1371.7 419.117 1391.77 432.931 1427.04 433.916C1459 434.809 1477.4 425.815 1481.52 401.873L1459.5 401.258C1455.96 414.412 1445.36 417.429 1427.66 416.935C1406.93 416.356 1394.03 408.793 1394.65 386.625L1394.95 376.117C1395.58 353.374 1409.15 347.271 1429.44 347.838C1448.01 348.356 1458.28 352.1 1460.33 366.419L1482.35 367.034C1480.18 341.62 1462.16 331.753 1429.92 330.852C1394.65 329.867 1373.83 342.971 1372.77 380.972ZM1527.72 353.176L1525.44 434.792L1547.18 435.399L1549.46 353.783L1589.48 354.901L1589.97 337.196L1488.2 334.353L1487.71 352.058L1527.72 353.176Z" fill="white"/>
<rect x="-27" y="555.946" width="1086" height="202" transform="rotate(-7.50716 -27 555.946)" fill="black"/>
<path d="M6.09188 657.961C11.0775 695.794 33.0811 706.257 68.0587 701.648C99.7527 697.471 116.499 685.678 116.784 661.385L94.9408 664.263C93.5308 677.811 83.5416 682.468 65.9814 684.783C45.4232 687.492 31.4908 682.065 28.5935 660.08L27.2201 649.658C24.2476 627.101 36.6782 618.927 56.8081 616.274C75.2249 613.847 85.9556 615.919 90.2451 629.733L112.088 626.854C105.922 602.104 86.5676 595.213 54.5881 599.427C19.6105 604.037 1.12508 620.271 6.09188 657.961ZM222.283 634.265C225.124 655.822 213.596 665.33 188.897 668.585C164.056 671.858 150.458 665.662 147.617 644.104L146.281 633.968C143.516 612.981 155.025 603.331 179.867 600.057C204.565 596.802 218.182 603.142 220.948 624.128L222.283 634.265ZM125.078 641.7C130.12 679.962 152.57 690.511 191.117 685.431C229.521 680.37 248.472 664.365 243.43 626.104C238.464 588.414 216.051 578.15 177.647 583.211C139.1 588.291 120.111 604.01 125.078 641.7ZM339.773 663.953L369.325 660.059L356.344 561.55L336.357 564.184L346.535 641.421L283.962 571.089L254.266 575.002L267.248 673.51L287.235 670.877L277.019 593.355L339.773 663.953ZM381.647 628.805C386.847 650.633 403.432 657.452 437.696 652.937C471.389 648.497 485.746 637.309 482.849 615.323C477.129 571.923 402.355 608.501 399.138 584.088C397.784 573.809 406.364 569.483 424.781 567.056C440.485 564.987 450.855 566.525 453.694 577.044L475.679 574.147C471.02 553.12 453.207 546.898 422.655 550.924C391.817 554.988 375.138 566.191 377.923 587.32C383.736 631.435 458.341 593.571 461.746 619.412C463.044 629.262 454.843 634.265 435.427 636.823C416.868 639.269 407.783 637.561 403.632 625.908L381.647 628.805ZM520.252 557.816L530.919 638.764L552.477 635.923L541.81 554.975L581.498 549.745L579.184 532.185L478.249 545.486L480.563 563.046L520.252 557.816ZM592.22 530.467L605.201 628.975L626.901 626.115L622.123 589.853L655.244 585.488L682.152 618.835L706.136 615.674L677.681 580.498C690.288 574.77 695.824 563.873 693.792 548.454C691.177 528.61 677.593 519.216 655.322 522.151L592.22 530.467ZM672.194 553.189C673.228 561.041 669.518 567.049 658.382 568.517L619.978 573.578L616.046 543.74L654.45 538.679C665.728 537.192 670.707 541.91 671.761 549.905L672.194 553.189ZM742.743 569.891L756.06 523.255L781.004 564.849L742.743 569.891ZM740.492 510.927L710.215 615.136L730.488 612.465L737.835 586.66L790.088 579.774L803.869 602.795L826.284 599.841L770.187 507.014L740.492 510.927ZM822.951 550.316C827.937 588.149 849.941 598.612 884.918 594.002C916.612 589.826 933.359 578.033 933.644 553.739L911.8 556.618C910.39 570.166 900.401 574.823 882.841 577.137C862.283 579.846 848.35 574.42 845.453 552.434L844.08 542.012C841.107 519.455 853.538 511.281 873.668 508.628C892.085 506.201 902.815 508.273 907.105 522.087L928.948 519.209C922.781 494.458 903.427 487.568 871.448 491.782C836.47 496.391 817.985 512.626 822.951 550.316ZM971.553 498.343L982.221 579.292L1003.78 576.451L993.111 495.503L1032.8 490.272L1030.49 472.712L929.55 486.013L931.864 503.574L971.553 498.343Z" fill="white"/>
<rect x="298.07" y="35.896" width="1086" height="202" transform="rotate(3.54699 298.07 35.896)" fill="black"/>
<path d="M310.988 142.363C308.627 180.45 328.217 194.938 363.429 197.12C395.336 199.098 414.033 190.735 418.97 166.947L396.98 165.584C392.999 178.61 382.302 181.266 364.624 180.17C343.928 178.887 331.294 170.89 332.666 148.757L333.317 138.265C334.724 115.556 348.491 109.917 368.757 111.173C387.297 112.323 397.431 116.413 398.993 130.794L420.982 132.157C419.676 106.683 402.002 96.2095 369.808 94.2139C334.595 92.0312 313.34 104.42 310.988 142.363ZM527.712 160.558C526.367 182.26 513.229 189.381 488.365 187.84C463.357 186.29 451.199 177.601 452.544 155.899L453.177 145.694C454.487 124.567 467.633 117.302 492.641 118.852C517.505 120.394 529.654 129.226 528.345 150.354L527.712 160.558ZM430.884 149.218C428.497 187.736 448.508 202.394 487.314 204.799C525.975 207.196 547.644 195.121 550.032 156.603C552.383 118.66 532.354 104.289 493.692 101.893C454.887 99.4876 433.236 111.275 430.884 149.218ZM637.329 212.223L667.08 214.067L673.227 114.897L653.106 113.65L648.286 191.405L600.359 110.38L570.464 108.527L564.317 207.697L584.439 208.944L589.276 130.902L637.329 212.223ZM685.165 185.755C686.084 208.175 701.054 218.048 735.548 220.186C769.467 222.289 785.703 214.062 787.075 191.928C789.783 148.236 709.383 169.799 710.906 145.222C711.548 134.874 720.798 132.274 739.339 133.423C755.148 134.403 765.031 137.901 765.8 148.769L787.934 150.141C787.393 128.611 771.102 119.088 740.345 117.182C709.301 115.258 690.783 123.055 689.465 144.326C686.712 188.737 767.192 165.88 765.58 191.894C764.965 201.811 755.957 205.148 736.411 203.937C717.727 202.779 709.138 199.361 707.299 187.127L685.165 185.755ZM834.81 142.659L829.759 224.151L851.461 225.496L856.513 144.004L896.468 146.481L897.564 128.803L795.951 122.504L794.855 140.182L834.81 142.659ZM910.686 129.616L904.539 228.786L926.385 230.14L928.648 193.634L961.992 195.701L982.007 233.588L1006.15 235.085L984.969 195.105C998.441 191.901 1005.96 182.268 1006.93 166.745C1008.16 146.768 996.634 134.944 974.213 133.554L910.686 129.616ZM984.82 167.251C984.33 175.156 979.536 180.341 968.326 179.646L929.664 177.25L931.526 147.211L970.188 149.608C981.542 150.312 985.524 155.897 985.025 163.945L984.82 167.251ZM1050.86 197.17L1072.87 153.953L1089.38 199.557L1050.86 197.17ZM1059.95 138.869L1010.26 235.339L1030.67 236.604L1042.83 212.687L1095.43 215.947L1104.54 241.183L1127.11 242.582L1089.85 140.722L1059.95 138.869ZM1133.33 193.337C1130.97 231.424 1150.56 245.911 1185.77 248.094C1217.68 250.072 1236.38 241.708 1241.31 217.92L1219.32 216.557C1215.34 229.584 1204.65 232.239 1186.97 231.143C1166.27 229.861 1153.64 221.864 1155.01 199.73L1155.66 189.238C1157.07 166.53 1170.83 160.891 1191.1 162.147C1209.64 163.296 1219.77 167.387 1221.34 181.767L1243.33 183.13C1242.02 157.657 1224.35 147.183 1192.15 145.188C1156.94 143.005 1135.68 155.394 1133.33 193.337ZM1289.14 170.821L1284.09 252.313L1305.79 253.658L1310.84 172.166L1350.8 174.643L1351.89 156.965L1250.28 150.666L1249.19 168.344L1289.14 170.821Z" fill="white"/>
<rect x="568.942" y="337" width="1086" height="202" transform="rotate(6.52161 568.942 337)" fill="black"/>
<path d="M576.318 443.994C571.984 481.907 590.795 497.392 625.846 501.399C657.608 505.03 676.714 497.648 682.879 474.148L660.989 471.646C656.337 484.448 645.517 486.545 627.919 484.533C607.318 482.178 595.116 473.536 597.635 451.504L598.829 441.06C601.413 418.455 615.454 413.538 635.627 415.844C654.083 417.954 663.991 422.565 664.804 437.007L686.694 439.509C686.711 414.002 669.604 402.626 637.557 398.962C602.505 394.955 580.636 406.224 576.318 443.994ZM791.806 473.411C789.336 495.014 775.846 501.444 751.096 498.614C726.202 495.769 714.511 486.461 716.981 464.857L718.142 454.699C720.546 433.668 734.052 427.096 758.946 429.942C783.697 432.771 795.371 442.222 792.967 463.253L791.806 473.411ZM695.697 457.061C691.313 495.404 710.537 511.08 749.166 515.496C787.651 519.896 809.917 508.962 814.3 470.62C818.618 432.85 799.361 417.459 760.876 413.06C722.248 408.644 700.014 419.291 695.697 457.061ZM898.594 530.694L928.209 534.08L939.494 435.363L919.465 433.073L910.616 510.473L866.959 427.071L837.2 423.669L825.915 522.386L845.945 524.676L854.826 446.99L898.594 530.694ZM947.739 506.745C947.493 529.183 961.93 539.819 996.267 543.744C1030.03 547.604 1046.67 540.231 1049.19 518.198C1054.16 474.705 972.752 492.067 975.549 467.603C976.726 457.302 986.099 455.185 1004.56 457.294C1020.29 459.093 1029.98 463.1 1030.18 473.993L1052.22 476.512C1052.79 454.982 1037.02 444.628 1006.4 441.128C975.501 437.595 956.603 444.421 954.183 465.595C949.129 509.803 1030.69 491.153 1027.73 517.049C1026.6 526.92 1017.43 529.786 997.972 527.561C979.373 525.435 970.973 521.576 969.772 509.264L947.739 506.745ZM1099.42 471.473L1090.15 552.592L1111.75 555.062L1121.02 473.942L1160.8 478.489L1162.81 460.892L1061.66 449.328L1059.65 466.926L1099.42 471.473ZM1175.87 462.385L1164.58 561.102L1186.33 563.588L1190.49 527.249L1223.68 531.043L1241.7 569.917L1265.73 572.665L1246.65 531.641C1260.27 529.139 1268.29 519.91 1270.05 504.458C1272.33 484.572 1261.42 472.165 1239.11 469.614L1175.87 462.385ZM1247.95 503.816C1247.05 511.685 1241.99 516.614 1230.83 515.338L1192.35 510.939L1195.77 481.038L1234.25 485.437C1245.56 486.729 1249.24 492.513 1248.33 500.525L1247.95 503.816ZM1312.35 537.121L1336.57 495.105L1350.69 541.504L1312.35 537.121ZM1324.46 479.371L1269.82 573.132L1290.14 575.455L1303.52 552.2L1355.88 558.186L1363.67 583.861L1386.14 586.429L1354.21 482.773L1324.46 479.371ZM1394.91 537.573C1390.57 575.486 1409.39 590.971 1444.44 594.978C1476.2 598.609 1495.3 591.227 1501.47 567.727L1479.58 565.225C1474.93 578.028 1464.11 580.124 1446.51 578.113C1425.91 575.757 1413.71 567.116 1416.23 545.083L1417.42 534.639C1420 512.034 1434.04 507.117 1454.22 509.423C1472.67 511.533 1482.58 516.144 1483.39 530.586L1505.28 533.089C1505.3 507.581 1488.19 496.205 1456.15 492.541C1421.1 488.534 1399.23 499.803 1394.91 537.573ZM1551.68 523.174L1542.4 604.293L1564.01 606.763L1573.28 525.643L1613.05 530.19L1615.06 512.593L1513.92 501.029L1511.9 518.627L1551.68 523.174Z" fill="white"/>
<rect x="458.781" y="292.819" width="1086" height="202" transform="rotate(-9.72723 458.781 292.819)" fill="black"/>
<path d="M495.8 393.475C502.248 431.087 524.64 440.689 559.413 434.729C590.921 429.327 607.199 416.894 606.542 392.608L584.826 396.331C583.942 409.924 574.141 414.964 556.684 417.957C536.246 421.46 522.114 416.578 518.367 394.72L516.591 384.36C512.747 361.935 524.851 353.285 544.863 349.855C563.172 346.716 573.975 348.371 578.797 362.008L600.512 358.286C593.391 333.793 573.785 327.657 541.993 333.107C507.22 339.068 489.377 356.006 495.8 393.475ZM710.911 361.422C714.585 382.853 703.434 392.8 678.88 397.009C654.184 401.243 640.356 395.578 636.682 374.146L634.955 364.069C631.378 343.206 642.506 333.117 667.201 328.883C691.755 324.674 705.607 330.481 709.184 351.345L710.911 361.422ZM614.067 372.617C620.587 410.655 643.43 420.326 681.751 413.757C719.93 407.212 738.247 390.485 731.726 352.448C725.303 314.979 702.51 305.591 664.33 312.136C626.009 318.705 607.644 335.148 614.067 372.617ZM829.463 386.537L858.842 381.5L842.054 283.569L822.184 286.975L835.347 363.759L770.096 295.904L740.575 300.965L757.362 398.896L777.233 395.49L764.021 318.422L829.463 386.537ZM869.943 349.793C875.985 371.403 892.822 377.575 926.886 371.736C960.381 365.994 974.294 354.258 970.547 332.401C963.151 289.254 889.85 328.702 885.69 304.432C883.938 294.213 892.344 289.558 910.653 286.42C926.266 283.743 936.687 284.879 939.931 295.28L961.789 291.533C956.318 270.702 938.277 265.175 907.904 270.382C877.247 275.637 861.014 287.478 864.615 308.483C872.133 352.34 945.215 311.614 949.619 337.304C951.298 347.097 943.297 352.413 923.994 355.722C905.543 358.885 896.399 357.53 891.801 346.046L869.943 349.793ZM1005.69 273.488L1019.49 353.962L1040.92 350.288L1027.13 269.814L1066.58 263.05L1063.59 245.593L963.246 262.794L966.238 280.251L1005.69 273.488ZM1076.55 243.371L1093.34 341.303L1114.91 337.605L1108.73 301.555L1141.66 295.91L1169.84 328.189L1193.68 324.102L1163.88 290.055C1176.26 283.842 1181.37 272.739 1178.74 257.411C1175.36 237.683 1161.42 228.822 1139.28 232.617L1076.55 243.371ZM1157.34 262.978C1158.68 270.785 1155.21 276.932 1144.14 278.83L1105.96 285.375L1100.87 255.711L1139.05 249.166C1150.26 247.244 1155.42 251.766 1156.78 259.714L1157.34 262.978ZM1228.49 276.935L1239.99 229.818L1266.52 270.414L1228.49 276.935ZM1223.95 218.103L1197.74 323.406L1217.89 319.952L1224.23 293.881L1276.18 284.976L1290.84 307.446L1313.12 303.626L1253.47 213.042L1223.95 218.103ZM1307.88 254.267C1314.32 291.879 1336.72 301.481 1371.49 295.521C1403 290.119 1419.28 277.686 1418.62 253.4L1396.9 257.123C1396.02 270.715 1386.22 275.756 1368.76 278.749C1348.32 282.252 1334.19 277.37 1330.44 255.512L1328.67 245.152C1324.82 222.727 1336.93 214.077 1356.94 210.647C1375.25 207.508 1386.05 209.163 1390.87 222.8L1412.59 219.078C1405.47 194.584 1385.86 188.449 1354.07 193.899C1319.3 199.86 1301.45 216.798 1307.88 254.267ZM1454.35 196.578L1468.15 277.052L1489.58 273.378L1475.79 192.904L1515.24 186.14L1512.25 168.683L1411.9 185.884L1414.9 203.341L1454.35 196.578Z" fill="white"/>
<rect x="-72.3119" y="578" width="1086" height="202" transform="rotate(5.59327 -72.3119 578)" fill="black"/>
<path d="M-63.2038 684.86C-66.9231 722.839 -47.8637 738.017 -12.7517 741.455C19.0641 744.571 38.0481 736.881 43.8315 713.284L21.9044 711.137C17.4602 724.013 6.67546 726.285 -10.9522 724.558C-31.5895 722.537 -43.9293 714.094 -41.7679 692.024L-40.7434 681.562C-38.5258 658.918 -24.566 653.774 -4.35867 655.753C14.1289 657.564 24.1107 662.014 25.1575 676.441L47.0847 678.588C46.6885 653.084 29.3999 641.986 -2.70253 638.842C-37.8146 635.404 -59.4985 647.025 -63.2038 684.86ZM152.732 710.782C150.613 732.423 137.229 739.07 112.436 736.642C87.4992 734.2 75.6594 725.082 77.7787 703.442L78.7752 693.267C80.8384 672.199 94.236 665.409 119.173 667.851C143.966 670.279 155.792 679.54 153.729 700.607L152.732 710.782ZM56.3709 695.992C52.6095 734.4 72.0849 749.763 110.78 753.553C149.331 757.328 171.417 746.035 175.179 707.627C178.884 669.792 159.38 654.715 120.829 650.94C82.134 647.15 60.0762 658.157 56.3709 695.992ZM260.435 766.328L290.101 769.233L299.785 670.346L279.721 668.381L272.128 745.915L227.125 663.231L197.315 660.311L187.631 759.198L207.695 761.163L215.316 683.343L260.435 766.328ZM309.185 741.586C309.303 764.024 323.911 774.425 358.306 777.794C392.128 781.106 408.648 773.464 410.809 751.393C415.076 707.826 333.957 726.504 336.357 701.998C337.368 691.679 346.705 689.41 365.193 691.221C380.957 692.765 390.709 696.613 391.089 707.502L413.16 709.664C413.388 688.127 397.448 678.03 366.779 675.026C335.823 671.995 317.038 679.126 314.961 700.336C310.624 744.62 391.869 724.652 389.329 750.592C388.361 760.481 379.239 763.494 359.749 761.585C341.118 759.761 332.656 756.038 331.256 743.747L309.185 741.586ZM460.274 703.86L452.316 785.119L473.956 787.239L481.914 705.979L521.756 709.881L523.482 692.254L422.159 682.331L420.432 699.958L460.274 703.86ZM536.567 693.535L526.883 792.422L548.667 794.555L552.232 758.153L585.481 761.41L604.129 799.987L628.206 802.345L608.464 761.635C622.042 758.913 629.904 749.555 631.419 734.077C633.37 714.156 622.269 701.928 599.912 699.739L536.567 693.535ZM609.31 733.793C608.538 741.675 603.562 746.686 592.383 745.591L553.832 741.816L556.765 711.863L595.317 715.638C606.638 716.747 610.419 722.471 609.633 730.496L609.31 733.793ZM674.237 766.05L697.778 723.647L712.645 769.812L674.237 766.05ZM685.409 708.111L632.301 802.746L652.651 804.739L665.657 781.271L718.11 786.407L726.315 811.953L748.815 814.156L715.219 711.031L685.409 708.111ZM756.795 765.165C753.076 803.143 772.135 818.321 807.247 821.76C839.063 824.875 858.047 817.185 863.831 793.588L841.903 791.441C837.459 804.317 826.675 806.589 809.047 804.863C788.41 802.842 776.07 794.399 778.231 772.328L779.256 761.866C781.473 739.223 795.433 734.079 815.64 736.058C834.128 737.868 844.11 742.318 845.157 756.745L867.084 758.892C866.688 733.388 849.399 722.29 817.297 719.147C782.184 715.708 760.501 727.33 756.795 765.165ZM913.31 748.227L905.352 829.486L926.992 831.606L934.95 750.346L974.791 754.248L976.518 736.62L875.194 726.698L873.468 744.325L913.31 748.227Z" fill="white"/>
<rect x="-36.2676" y="-118" width="1086" height="218.605" transform="rotate(6.46162 -36.2676 -118)" fill="black"/>
<path d="M-11.1607 9.59316C-15.4551 47.5107 3.3721 62.9758 38.428 66.9461C70.1929 70.5437 89.2912 63.1419 95.4316 39.6356L73.5395 37.1562C68.9007 49.9635 58.0828 52.0715 40.4833 50.0782C19.879 47.7446 7.66855 39.1157 10.1642 17.0806L11.3472 6.63534C13.9076 -15.9721 27.9438 -20.9039 48.1188 -18.6189C66.5768 -16.5284 76.49 -11.9276 77.3181 2.51338L99.2102 4.9928C99.2006 -20.5143 82.0822 -31.8729 50.0311 -35.5029C14.9752 -39.4733 -6.88244 -28.1814 -11.1607 9.59316ZM204.358 38.7845C201.911 60.3904 188.428 66.834 163.674 64.0305C138.777 61.2107 127.077 51.915 129.524 30.3091L130.675 20.15C133.057 -0.883503 146.556 -7.4702 171.453 -4.65046C196.206 -1.84692 207.89 7.59193 205.508 28.6255L204.358 38.7845ZM108.232 22.5355C103.889 60.8823 123.129 76.5391 161.762 80.9145C200.252 85.2738 222.506 74.3166 226.849 35.9698C231.128 -1.80472 211.855 -17.1753 173.365 -21.5345C134.732 -25.91 112.51 -15.239 108.232 22.5355ZM311.206 95.9562L340.825 99.3107L352.006 0.581857L331.974 -1.6869L323.207 75.7222L279.462 -7.63429L249.7 -11.005L238.519 87.7238L258.551 89.9926L267.35 12.2973L311.206 95.9562ZM360.326 71.9555C360.103 94.393 374.552 105.015 408.892 108.904C442.661 112.728 459.294 105.337 461.79 83.3021C466.716 39.8042 385.324 57.2513 388.095 32.7837C389.261 22.4816 398.632 20.3546 417.09 22.4451C432.83 24.2277 442.522 28.2238 442.737 39.1173L464.772 41.6129C465.327 20.0825 449.542 9.74448 418.922 6.27652C388.015 2.77615 369.125 9.62175 366.726 30.7984C361.719 75.0117 443.257 56.2768 440.324 82.1753C439.206 92.0481 430.04 94.9229 410.581 92.719C391.979 90.6123 383.575 86.762 382.361 74.4512L360.326 71.9555ZM511.969 36.524L502.78 117.653L524.386 120.1L533.575 38.971L573.352 43.4761L575.346 25.8766L474.184 14.4194L472.191 32.0189L511.969 36.524ZM588.41 27.3562L577.228 126.085L598.977 128.548L603.093 92.2046L636.289 95.9643L654.351 134.82L678.39 137.542L659.267 96.5378C672.884 94.0223 680.887 84.7842 682.637 69.331C684.889 49.4421 673.975 37.0471 651.654 34.519L588.41 27.3562ZM660.534 68.7116C659.643 76.5813 654.591 81.5162 643.431 80.2522L604.941 75.8929L608.328 45.9881L646.818 50.3474C658.121 51.6276 661.814 57.4079 660.907 65.4207L660.534 68.7116ZM724.965 101.95L749.146 59.9079L763.312 106.293L724.965 101.95ZM737.014 44.1867L682.477 138.005L702.796 140.306L716.155 117.038L768.524 122.969L776.341 148.636L798.806 151.18L766.776 47.5574L737.014 44.1867ZM807.527 102.315C803.233 140.233 822.06 155.698 857.116 159.668C888.881 163.266 907.979 155.864 914.119 132.358L892.227 129.878C887.589 142.686 876.771 144.794 859.171 142.8C838.567 140.467 826.356 131.838 828.852 109.803L830.035 99.3576C832.596 76.7501 846.632 71.8184 866.807 74.1033C885.265 76.1938 895.178 80.7946 896.006 95.2356L917.898 97.715C917.889 72.2079 900.77 60.8493 868.719 57.2193C833.663 53.2489 811.805 64.5409 807.527 102.315ZM964.28 87.7515L955.092 168.881L976.698 171.328L985.886 90.1985L1025.66 94.7036L1027.66 77.1041L926.496 65.6469L924.503 83.2463L964.28 87.7515Z" fill="white"/>
</g>
<defs>
<clipPath id="clip0_107:36">
<rect width="1480" height="767" fill="white"/>
</clipPath>
</defs>
</svg>
