<svg width="1442" height="507" viewBox="0 0 1442 507" fill="none" xmlns="http://www.w3.org/2000/svg">
<rect x="-3" y="-1" width="1445" height="508" fill="#FF603D"/>
<path d="M162.969 173.791H196.37V62.1042H173.78V149.673L114.562 62.1042H81.0002V173.791H103.59V85.8983L162.969 173.791Z" fill="black"/>
<path d="M324.839 123.451C324.839 147.892 310.64 156.795 282.725 156.795C254.649 156.795 240.45 147.892 240.45 123.451V111.958C240.45 88.1644 254.649 79.1 282.725 79.1C310.64 79.1 324.839 88.1644 324.839 111.958V123.451ZM215.763 117.462C215.763 160.842 239.159 175.895 282.725 175.895C326.13 175.895 349.527 160.842 349.527 117.462C349.527 74.7297 326.13 60 282.725 60C239.159 60 215.763 74.7297 215.763 117.462Z" fill="black"/>
<path d="M369.046 62.1042V173.791H393.572V132.677H431.006L456.016 173.791H483.124L456.662 130.411C471.507 125.879 479.252 114.548 479.252 97.067C479.252 74.5678 465.536 62.1042 440.365 62.1042H369.046ZM454.564 99.1712C454.564 108.074 449.562 114.225 436.976 114.225H393.572V80.3949H436.976C449.724 80.3949 454.564 86.3839 454.564 95.4483V99.1712Z" fill="black"/>
<path d="M615.689 173.791H640.054V62.1042H602.942L569.864 137.695L536.625 62.1042H499.675V173.791H521.78V80.8805L555.988 158.575H581.482L615.689 80.8805V173.791Z" fill="black"/>
<path d="M695.631 128.145L717.253 78.1288L738.875 128.145H695.631ZM701.763 62.1042L652.872 173.791H675.785L687.725 146.112H746.781L758.721 173.791H784.054L735.325 62.1042H701.763Z" fill="black"/>
<path d="M796.702 62.1042V173.791H890.611V153.881H821.228V62.1042H796.702Z" fill="black"/>
<path d="M905.428 62.1042V173.791H929.954V62.1042H905.428Z" fill="black"/>
<path d="M1016.39 153.881H978.96V82.0136H1016.39C1038.34 82.0136 1050.28 90.4305 1050.28 112.444V122.642C1050.28 145.303 1038.34 153.881 1016.39 153.881ZM954.434 62.1042V173.791H1017.85C1055.12 173.791 1074.97 158.414 1074.97 117.947C1074.97 76.9958 1055.12 62.1042 1017.85 62.1042H954.434Z" fill="black"/>
<path d="M1121.4 128.145L1143.02 78.1288L1164.64 128.145H1121.4ZM1127.53 62.1042L1078.64 173.791H1101.55L1113.49 146.112H1172.55L1184.49 173.791H1209.82L1161.09 62.1042H1127.53Z" fill="black"/>
<path d="M1284.43 153.881H1246.99V82.0136H1284.43C1306.37 82.0136 1318.31 90.4305 1318.31 112.444V122.642C1318.31 145.303 1306.37 153.881 1284.43 153.881ZM1222.47 62.1042V173.791H1285.88C1323.15 173.791 1343 158.414 1343 117.947C1343 76.9958 1323.15 62.1042 1285.88 62.1042H1222.47Z" fill="black"/>
<path d="M228.157 242.314L206.051 331.663L181.847 242.314H151.997L126.986 331.663L105.526 242.314H81L108.108 354H140.218L165.389 264.813L189.592 354H221.38L249.456 242.314H228.157Z" fill="black"/>
<path d="M264.013 242.314V354H288.539V242.314H264.013Z" fill="black"/>
<path d="M374.979 334.091H337.544V262.223H374.979C396.923 262.223 408.864 270.64 408.864 292.653V302.851C408.864 325.512 396.923 334.091 374.979 334.091ZM313.018 242.314V354H376.431C413.704 354 433.551 338.623 433.551 298.157C433.551 257.205 413.704 242.314 376.431 242.314H313.018Z" fill="black"/>
<path d="M453.102 242.314V354H550.722V335.062H477.628V306.088H534.586V287.797H477.628V261.252H550.077V242.314H453.102Z" fill="black"/>
</svg>
