<svg width="831" height="743" viewBox="0 0 831 743" fill="none" xmlns="http://www.w3.org/2000/svg">
<rect width="831" height="743" fill="#FF603D"/>
<path d="M119.066 250.258C119.066 328.594 162.266 353.362 234.842 353.362C301.37 353.362 341.114 333.778 347.45 282.226H292.73C286.97 305.842 267.098 311.602 234.842 311.602C198.266 311.602 174.074 301.522 174.074 261.49V238.45C174.074 197.554 199.13 188.338 234.842 188.338C268.25 188.338 288.122 194.098 292.442 219.442H347.162C341.69 165.298 301.658 146.578 234.842 146.578C162.266 146.578 119.066 173.074 119.066 250.258Z" fill="black"/>
<rect x="342.972" y="339.83" width="59.4238" height="60.3248" fill="#C4C4C4"/>
<path d="M464.781 403.673C464.781 474.488 408.236 531.869 338.516 531.869C268.795 531.869 212.25 474.488 212.25 403.673C212.25 332.858 268.795 275.478 338.516 275.478C408.236 275.478 464.781 332.858 464.781 403.673Z" fill="#FF603D" stroke="black" stroke-width="2"/>
<path d="M247.894 316.705L429.137 315.706" stroke="white" stroke-width="2"/>
<path d="M263.741 220.185L429.137 219.18" stroke="white" stroke-width="2"/>
<mask id="mask0_326:2254" style="mask-type:alpha" maskUnits="userSpaceOnUse" x="116" y="175" width="239" height="216">
<path d="M116.547 283.065C116.408 364.665 161.364 390.544 236.964 390.676C306.264 390.798 347.699 370.47 354.39 316.782L297.39 316.682C291.348 341.272 270.638 347.235 237.038 347.176C198.938 347.109 173.756 336.565 173.827 294.865L173.868 270.865C173.941 228.265 200.057 218.711 237.257 218.776C272.057 218.837 292.747 224.874 297.202 251.282L354.201 251.382C348.597 194.972 306.931 175.399 237.331 175.276C161.731 175.144 116.684 202.665 116.547 283.065Z" fill="black"/>
</mask>
<g mask="url(#mask0_326:2254)">
<path d="M467.516 399.061C467.395 469.876 410.752 527.157 341.032 527.035C271.311 526.913 214.864 469.433 214.984 398.618C215.105 327.804 271.748 270.522 341.468 270.644C411.189 270.767 467.636 328.247 467.516 399.061Z" fill="black" stroke="black" stroke-width="2"/>
</g>
</svg>
