<svg width="904" height="705" viewBox="0 0 904 705" fill="none" xmlns="http://www.w3.org/2000/svg">
<rect x="11" y="48" width="831" height="657" fill="#ABA5A5"/>
<path d="M83.448 117.28V316H221.4C265.464 316 286.776 295.552 286.776 257.824C286.776 234.496 275.832 217.504 248.472 210.592C272.952 202.528 280.728 184.96 280.728 165.376C280.728 133.408 258.84 117.28 218.52 117.28H83.448ZM232.632 258.976C232.632 273.376 223.128 280.576 206.136 280.576H137.016V231.04H206.136C223.416 231.04 232.632 238.528 232.632 251.488V258.976ZM226.584 177.184C226.584 190.144 217.944 197.344 202.68 197.344H137.016V152.704H202.68C218.232 152.704 226.584 159.328 226.584 171.712V177.184ZM427.21 270.208V316H479.05V169.12H367.306C326.41 169.12 305.674 186.976 305.674 218.944C305.674 240.544 316.33 254.656 337.354 261.28L303.946 316H359.242L387.178 270.208H427.21ZM427.21 202.528V236.8H375.082C364.138 236.8 358.09 231.328 358.09 222.4V216.928C358.09 208 364.426 202.528 375.082 202.528H427.21Z" fill="black"/>
<rect x="83.5" y="116.5" width="396" height="199" stroke="#F21717" stroke-width="3"/>
<circle cx="481.5" cy="378.5" r="114.5" fill="#FFF3E2" stroke="black" stroke-width="2"/>
<mask id="mask0_328:2282" style="mask-type:alpha" maskUnits="userSpaceOnUse" x="24" y="108" width="482" height="242">
<path d="M24.85 108.5V350H192.5C246.05 350 271.95 325.15 271.95 279.3C271.95 250.95 258.65 230.3 225.4 221.9C255.15 212.1 264.6 190.75 264.6 166.95C264.6 128.1 238 108.5 189 108.5H24.85ZM206.15 280.7C206.15 298.2 194.6 306.95 173.95 306.95H89.95V246.75H173.95C194.95 246.75 206.15 255.85 206.15 271.6V280.7ZM198.8 181.3C198.8 197.05 188.3 205.8 169.75 205.8H89.95V151.55H169.75C188.65 151.55 198.8 159.6 198.8 174.65V181.3ZM442.616 294.35V350H505.616V171.5H369.816C320.116 171.5 294.916 193.2 294.916 232.05C294.916 258.3 307.866 275.45 333.416 283.5L292.816 350H360.016L393.966 294.35H442.616ZM442.616 212.1V253.75H379.266C365.966 253.75 358.616 247.1 358.616 236.25V229.6C358.616 218.75 366.316 212.1 379.266 212.1H442.616Z" fill="black"/>
</mask>
<g mask="url(#mask0_328:2282)">
<path d="M593.191 379.5C593.191 442.754 542.833 494 480.751 494C418.669 494 368.312 442.754 368.312 379.5C368.312 316.246 418.669 265 480.751 265C542.833 265 593.191 316.246 593.191 379.5Z" fill="black" stroke="black" stroke-width="2"/>
</g>
<path d="M507 268V350L372 349.03" stroke="#F21717" stroke-width="3"/>
</svg>
