<svg width="1699" height="670" viewBox="0 0 1699 670" fill="none" xmlns="http://www.w3.org/2000/svg">
<rect y="40" width="1677" height="603" fill="white"/>
<path d="M178.71 93.34L196.13 53.17L213.55 93.34H178.71ZM183.65 40.3L144.26 130H162.72L172.34 107.77H219.92L229.54 130H249.95L210.69 40.3H183.65Z" fill="black"/>
<path d="M178.71 504.34L196.13 464.17L213.55 504.34H178.71ZM183.65 451.3L144.26 541H162.72L172.34 518.77H219.92L229.54 541H249.95L210.69 451.3H183.65Z" fill="black"/>
<path d="M42.71 504.34L60.13 464.17L77.55 504.34H42.71ZM47.65 451.3L8.26 541H26.72L36.34 518.77H83.92L93.54 541H113.95L74.69 451.3H47.65Z" fill="black"/>
<path d="M42.71 402.34L60.13 362.17L77.55 402.34H42.71ZM47.65 349.3L8.26 439H26.72L36.34 416.77H83.92L93.54 439H113.95L74.69 349.3H47.65Z" fill="black"/>
<path d="M42.71 290.34L60.13 250.17L77.55 290.34H42.71ZM47.65 237.3L8.26 327H26.72L36.34 304.77H83.92L93.54 327H113.95L74.69 237.3H47.65Z" fill="black"/>
<path d="M38.71 93.34L56.13 53.17L73.55 93.34H38.71ZM43.65 40.3L4.26 130H22.72L32.34 107.77H79.92L89.54 130H109.95L70.69 40.3H43.65Z" fill="black"/>
<path d="M177.71 402.34L195.13 362.17L212.55 402.34H177.71ZM182.65 349.3L143.26 439H161.72L171.34 416.77H218.92L228.54 439H248.95L209.69 349.3H182.65Z" fill="black"/>
<path d="M464.71 93.34L482.13 53.17L499.55 93.34H464.71ZM469.65 40.3L430.26 130H448.72L458.34 107.77H505.92L515.54 130H535.95L496.69 40.3H469.65Z" fill="black"/>
<path d="M464.71 504.34L482.13 464.17L499.55 504.34H464.71ZM469.65 451.3L430.26 541H448.72L458.34 518.77H505.92L515.54 541H535.95L496.69 451.3H469.65Z" fill="black"/>
<path d="M465.71 402.34L483.13 362.17L500.55 402.34H465.71ZM470.65 349.3L431.26 439H449.72L459.34 416.77H506.92L516.54 439H536.95L497.69 349.3H470.65Z" fill="black"/>
<path d="M745.71 93.34L763.13 53.17L780.55 93.34H745.71ZM750.65 40.3L711.26 130H729.72L739.34 107.77H786.92L796.54 130H816.95L777.69 40.3H750.65Z" fill="black"/>
<path d="M746.71 504.34L764.13 464.17L781.55 504.34H746.71ZM751.65 451.3L712.26 541H730.72L740.34 518.77H787.92L797.54 541H817.95L778.69 451.3H751.65Z" fill="black"/>
<path d="M748.71 402.34L766.13 362.17L783.55 402.34H748.71ZM753.65 349.3L714.26 439H732.72L742.34 416.77H789.92L799.54 439H819.95L780.69 349.3H753.65Z" fill="black"/>
<path d="M1029.71 93.34L1047.13 53.17L1064.55 93.34H1029.71ZM1034.65 40.3L995.26 130H1013.72L1023.34 107.77H1070.92L1080.54 130H1100.95L1061.69 40.3H1034.65Z" fill="black"/>
<path d="M1033.71 504.34L1051.13 464.17L1068.55 504.34H1033.71ZM1038.65 451.3L999.26 541H1017.72L1027.34 518.77H1074.92L1084.54 541H1104.95L1065.69 451.3H1038.65Z" fill="black"/>
<path d="M1034.71 402.34L1052.13 362.17L1069.55 402.34H1034.71ZM1039.65 349.3L1000.26 439H1018.72L1028.34 416.77H1075.92L1085.54 439H1105.95L1066.69 349.3H1039.65Z" fill="black"/>
<path d="M1315.71 93.34L1333.13 53.17L1350.55 93.34H1315.71ZM1320.65 40.3L1281.26 130H1299.72L1309.34 107.77H1356.92L1366.54 130H1386.95L1347.69 40.3H1320.65Z" fill="black"/>
<path d="M1318.71 504.34L1336.13 464.17L1353.55 504.34H1318.71ZM1323.65 451.3L1284.26 541H1302.72L1312.34 518.77H1359.92L1369.54 541H1389.95L1350.69 451.3H1323.65Z" fill="black"/>
<path d="M1319.71 402.34L1337.13 362.17L1354.55 402.34H1319.71ZM1324.65 349.3L1285.26 439H1303.72L1313.34 416.77H1360.92L1370.54 439H1390.95L1351.69 349.3H1324.65Z" fill="black"/>
<path d="M251.71 193.34L269.13 153.17L286.55 193.34H251.71ZM256.65 140.3L217.26 230H235.72L245.34 207.77H292.92L302.54 230H322.95L283.69 140.3H256.65Z" fill="black"/>
<path d="M251.71 608.34L269.13 568.17L286.55 608.34H251.71ZM256.65 555.3L217.26 645H235.72L245.34 622.77H292.92L302.54 645H322.95L283.69 555.3H256.65Z" fill="black"/>
<path d="M109.71 608.34L127.13 568.17L144.55 608.34H109.71ZM114.65 555.3L75.26 645H93.72L103.34 622.77H150.92L160.54 645H180.95L141.69 555.3H114.65Z" fill="black"/>
<path d="M537.71 193.34L555.13 153.17L572.55 193.34H537.71ZM542.65 140.3L503.26 230H521.72L531.34 207.77H578.92L588.54 230H608.95L569.69 140.3H542.65Z" fill="black"/>
<path d="M537.71 608.34L555.13 568.17L572.55 608.34H537.71ZM542.65 555.3L503.26 645H521.72L531.34 622.77H578.92L588.54 645H608.95L569.69 555.3H542.65Z" fill="black"/>
<path d="M675.71 193.34L693.13 153.17L710.55 193.34H675.71ZM680.65 140.3L641.26 230H659.72L669.34 207.77H716.92L726.54 230H746.95L707.69 140.3H680.65Z" fill="black"/>
<path d="M675.71 608.34L693.13 568.17L710.55 608.34H675.71ZM680.65 555.3L641.26 645H659.72L669.34 622.77H716.92L726.54 645H746.95L707.69 555.3H680.65Z" fill="black"/>
<path d="M957.71 193.34L975.13 153.17L992.55 193.34H957.71ZM962.65 140.3L923.26 230H941.72L951.34 207.77H998.92L1008.54 230H1028.95L989.69 140.3H962.65Z" fill="black"/>
<path d="M957.71 608.34L975.13 568.17L992.55 608.34H957.71ZM962.65 555.3L923.26 645H941.72L951.34 622.77H998.92L1008.54 645H1028.95L989.69 555.3H962.65Z" fill="black"/>
<path d="M1386.71 193.34L1404.13 153.17L1421.55 193.34H1386.71ZM1391.65 140.3L1352.26 230H1370.72L1380.34 207.77H1427.92L1437.54 230H1457.95L1418.69 140.3H1391.65Z" fill="black"/>
<path d="M1387.71 608.34L1405.13 568.17L1422.55 608.34H1387.71ZM1392.65 555.3L1353.26 645H1371.72L1381.34 622.77H1428.92L1438.54 645H1458.95L1419.69 555.3H1392.65Z" fill="black"/>
<path d="M1535.71 608.34L1553.13 568.17L1570.55 608.34H1535.71ZM1540.65 555.3L1501.26 645H1519.72L1529.34 622.77H1576.92L1586.54 645H1606.95L1567.69 555.3H1540.65Z" fill="black"/>
<path d="M178.71 289.34L196.13 249.17L213.55 289.34H178.71ZM183.65 236.3L144.26 326H162.72L172.34 303.77H219.92L229.54 326H249.95L210.69 236.3H183.65Z" fill="black"/>
<path d="M393.71 193.34L411.13 153.17L428.55 193.34H393.71ZM398.65 140.3L359.26 230H377.72L387.34 207.77H434.92L444.54 230H464.95L425.69 140.3H398.65Z" fill="black"/>
<path d="M393.71 608.34L411.13 568.17L428.55 608.34H393.71ZM398.65 555.3L359.26 645H377.72L387.34 622.77H434.92L444.54 645H464.95L425.69 555.3H398.65Z" fill="black"/>
<path d="M817.71 193.34L835.13 153.17L852.55 193.34H817.71ZM822.65 140.3L783.26 230H801.72L811.34 207.77H858.92L868.54 230H888.95L849.69 140.3H822.65Z" fill="black"/>
<path d="M817.71 608.34L835.13 568.17L852.55 608.34H817.71ZM822.65 555.3L783.26 645H801.72L811.34 622.77H858.92L868.54 645H888.95L849.69 555.3H822.65Z" fill="black"/>
<path d="M1100.71 193.34L1118.13 153.17L1135.55 193.34H1100.71ZM1105.65 140.3L1066.26 230H1084.72L1094.34 207.77H1141.92L1151.54 230H1171.95L1132.69 140.3H1105.65Z" fill="black"/>
<path d="M1100.71 608.34L1118.13 568.17L1135.55 608.34H1100.71ZM1105.65 555.3L1066.26 645H1084.72L1094.34 622.77H1141.92L1151.54 645H1171.95L1132.69 555.3H1105.65Z" fill="black"/>
<path d="M1030.71 294.34L1048.13 254.17L1065.55 294.34H1030.71ZM1035.65 241.3L996.26 331H1014.72L1024.34 308.77H1071.92L1081.54 331H1101.95L1062.69 241.3H1035.65Z" fill="black"/>
<path d="M326.71 294.34L344.13 254.17L361.55 294.34H326.71ZM331.65 241.3L292.26 331H310.72L320.34 308.77H367.92L377.54 331H397.95L358.69 241.3H331.65Z" fill="black"/>
<path d="M606.71 294.34L624.13 254.17L641.55 294.34H606.71ZM611.65 241.3L572.26 331H590.72L600.34 308.77H647.92L657.54 331H677.95L638.69 241.3H611.65Z" fill="black"/>
<path d="M1243.71 193.34L1261.13 153.17L1278.55 193.34H1243.71ZM1248.65 140.3L1209.26 230H1227.72L1237.34 207.77H1284.92L1294.54 230H1314.95L1275.69 140.3H1248.65Z" fill="black"/>
<path d="M1243.71 608.34L1261.13 568.17L1278.55 608.34H1243.71ZM1248.65 555.3L1209.26 645H1227.72L1237.34 622.77H1284.92L1294.54 645H1314.95L1275.69 555.3H1248.65Z" fill="black"/>
<path d="M1315.71 294.34L1333.13 254.17L1350.55 294.34H1315.71ZM1320.65 241.3L1281.26 331H1299.72L1309.34 308.77H1356.92L1366.54 331H1386.95L1347.69 241.3H1320.65Z" fill="black"/>
<path d="M1460.71 295.34L1478.13 255.17L1495.55 295.34H1460.71ZM1465.65 242.3L1426.26 332H1444.72L1454.34 309.77H1501.92L1511.54 332H1531.95L1492.69 242.3H1465.65Z" fill="black"/>
<path d="M1604.71 295.34L1622.13 255.17L1639.55 295.34H1604.71ZM1609.65 242.3L1570.26 332H1588.72L1598.34 309.77H1645.92L1655.54 332H1675.95L1636.69 242.3H1609.65Z" fill="black"/>
<path d="M1604.71 402.34L1622.13 362.17L1639.55 402.34H1604.71ZM1609.65 349.3L1570.26 439H1588.72L1598.34 416.77H1645.92L1655.54 439H1675.95L1636.69 349.3H1609.65Z" fill="black"/>
<path d="M1604.71 504.34L1622.13 464.17L1639.55 504.34H1604.71ZM1609.65 451.3L1570.26 541H1588.72L1598.34 518.77H1645.92L1655.54 541H1675.95L1636.69 451.3H1609.65Z" fill="black"/>
<path d="M320.71 93.34L338.13 53.17L355.55 93.34H320.71ZM325.65 40.3L286.26 130H304.72L314.34 107.77H361.92L371.54 130H391.95L352.69 40.3H325.65Z" fill="black"/>
<path d="M320.71 504.34L338.13 464.17L355.55 504.34H320.71ZM325.65 451.3L286.26 541H304.72L314.34 518.77H361.92L371.54 541H391.95L352.69 451.3H325.65Z" fill="black"/>
<path d="M320.71 402.34L338.13 362.17L355.55 402.34H320.71ZM325.65 349.3L286.26 439H304.72L314.34 416.77H361.92L371.54 439H391.95L352.69 349.3H325.65Z" fill="black"/>
<path d="M606.71 93.34L624.13 53.17L641.55 93.34H606.71ZM611.65 40.3L572.26 130H590.72L600.34 107.77H647.92L657.54 130H677.95L638.69 40.3H611.65Z" fill="black"/>
<path d="M609.71 504.34L627.13 464.17L644.55 504.34H609.71ZM614.65 451.3L575.26 541H593.72L603.34 518.77H650.92L660.54 541H680.95L641.69 451.3H614.65Z" fill="black"/>
<path d="M610.71 402.34L628.13 362.17L645.55 402.34H610.71ZM615.65 349.3L576.26 439H594.72L604.34 416.77H651.92L661.54 439H681.95L642.69 349.3H615.65Z" fill="black"/>
<path d="M887.71 93.34L905.13 53.17L922.55 93.34H887.71ZM892.65 40.3L853.26 130H871.72L881.34 107.77H928.92L938.54 130H958.95L919.69 40.3H892.65Z" fill="black"/>
<path d="M892.71 504.34L910.13 464.17L927.55 504.34H892.71ZM897.65 451.3L858.26 541H876.72L886.34 518.77H933.92L943.54 541H963.95L924.69 451.3H897.65Z" fill="black"/>
<path d="M893.71 402.34L911.13 362.17L928.55 402.34H893.71ZM898.65 349.3L859.26 439H877.72L887.34 416.77H934.92L944.54 439H964.95L925.69 349.3H898.65Z" fill="black"/>
<path d="M1173.71 93.34L1191.13 53.17L1208.55 93.34H1173.71ZM1178.65 40.3L1139.26 130H1157.72L1167.34 107.77H1214.92L1224.54 130H1244.95L1205.69 40.3H1178.65Z" fill="black"/>
<path d="M1178.71 504.34L1196.13 464.17L1213.55 504.34H1178.71ZM1183.65 451.3L1144.26 541H1162.72L1172.34 518.77H1219.92L1229.54 541H1249.95L1210.69 451.3H1183.65Z" fill="black"/>
<path d="M1178.71 402.34L1196.13 362.17L1213.55 402.34H1178.71ZM1183.65 349.3L1144.26 439H1162.72L1172.34 416.77H1219.92L1229.54 439H1249.95L1210.69 349.3H1183.65Z" fill="black"/>
<path d="M1459.71 93.34L1477.13 53.17L1494.55 93.34H1459.71ZM1464.65 40.3L1425.26 130H1443.72L1453.34 107.77H1500.92L1510.54 130H1530.95L1491.69 40.3H1464.65Z" fill="black"/>
<path d="M1589.71 93.34L1607.13 53.17L1624.55 93.34H1589.71ZM1594.65 40.3L1555.26 130H1573.72L1583.34 107.77H1630.92L1640.54 130H1660.95L1621.69 40.3H1594.65Z" fill="black"/>
<path d="M1462.71 504.34L1480.13 464.17L1497.55 504.34H1462.71ZM1467.65 451.3L1428.26 541H1446.72L1456.34 518.77H1503.92L1513.54 541H1533.95L1494.69 451.3H1467.65Z" fill="black"/>
<path d="M1463.71 402.34L1481.13 362.17L1498.55 402.34H1463.71ZM1468.65 349.3L1429.26 439H1447.72L1457.34 416.77H1504.92L1514.54 439H1534.95L1495.69 349.3H1468.65Z" fill="black"/>
</svg>
