<svg width="940" height="735" viewBox="0 0 940 735" fill="none" xmlns="http://www.w3.org/2000/svg">
<rect x="96" y="78" width="831" height="657" fill="#DB9696"/>
<path d="M96 209L640 208" stroke="#F21717" stroke-width="2"/>
<path d="M179 78L178.971 400" stroke="#F21717" stroke-width="2"/>
<path d="M96 114L637 114" stroke="#F21717" stroke-width="2"/>
<path d="M96 353L640 353" stroke="#F21717" stroke-width="2"/>
<path d="M329.088 153.28L245.568 237.664H212.448V153.28H179.616V352H212.448V264.736H245.568L330.528 352H373.44L273.792 249.184L368.544 153.28H329.088ZM556.628 352H587.444V208.288H542.516L489.812 309.088L437.396 208.288H392.468V352H420.404V231.04L473.396 332.416H503.348L556.628 230.752V352Z" fill="black"/>
<circle cx="425.5" cy="403.5" r="114.5" fill="#FFF3E2" stroke="black" stroke-width="2"/>
<mask id="mask0_328:2280" style="mask-type:alpha" maskUnits="userSpaceOnUse" x="32" y="124" width="568" height="276">
<path d="M240.4 124L124.4 241.2H78.4V124H32.8V400H78.4V278.8H124.4L242.4 400H302L163.6 257.2L295.2 124H240.4ZM556.428 400H599.228V200.4H536.828L463.628 340.4L390.828 200.4H328.428V400H367.228V232L440.828 372.8H482.428L556.428 231.6V400Z" fill="#FF603D"/>
</mask>
<g mask="url(#mask0_328:2280)">
<circle cx="426.885" cy="403.769" r="114.258" fill="black" stroke="black" stroke-width="2"/>
</g>
<path d="M311 400L539 400" stroke="#F21717" stroke-width="3"/>
<path d="M541.5 403.5C541.5 466.448 490.025 517.5 426.5 517.5C362.975 517.5 311.5 466.448 311.5 403.5C311.5 340.552 362.975 289.5 426.5 289.5C490.025 289.5 541.5 340.552 541.5 403.5Z" stroke="black" stroke-width="3"/>
</svg>
