<svg width="1174" height="273" viewBox="0 0 1174 273" fill="none" xmlns="http://www.w3.org/2000/svg">
<path d="M76.2002 105.45H107.25V1.94999H86.2502V83.1L31.2002 1.94999H0.000190735V105.45H21.0002V24L76.2002 105.45Z" fill="black"/>
<path d="M226.678 58.8C226.678 81.45 213.478 89.7 187.528 89.7C161.428 89.7 148.228 81.45 148.228 58.8V48.15C148.228 26.1 161.428 17.7 187.528 17.7C213.478 17.7 226.678 26.1 226.678 48.15V58.8ZM125.278 53.25C125.278 93.45 147.028 107.4 187.528 107.4C227.878 107.4 249.628 93.45 249.628 53.25C249.628 13.65 227.878 0 187.528 0C147.028 0 125.278 13.65 125.278 53.25Z" fill="black"/>
<path d="M267.774 1.94999V105.45H290.574V67.35H325.374L348.624 105.45H373.824L349.224 65.25C363.024 61.05 370.224 50.55 370.224 34.35C370.224 13.5 357.474 1.94999 334.074 1.94999H267.774ZM347.274 36.3C347.274 44.55 342.624 50.25 330.924 50.25H290.574V18.9H330.924C342.774 18.9 347.274 24.45 347.274 32.85V36.3Z" fill="black"/>
<path d="M497.059 105.45H519.709V1.94999H485.209L454.459 72L423.559 1.94999H389.209V105.45H409.759V19.35L441.559 91.35H465.259L497.059 19.35V105.45Z" fill="black"/>
<path d="M571.375 63.15L591.475 16.8L611.575 63.15H571.375ZM577.075 1.94999L531.625 105.45H552.925L564.025 79.8H618.925L630.025 105.45H653.575L608.275 1.94999H577.075Z" fill="black"/>
<path d="M665.332 1.94999V105.45H752.632V87H688.132V1.94999H665.332Z" fill="black"/>
<path d="M766.407 1.94999V105.45H789.207V1.94999H766.407Z" fill="black"/>
<path d="M869.563 87H834.763V20.4H869.563C889.963 20.4 901.063 28.2 901.063 48.6V58.05C901.063 79.05 889.963 87 869.563 87ZM811.963 1.94999V105.45H870.913C905.563 105.45 924.013 91.2 924.013 53.7C924.013 15.75 905.563 1.94999 870.913 1.94999H811.963Z" fill="black"/>
<path d="M967.176 63.15L987.276 16.8L1007.38 63.15H967.176ZM972.876 1.94999L927.426 105.45H948.726L959.826 79.8H1014.73L1025.83 105.45H1049.38L1004.08 1.94999H972.876Z" fill="black"/>
<path d="M1118.73 87H1083.93V20.4H1118.73C1139.13 20.4 1150.23 28.2 1150.23 48.6V58.05C1150.23 79.05 1139.13 87 1118.73 87ZM1061.13 1.94999V105.45H1120.08C1154.73 105.45 1173.18 91.2 1173.18 53.7C1173.18 15.75 1154.73 1.94999 1120.08 1.94999H1061.13Z" fill="black"/>
<path d="M136.8 168.95L116.25 251.75L93.75 168.95H66L42.75 251.75L22.8 168.95H9.53674e-07L25.2 272.45H55.05L78.45 189.8L100.95 272.45H130.5L156.6 168.95H136.8Z" fill="black"/>
<path d="M170.133 168.95V272.45H192.933V168.95H170.133Z" fill="black"/>
<path d="M273.289 254H238.489V187.4H273.289C293.689 187.4 304.789 195.2 304.789 215.6V225.05C304.789 246.05 293.689 254 273.289 254ZM215.689 168.95V272.45H274.639C309.289 272.45 327.739 258.2 327.739 220.7C327.739 182.75 309.289 168.95 274.639 168.95H215.689Z" fill="black"/>
<path d="M345.914 168.95V272.45H436.664V254.9H368.714V228.05H421.664V211.1H368.714V186.5H436.064V168.95H345.914Z" fill="black"/>
</svg>
