<svg width="1415" height="670" viewBox="0 0 1415 670" fill="none" xmlns="http://www.w3.org/2000/svg">
<path d="M35.71 93.34L53.13 53.17L70.55 93.34H35.71ZM40.65 40.3L1.26 130H19.72L29.34 107.77H76.92L86.54 130H106.95L67.69 40.3H40.65Z" fill="black"/>
<path d="M35.71 504.34L53.13 464.17L70.55 504.34H35.71ZM40.65 451.3L1.26 541H19.72L29.34 518.77H76.92L86.54 541H106.95L67.69 451.3H40.65Z" fill="black"/>
<path d="M34.71 402.34L52.13 362.17L69.55 402.34H34.71ZM39.65 349.3L0.26 439H18.72L28.34 416.77H75.92L85.54 439H105.95L66.69 349.3H39.65Z" fill="black"/>
<path d="M321.71 93.34L339.13 53.17L356.55 93.34H321.71ZM326.65 40.3L287.26 130H305.72L315.34 107.77H362.92L372.54 130H392.95L353.69 40.3H326.65Z" fill="black"/>
<path d="M321.71 504.34L339.13 464.17L356.55 504.34H321.71ZM326.65 451.3L287.26 541H305.72L315.34 518.77H362.92L372.54 541H392.95L353.69 451.3H326.65Z" fill="black"/>
<path d="M322.71 402.34L340.13 362.17L357.55 402.34H322.71ZM327.65 349.3L288.26 439H306.72L316.34 416.77H363.92L373.54 439H393.95L354.69 349.3H327.65Z" fill="black"/>
<path d="M607.71 93.34L625.13 53.17L642.55 93.34H607.71ZM612.65 40.3L573.26 130H591.72L601.34 107.77H648.92L658.54 130H678.95L639.69 40.3H612.65Z" fill="black"/>
<path d="M607.71 504.34L625.13 464.17L642.55 504.34H607.71ZM612.65 451.3L573.26 541H591.72L601.34 518.77H648.92L658.54 541H678.95L639.69 451.3H612.65Z" fill="black"/>
<path d="M605.71 402.34L623.13 362.17L640.55 402.34H605.71ZM610.65 349.3L571.26 439H589.72L599.34 416.77H646.92L656.54 439H676.95L637.69 349.3H610.65Z" fill="black"/>
<path d="M890.71 93.34L908.13 53.17L925.55 93.34H890.71ZM895.65 40.3L856.26 130H874.72L884.34 107.77H931.92L941.54 130H961.95L922.69 40.3H895.65Z" fill="black"/>
<path d="M890.71 504.34L908.13 464.17L925.55 504.34H890.71ZM895.65 451.3L856.26 541H874.72L884.34 518.77H931.92L941.54 541H961.95L922.69 451.3H895.65Z" fill="black"/>
<path d="M891.71 402.34L909.13 362.17L926.55 402.34H891.71ZM896.65 349.3L857.26 439H875.72L885.34 416.77H932.92L942.54 439H962.95L923.69 349.3H896.65Z" fill="black"/>
<path d="M1175.71 93.34L1193.13 53.17L1210.55 93.34H1175.71ZM1180.65 40.3L1141.26 130H1159.72L1169.34 107.77H1216.92L1226.54 130H1246.95L1207.69 40.3H1180.65Z" fill="black"/>
<path d="M1175.71 504.34L1193.13 464.17L1210.55 504.34H1175.71ZM1180.65 451.3L1141.26 541H1159.72L1169.34 518.77H1216.92L1226.54 541H1246.95L1207.69 451.3H1180.65Z" fill="black"/>
<path d="M1176.71 402.34L1194.13 362.17L1211.55 402.34H1176.71ZM1181.65 349.3L1142.26 439H1160.72L1170.34 416.77H1217.92L1227.54 439H1247.95L1208.69 349.3H1181.65Z" fill="black"/>
<path d="M108.71 193.34L126.13 153.17L143.55 193.34H108.71ZM113.65 140.3L74.26 230H92.72L102.34 207.77H149.92L159.54 230H179.95L140.69 140.3H113.65Z" fill="black"/>
<path d="M108.71 608.34L126.13 568.17L143.55 608.34H108.71ZM113.65 555.3L74.26 645H92.72L102.34 622.77H149.92L159.54 645H179.95L140.69 555.3H113.65Z" fill="black"/>
<path d="M394.71 193.34L412.13 153.17L429.55 193.34H394.71ZM399.65 140.3L360.26 230H378.72L388.34 207.77H435.92L445.54 230H465.95L426.69 140.3H399.65Z" fill="black"/>
<path d="M394.71 608.34L412.13 568.17L429.55 608.34H394.71ZM399.65 555.3L360.26 645H378.72L388.34 622.77H435.92L445.54 645H465.95L426.69 555.3H399.65Z" fill="black"/>
<path d="M532.71 193.34L550.13 153.17L567.55 193.34H532.71ZM537.65 140.3L498.26 230H516.72L526.34 207.77H573.92L583.54 230H603.95L564.69 140.3H537.65Z" fill="black"/>
<path d="M532.71 608.34L550.13 568.17L567.55 608.34H532.71ZM537.65 555.3L498.26 645H516.72L526.34 622.77H573.92L583.54 645H603.95L564.69 555.3H537.65Z" fill="black"/>
<path d="M814.71 193.34L832.13 153.17L849.55 193.34H814.71ZM819.65 140.3L780.26 230H798.72L808.34 207.77H855.92L865.54 230H885.95L846.69 140.3H819.65Z" fill="black"/>
<path d="M814.71 608.34L832.13 568.17L849.55 608.34H814.71ZM819.65 555.3L780.26 645H798.72L808.34 622.77H855.92L865.54 645H885.95L846.69 555.3H819.65Z" fill="black"/>
<path d="M1243.71 193.34L1261.13 153.17L1278.55 193.34H1243.71ZM1248.65 140.3L1209.26 230H1227.72L1237.34 207.77H1284.92L1294.54 230H1314.95L1275.69 140.3H1248.65Z" fill="black"/>
<path d="M1243.71 608.34L1261.13 568.17L1278.55 608.34H1243.71ZM1248.65 555.3L1209.26 645H1227.72L1237.34 622.77H1284.92L1294.54 645H1314.95L1275.69 555.3H1248.65Z" fill="black"/>
<path d="M35.71 289.34L53.13 249.17L70.55 289.34H35.71ZM40.65 236.3L1.26 326H19.72L29.34 303.77H76.92L86.54 326H106.95L67.69 236.3H40.65Z" fill="black"/>
<path d="M250.71 193.34L268.13 153.17L285.55 193.34H250.71ZM255.65 140.3L216.26 230H234.72L244.34 207.77H291.92L301.54 230H321.95L282.69 140.3H255.65Z" fill="black"/>
<path d="M250.71 608.34L268.13 568.17L285.55 608.34H250.71ZM255.65 555.3L216.26 645H234.72L244.34 622.77H291.92L301.54 645H321.95L282.69 555.3H255.65Z" fill="black"/>
<path d="M674.71 193.34L692.13 153.17L709.55 193.34H674.71ZM679.65 140.3L640.26 230H658.72L668.34 207.77H715.92L725.54 230H745.95L706.69 140.3H679.65Z" fill="black"/>
<path d="M674.71 608.34L692.13 568.17L709.55 608.34H674.71ZM679.65 555.3L640.26 645H658.72L668.34 622.77H715.92L725.54 645H745.95L706.69 555.3H679.65Z" fill="black"/>
<path d="M957.71 193.34L975.13 153.17L992.55 193.34H957.71ZM962.65 140.3L923.26 230H941.72L951.34 207.77H998.92L1008.54 230H1028.95L989.69 140.3H962.65Z" fill="black"/>
<path d="M957.71 608.34L975.13 568.17L992.55 608.34H957.71ZM962.65 555.3L923.26 645H941.72L951.34 622.77H998.92L1008.54 645H1028.95L989.69 555.3H962.65Z" fill="black"/>
<path d="M747.71 294.34L765.13 254.17L782.55 294.34H747.71ZM752.65 241.3L713.26 331H731.72L741.34 308.77H788.92L798.54 331H818.95L779.69 241.3H752.65Z" fill="black"/>
<path d="M183.71 294.34L201.13 254.17L218.55 294.34H183.71ZM188.65 241.3L149.26 331H167.72L177.34 308.77H224.92L234.54 331H254.95L215.69 241.3H188.65Z" fill="black"/>
<path d="M463.71 294.34L481.13 254.17L498.55 294.34H463.71ZM468.65 241.3L429.26 331H447.72L457.34 308.77H504.92L514.54 331H534.95L495.69 241.3H468.65Z" fill="black"/>
<path d="M1100.71 193.34L1118.13 153.17L1135.55 193.34H1100.71ZM1105.65 140.3L1066.26 230H1084.72L1094.34 207.77H1141.92L1151.54 230H1171.95L1132.69 140.3H1105.65Z" fill="black"/>
<path d="M1100.71 608.34L1118.13 568.17L1135.55 608.34H1100.71ZM1105.65 555.3L1066.26 645H1084.72L1094.34 622.77H1141.92L1151.54 645H1171.95L1132.69 555.3H1105.65Z" fill="black"/>
<path d="M1172.71 294.34L1190.13 254.17L1207.55 294.34H1172.71ZM1177.65 241.3L1138.26 331H1156.72L1166.34 308.77H1213.92L1223.54 331H1243.95L1204.69 241.3H1177.65Z" fill="black"/>
<path d="M1317.71 295.34L1335.13 255.17L1352.55 295.34H1317.71ZM1322.65 242.3L1283.26 332H1301.72L1311.34 309.77H1358.92L1368.54 332H1388.95L1349.69 242.3H1322.65Z" fill="black"/>
<path d="M177.71 93.34L195.13 53.17L212.55 93.34H177.71ZM182.65 40.3L143.26 130H161.72L171.34 107.77H218.92L228.54 130H248.95L209.69 40.3H182.65Z" fill="black"/>
<path d="M177.71 504.34L195.13 464.17L212.55 504.34H177.71ZM182.65 451.3L143.26 541H161.72L171.34 518.77H218.92L228.54 541H248.95L209.69 451.3H182.65Z" fill="black"/>
<path d="M177.71 402.34L195.13 362.17L212.55 402.34H177.71ZM182.65 349.3L143.26 439H161.72L171.34 416.77H218.92L228.54 439H248.95L209.69 349.3H182.65Z" fill="black"/>
<path d="M466.71 93.34L484.13 53.17L501.55 93.34H466.71ZM471.65 40.3L432.26 130H450.72L460.34 107.77H507.92L517.54 130H537.95L498.69 40.3H471.65Z" fill="black"/>
<path d="M466.71 504.34L484.13 464.17L501.55 504.34H466.71ZM471.65 451.3L432.26 541H450.72L460.34 518.77H507.92L517.54 541H537.95L498.69 451.3H471.65Z" fill="black"/>
<path d="M467.71 402.34L485.13 362.17L502.55 402.34H467.71ZM472.65 349.3L433.26 439H451.72L461.34 416.77H508.92L518.54 439H538.95L499.69 349.3H472.65Z" fill="black"/>
<path d="M749.71 93.34L767.13 53.17L784.55 93.34H749.71ZM754.65 40.3L715.26 130H733.72L743.34 107.77H790.92L800.54 130H820.95L781.69 40.3H754.65Z" fill="black"/>
<path d="M749.71 504.34L767.13 464.17L784.55 504.34H749.71ZM754.65 451.3L715.26 541H733.72L743.34 518.77H790.92L800.54 541H820.95L781.69 451.3H754.65Z" fill="black"/>
<path d="M750.71 402.34L768.13 362.17L785.55 402.34H750.71ZM755.65 349.3L716.26 439H734.72L744.34 416.77H791.92L801.54 439H821.95L782.69 349.3H755.65Z" fill="black"/>
<path d="M1035.71 93.34L1053.13 53.17L1070.55 93.34H1035.71ZM1040.65 40.3L1001.26 130H1019.72L1029.34 107.77H1076.92L1086.54 130H1106.95L1067.69 40.3H1040.65Z" fill="black"/>
<path d="M1035.71 504.34L1053.13 464.17L1070.55 504.34H1035.71ZM1040.65 451.3L1001.26 541H1019.72L1029.34 518.77H1076.92L1086.54 541H1106.95L1067.69 451.3H1040.65Z" fill="black"/>
<path d="M1035.71 402.34L1053.13 362.17L1070.55 402.34H1035.71ZM1040.65 349.3L1001.26 439H1019.72L1029.34 416.77H1076.92L1086.54 439H1106.95L1067.69 349.3H1040.65Z" fill="black"/>
<path d="M1319.71 93.34L1337.13 53.17L1354.55 93.34H1319.71ZM1324.65 40.3L1285.26 130H1303.72L1313.34 107.77H1360.92L1370.54 130H1390.95L1351.69 40.3H1324.65Z" fill="black"/>
<path d="M1319.71 504.34L1337.13 464.17L1354.55 504.34H1319.71ZM1324.65 451.3L1285.26 541H1303.72L1313.34 518.77H1360.92L1370.54 541H1390.95L1351.69 451.3H1324.65Z" fill="black"/>
<path d="M1320.71 402.34L1338.13 362.17L1355.55 402.34H1320.71ZM1325.65 349.3L1286.26 439H1304.72L1314.34 416.77H1361.92L1371.54 439H1391.95L1352.69 349.3H1325.65Z" fill="black"/>
</svg>
