<svg width="1354" height="403" viewBox="0 0 1354 403" fill="none" xmlns="http://www.w3.org/2000/svg">
<g clip-path="url(#clip0_2:585)">
<rect width="1354" height="403" fill="white"/>
<rect x="-45" y="96.7852" width="1634.97" height="202" transform="rotate(-4.79909 -45 96.7852)" fill="white"/>
<path d="M69.9732 242.678L99.6767 240.184L91.364 141.172L71.2747 142.859L77.7923 220.49L18.612 147.28L-11.235 149.786L-2.92235 248.798L17.167 247.111L10.6253 169.193L69.9732 242.678ZM210.179 185.965C211.998 207.633 200.033 216.585 175.209 218.669C150.24 220.766 136.95 213.934 135.131 192.266L134.276 182.078C132.505 160.984 144.458 151.888 169.426 149.792C194.25 147.708 207.553 154.683 209.324 175.777L210.179 185.965ZM112.731 188.8C115.959 227.256 137.886 238.855 176.63 235.602C215.23 232.361 234.917 217.269 231.688 178.812C228.508 140.93 206.604 129.619 168.004 132.859C129.261 136.112 109.55 150.917 112.731 188.8ZM244.926 128.28L253.239 227.291L275.05 225.46L271.99 189.012L305.281 186.217L330.583 220.798L354.69 218.774L327.928 182.293C340.792 177.167 346.837 166.544 345.536 151.046C343.861 131.101 330.736 121.075 308.351 122.955L244.926 128.28ZM323.738 154.755C324.4 162.647 320.41 168.474 309.217 169.413L270.617 172.654L268.099 142.664L306.699 139.423C318.035 138.471 322.786 143.419 323.46 151.455L323.738 154.755ZM472.581 208.876L494.249 207.057L485.936 108.045L452.933 110.816L429.142 180.298L393.956 115.768L361.096 118.527L369.408 217.538L389.067 215.888L382.152 133.522L418.356 199.845L441.028 197.942L465.666 126.51L472.581 208.876ZM540.277 162.442L555.783 116.488L578.734 159.213L540.277 162.442ZM540.814 103.438L505.648 206.1L526.024 204.389L534.583 178.96L587.102 174.551L599.781 198.197L622.31 196.306L570.661 100.932L540.814 103.438ZM625.245 96.3496L633.557 195.361L717.071 188.35L715.59 170.7L653.887 175.88L647.056 94.5184L625.245 96.3496ZM721.936 88.2318L730.248 187.243L752.06 185.412L743.747 86.4006L721.936 88.2318ZM827.45 161.308L794.159 164.103L788.81 100.392L822.101 97.5966C841.616 95.9582 852.861 102.528 854.499 122.044L855.258 131.084C856.945 151.173 846.965 159.67 827.45 161.308ZM765.517 84.5729L773.829 183.585L830.223 178.85C863.37 176.067 879.876 160.953 876.864 125.079C873.816 88.7751 855.058 77.0553 821.91 79.8383L765.517 84.5729ZM918.914 130.653L934.419 84.6986L957.37 127.424L918.914 130.653ZM919.451 71.6491L884.285 174.311L904.661 172.6L913.22 147.171L965.739 142.762L978.418 166.408L1000.95 164.517L949.298 69.1432L919.451 71.6491ZM1065.81 141.296L1032.52 144.091L1027.17 80.3794L1060.47 77.5844C1079.98 75.9459 1091.23 82.5162 1092.86 102.032L1093.62 111.072C1095.31 131.161 1085.33 139.658 1065.81 141.296ZM1003.88 64.5606L1012.19 163.572L1068.59 158.838C1101.73 156.055 1118.24 140.941 1115.23 105.067C1112.18 68.7628 1093.42 57.0431 1060.27 59.826L1003.88 64.5606ZM1282.39 41.1784L1269.38 122.038L1241.2 44.6359L1214.66 46.8647L1199.06 127.941L1173.33 50.3343L1151.52 52.1655L1183.94 149.153L1212.49 146.756L1228.24 65.8106L1256.4 143.069L1284.67 140.696L1301.33 39.5881L1282.39 41.1784ZM1314.27 38.5012L1322.59 137.513L1344.4 135.682L1336.08 36.67L1314.27 38.5012ZM1419.79 111.578L1386.5 114.373L1381.15 50.661L1414.44 47.866C1433.95 46.2276 1445.2 52.7978 1446.84 72.3132L1447.6 81.3534C1449.28 101.443 1439.3 109.939 1419.79 111.578ZM1357.85 34.8423L1366.17 133.854L1422.56 129.119C1455.71 126.336 1472.21 111.223 1469.2 75.3488C1466.15 39.0445 1447.4 27.3248 1414.25 30.1077L1357.85 34.8423ZM1482.43 24.3832L1490.74 123.395L1577.56 116.106L1576.15 99.3173L1511.15 104.775L1508.99 79.0891L1559.64 74.8364L1558.28 58.6215L1507.63 62.8742L1505.65 39.341L1570.08 33.9317L1568.67 17.1428L1482.43 24.3832Z" fill="black"/>
<rect x="158" y="225.785" width="1634.97" height="202" transform="rotate(-4.79909 158 225.785)" fill="white"/>
<path d="M272.973 371.678L302.677 369.184L294.364 270.172L274.275 271.859L280.792 349.49L221.612 276.28L191.765 278.786L200.078 377.798L220.167 376.111L213.625 298.193L272.973 371.678ZM413.179 314.965C414.998 336.633 403.033 345.585 378.209 347.669C353.24 349.766 339.95 342.934 338.131 321.266L337.276 311.078C335.505 289.984 347.458 280.888 372.426 278.792C397.25 276.708 410.553 283.683 412.324 304.777L413.179 314.965ZM315.731 317.8C318.959 356.256 340.886 367.855 379.63 364.602C418.23 361.361 437.917 346.269 434.688 307.812C431.508 269.93 409.604 258.619 371.004 261.859C332.261 265.112 312.55 279.917 315.731 317.8ZM447.926 257.28L456.239 356.291L478.05 354.46L474.99 318.012L508.281 315.217L533.583 349.798L557.69 347.774L530.928 311.293C543.792 306.167 549.837 295.544 548.536 280.046C546.861 260.101 533.736 250.075 511.351 251.955L447.926 257.28ZM526.738 283.755C527.4 291.647 523.41 297.474 512.217 298.413L473.617 301.654L471.099 271.664L509.699 268.423C521.035 267.471 525.786 272.419 526.46 280.455L526.738 283.755ZM675.581 337.876L697.249 336.057L688.936 237.045L655.933 239.816L632.142 309.298L596.956 244.768L564.096 247.527L572.408 346.538L592.067 344.888L585.152 262.522L621.356 328.845L644.028 326.942L668.666 255.51L675.581 337.876ZM743.277 291.442L758.783 245.488L781.734 288.213L743.277 291.442ZM743.814 232.438L708.648 335.1L729.024 333.389L737.583 307.96L790.102 303.551L802.781 327.197L825.31 325.306L773.661 229.932L743.814 232.438ZM828.245 225.35L836.557 324.361L920.071 317.35L918.59 299.7L856.887 304.88L850.056 223.518L828.245 225.35ZM924.936 217.232L933.248 316.243L955.06 314.412L946.747 215.401L924.936 217.232ZM1030.45 290.308L997.159 293.103L991.81 229.392L1025.1 226.597C1044.62 224.958 1055.86 231.528 1057.5 251.044L1058.26 260.084C1059.95 280.173 1049.96 288.67 1030.45 290.308ZM968.517 213.573L976.829 312.585L1033.22 307.85C1066.37 305.067 1082.88 289.953 1079.86 254.079C1076.82 217.775 1058.06 206.055 1024.91 208.838L968.517 213.573ZM1121.91 259.653L1137.42 213.699L1160.37 256.424L1121.91 259.653ZM1122.45 200.649L1087.28 303.311L1107.66 301.6L1116.22 276.171L1168.74 271.762L1181.42 295.408L1203.95 293.517L1152.3 198.143L1122.45 200.649ZM1268.81 270.296L1235.52 273.091L1230.17 209.379L1263.47 206.584C1282.98 204.946 1294.23 211.516 1295.86 231.032L1296.62 240.072C1298.31 260.161 1288.33 268.658 1268.81 270.296ZM1206.88 193.561L1215.19 292.572L1271.59 287.838C1304.73 285.055 1321.24 269.941 1318.23 234.067C1315.18 197.763 1296.42 186.043 1263.27 188.826L1206.88 193.561ZM1485.39 170.178L1472.38 251.038L1444.2 173.636L1417.66 175.865L1402.06 256.941L1376.33 179.334L1354.52 181.166L1386.94 278.153L1415.49 275.756L1431.24 194.811L1459.4 272.069L1487.67 269.696L1504.33 168.588L1485.39 170.178ZM1517.27 167.501L1525.59 266.513L1547.4 264.682L1539.08 165.67L1517.27 167.501ZM1622.79 240.578L1589.5 243.373L1584.15 179.661L1617.44 176.866C1636.95 175.228 1648.2 181.798 1649.84 201.313L1650.6 210.353C1652.28 230.443 1642.3 238.939 1622.79 240.578ZM1560.85 163.842L1569.17 262.854L1625.56 258.119C1658.71 255.336 1675.21 240.223 1672.2 204.349C1669.15 168.044 1650.4 156.325 1617.25 159.108L1560.85 163.842ZM1685.43 153.383L1693.74 252.395L1780.56 245.106L1779.15 228.317L1714.15 233.775L1711.99 208.089L1762.64 203.836L1761.28 187.621L1710.63 191.874L1708.65 168.341L1773.08 162.932L1771.67 146.143L1685.43 153.383Z" fill="black"/>
<rect x="177" y="219.785" width="1634.97" height="202" transform="rotate(-4.79909 177 219.785)" fill="white"/>
<path d="M291.973 365.678L321.677 363.184L313.364 264.172L293.275 265.859L299.792 343.49L240.612 270.28L210.765 272.786L219.078 371.798L239.167 370.111L232.625 292.193L291.973 365.678ZM432.179 308.965C433.998 330.633 422.033 339.585 397.209 341.669C372.24 343.766 358.95 336.934 357.131 315.266L356.276 305.078C354.505 283.984 366.458 274.888 391.426 272.792C416.25 270.708 429.553 277.683 431.324 298.777L432.179 308.965ZM334.731 311.8C337.959 350.256 359.886 361.855 398.63 358.602C437.23 355.361 456.917 340.269 453.688 301.812C450.508 263.93 428.604 252.619 390.004 255.859C351.261 259.112 331.55 273.917 334.731 311.8ZM466.926 251.28L475.239 350.291L497.05 348.46L493.99 312.012L527.281 309.217L552.583 343.798L576.69 341.774L549.928 305.293C562.792 300.167 568.837 289.544 567.536 274.046C565.861 254.101 552.736 244.075 530.351 245.955L466.926 251.28ZM545.738 277.755C546.4 285.647 542.41 291.474 531.217 292.413L492.617 295.654L490.099 265.664L528.699 262.423C540.035 261.471 544.786 266.419 545.46 274.455L545.738 277.755ZM694.581 331.876L716.249 330.057L707.936 231.045L674.933 233.816L651.142 303.298L615.956 238.768L583.096 241.527L591.408 340.538L611.067 338.888L604.152 256.522L640.356 322.845L663.028 320.942L687.666 249.51L694.581 331.876ZM762.277 285.442L777.783 239.488L800.734 282.213L762.277 285.442ZM762.814 226.438L727.648 329.1L748.024 327.389L756.583 301.96L809.102 297.551L821.781 321.197L844.31 319.306L792.661 223.932L762.814 226.438ZM847.245 219.35L855.557 318.361L939.071 311.35L937.59 293.7L875.887 298.88L869.056 217.518L847.245 219.35ZM943.936 211.232L952.248 310.243L974.06 308.412L965.747 209.401L943.936 211.232ZM1049.45 284.308L1016.16 287.103L1010.81 223.392L1044.1 220.597C1063.62 218.958 1074.86 225.528 1076.5 245.044L1077.26 254.084C1078.95 274.173 1068.96 282.67 1049.45 284.308ZM987.517 207.573L995.829 306.585L1052.22 301.85C1085.37 299.067 1101.88 283.953 1098.86 248.079C1095.82 211.775 1077.06 200.055 1043.91 202.838L987.517 207.573ZM1140.91 253.653L1156.42 207.699L1179.37 250.424L1140.91 253.653ZM1141.45 194.649L1106.28 297.311L1126.66 295.6L1135.22 270.171L1187.74 265.762L1200.42 289.408L1222.95 287.517L1171.3 192.143L1141.45 194.649ZM1287.81 264.296L1254.52 267.091L1249.17 203.379L1282.47 200.584C1301.98 198.946 1313.23 205.516 1314.86 225.032L1315.62 234.072C1317.31 254.161 1307.33 262.658 1287.81 264.296ZM1225.88 187.561L1234.19 286.572L1290.59 281.838C1323.73 279.055 1340.24 263.941 1337.23 228.067C1334.18 191.763 1315.42 180.043 1282.27 182.826L1225.88 187.561ZM1504.39 164.178L1491.38 245.038L1463.2 167.636L1436.66 169.865L1421.06 250.941L1395.33 173.334L1373.52 175.166L1405.94 272.153L1434.49 269.756L1450.24 188.811L1478.4 266.069L1506.67 263.696L1523.33 162.588L1504.39 164.178ZM1536.27 161.501L1544.59 260.513L1566.4 258.682L1558.08 159.67L1536.27 161.501ZM1641.79 234.578L1608.5 237.373L1603.15 173.661L1636.44 170.866C1655.95 169.228 1667.2 175.798 1668.84 195.313L1669.6 204.353C1671.28 224.443 1661.3 232.939 1641.79 234.578ZM1579.85 157.842L1588.17 256.854L1644.56 252.119C1677.71 249.336 1694.21 234.223 1691.2 198.349C1688.15 162.044 1669.4 150.325 1636.25 153.108L1579.85 157.842ZM1704.43 147.383L1712.74 246.395L1799.56 239.106L1798.15 222.317L1733.15 227.775L1730.99 202.089L1781.64 197.836L1780.28 181.621L1729.63 185.874L1727.65 162.341L1792.08 156.932L1790.67 140.143L1704.43 147.383Z" fill="black"/>
<rect x="-43" y="-0.214844" width="1634.97" height="202" transform="rotate(-4.79909 -43 -0.214844)" fill="white"/>
<path d="M71.9732 145.678L101.677 143.184L93.364 44.1723L73.2747 45.8589L79.7923 123.49L20.612 50.2803L-9.23501 52.7862L-0.922348 151.798L19.167 150.111L12.6253 72.1933L71.9732 145.678ZM212.179 88.965C213.998 110.633 202.033 119.585 177.209 121.669C152.24 123.766 138.95 116.934 137.131 95.2658L136.276 85.0776C134.505 63.9838 146.458 54.888 171.426 52.7917C196.25 50.7075 209.553 57.6831 211.324 78.7769L212.179 88.965ZM114.731 91.7997C117.959 130.256 139.886 141.855 178.63 138.602C217.23 135.361 236.917 120.269 233.688 81.8125C230.508 43.9297 208.604 32.6186 170.004 35.8593C131.261 39.1121 111.55 53.917 114.731 91.7997ZM246.926 31.2798L255.239 130.291L277.05 128.46L273.99 92.0125L307.281 89.2175L332.583 123.798L356.69 121.774L329.928 85.293C342.792 80.1668 348.837 69.5439 347.536 54.0464C345.861 34.1006 332.736 24.0755 310.351 25.9548L246.926 31.2798ZM325.738 57.7551C326.4 65.6473 322.41 71.4736 311.217 72.4133L272.617 75.654L270.099 45.6635L308.699 42.4228C320.035 41.4711 324.786 46.419 325.46 54.4547L325.738 57.7551ZM474.581 111.876L496.249 110.057L487.936 11.0454L454.933 13.8163L431.142 83.2983L395.956 18.7678L363.096 21.5266L371.408 120.538L391.067 118.888L384.152 36.5216L420.356 102.845L443.028 100.942L467.666 29.51L474.581 111.876ZM542.277 65.4419L557.783 19.4875L580.734 62.2132L542.277 65.4419ZM542.814 6.43807L507.648 109.1L528.024 107.389L536.583 81.9602L589.102 77.5509L601.781 101.197L624.31 99.3056L572.661 3.93222L542.814 6.43807ZM627.245 -0.650382L635.557 98.3613L719.071 91.3497L717.59 73.6998L655.887 78.8802L649.056 -2.48158L627.245 -0.650382ZM723.936 -8.76822L732.248 90.2435L754.06 88.4123L745.747 -10.5994L723.936 -8.76822ZM829.45 64.3085L796.159 67.1034L790.81 3.39159L824.101 0.596603C843.616 -1.04183 854.861 5.52841 856.499 25.0438L857.258 34.0839C858.945 54.1733 848.965 62.67 829.45 64.3085ZM767.517 -12.4271L775.829 86.5845L832.223 81.8499C865.37 79.067 881.876 63.9531 878.864 28.0793C875.816 -8.22493 857.058 -19.9447 823.91 -17.1617L767.517 -12.4271ZM920.914 33.6529L936.419 -12.3014L959.37 30.4242L920.914 33.6529ZM921.451 -25.3509L886.285 77.3111L906.661 75.6004L915.22 50.1712L967.739 45.7619L980.418 69.408L1002.95 67.5166L951.298 -27.8568L921.451 -25.3509ZM1067.81 44.2962L1034.52 47.0912L1029.17 -16.6206L1062.47 -19.4156C1081.98 -21.0541 1093.23 -14.4838 1094.86 5.03153L1095.62 14.0717C1097.31 34.161 1087.33 42.6578 1067.81 44.2962ZM1005.88 -32.4394L1014.19 66.5723L1070.59 61.8377C1103.73 59.0548 1120.24 43.9409 1117.23 8.06711C1114.18 -28.2372 1095.42 -39.9569 1062.27 -37.174L1005.88 -32.4394ZM1284.39 -55.8216L1271.38 25.0382L1243.2 -52.3641L1216.66 -50.1353L1201.06 30.9414L1175.33 -46.6657L1153.52 -44.8345L1185.94 52.1532L1214.49 49.7558L1230.24 -31.1894L1258.4 46.0693L1286.67 43.696L1303.33 -57.4119L1284.39 -55.8216ZM1316.27 -58.4988L1324.59 40.5129L1346.4 38.6817L1338.08 -60.33L1316.27 -58.4988ZM1421.79 14.5779L1388.5 17.3729L1383.15 -46.339L1416.44 -49.134C1435.95 -50.7724 1447.2 -44.2022 1448.84 -24.6868L1449.6 -15.6466C1451.28 4.4427 1441.3 12.9395 1421.79 14.5779ZM1359.85 -62.1577L1368.17 36.854L1424.56 32.1194C1457.71 29.3364 1474.21 14.2226 1471.2 -21.6512C1468.15 -57.9555 1449.4 -69.6752 1416.25 -66.8923L1359.85 -62.1577ZM1484.43 -72.6168L1492.74 26.3949L1579.56 19.1063L1578.15 2.31733L1513.15 7.77478L1510.99 -17.9109L1561.64 -22.1636L1560.28 -38.3785L1509.63 -34.1258L1507.65 -57.659L1572.08 -63.0683L1570.67 -79.8572L1484.43 -72.6168Z" fill="black"/>
<rect x="-101" y="154.785" width="1634.97" height="202" transform="rotate(-4.79909 -101 154.785)" fill="white"/>
<path d="M13.9732 300.678L43.6767 298.184L35.364 199.172L15.2747 200.859L21.7923 278.49L-37.388 205.28L-67.235 207.786L-58.9223 306.798L-38.833 305.111L-45.3747 227.193L13.9732 300.678ZM154.179 243.965C155.998 265.633 144.033 274.585 119.209 276.669C94.2404 278.766 80.9502 271.934 79.1311 250.266L78.2757 240.078C76.5047 218.984 88.4577 209.888 113.426 207.792C138.25 205.708 151.553 212.683 153.324 233.777L154.179 243.965ZM56.7306 246.8C59.9592 285.256 81.8864 296.855 120.63 293.602C159.23 290.361 178.917 275.269 175.688 236.812C172.508 198.93 150.604 187.619 112.004 190.859C73.2606 194.112 53.5501 208.917 56.7306 246.8ZM188.926 186.28L197.239 285.291L219.05 283.46L215.99 247.012L249.281 244.217L274.583 278.798L298.69 276.774L271.928 240.293C284.792 235.167 290.837 224.544 289.536 209.046C287.861 189.101 274.736 179.075 252.351 180.955L188.926 186.28ZM267.738 212.755C268.4 220.647 264.41 226.474 253.217 227.413L214.617 230.654L212.099 200.664L250.699 197.423C262.035 196.471 266.786 201.419 267.46 209.455L267.738 212.755ZM416.581 266.876L438.249 265.057L429.937 166.045L396.933 168.816L373.142 238.298L337.956 173.768L305.096 176.527L313.408 275.538L333.067 273.888L326.152 191.522L362.356 257.845L385.028 255.942L409.666 184.51L416.581 266.876ZM484.277 220.442L499.783 174.488L522.734 217.213L484.277 220.442ZM484.814 161.438L449.648 264.1L470.024 262.389L478.583 236.96L531.102 232.551L543.781 256.197L566.31 254.306L514.661 158.932L484.814 161.438ZM569.245 154.35L577.557 253.361L661.071 246.35L659.59 228.7L597.887 233.88L591.056 152.518L569.245 154.35ZM665.936 146.232L674.248 245.243L696.06 243.412L687.747 144.401L665.936 146.232ZM771.45 219.308L738.159 222.103L732.81 158.392L766.101 155.597C785.616 153.958 796.861 160.528 798.499 180.044L799.258 189.084C800.945 209.173 790.965 217.67 771.45 219.308ZM709.517 142.573L717.829 241.585L774.223 236.85C807.37 234.067 823.876 218.953 820.864 183.079C817.816 146.775 799.058 135.055 765.91 137.838L709.517 142.573ZM862.914 188.653L878.419 142.699L901.37 185.424L862.914 188.653ZM863.451 129.649L828.285 232.311L848.661 230.6L857.22 205.171L909.739 200.762L922.418 224.408L944.946 222.517L893.298 127.143L863.451 129.649ZM1009.81 199.296L976.523 202.091L971.174 138.379L1004.47 135.584C1023.98 133.946 1035.23 140.516 1036.86 160.032L1037.62 169.072C1039.31 189.161 1029.33 197.658 1009.81 199.296ZM947.881 122.561L956.194 221.572L1012.59 216.838C1045.73 214.055 1062.24 198.941 1059.23 163.067C1056.18 126.763 1037.42 115.043 1004.27 117.826L947.881 122.561ZM1226.39 99.1784L1213.38 180.038L1185.2 102.636L1158.66 104.865L1143.06 185.941L1117.33 108.334L1095.52 110.166L1127.94 207.153L1156.49 204.756L1172.24 123.811L1200.4 201.069L1228.67 198.696L1245.33 97.5881L1226.39 99.1784ZM1258.27 96.5012L1266.59 195.513L1288.4 193.682L1280.08 94.67L1258.27 96.5012ZM1363.79 169.578L1330.5 172.373L1325.15 108.661L1358.44 105.866C1377.95 104.228 1389.2 110.798 1390.84 130.313L1391.6 139.353C1393.28 159.443 1383.3 167.939 1363.79 169.578ZM1301.85 92.8423L1310.17 191.854L1366.56 187.119C1399.71 184.336 1416.21 169.223 1413.2 133.349C1410.15 97.0445 1391.4 85.3248 1358.25 88.1077L1301.85 92.8423ZM1426.43 82.3832L1434.74 181.395L1521.56 174.106L1520.15 157.317L1455.15 162.775L1452.99 137.089L1503.64 132.836L1502.28 116.621L1451.63 120.874L1449.65 97.341L1514.08 91.9317L1512.67 75.1428L1426.43 82.3832Z" fill="black"/>
<rect x="-41.0459" y="-207" width="1634.97" height="202" transform="rotate(13.4411 -41.0459 -207)" fill="white"/>
<path d="M22.4858 -32.4515L51.4773 -25.5228L74.5731 -122.161L54.9652 -126.847L36.8569 -51.0772L3.56477 -139.132L-25.5668 -146.094L-48.6626 -49.4553L-29.0547 -44.7692L-10.8794 -120.819L22.4858 -32.4515ZM173.398 -42.4301C168.344 -21.2816 154.178 -16.5241 129.948 -22.3148C105.578 -28.1389 95.0944 -38.7875 100.149 -59.936L102.525 -69.8799C107.446 -90.4681 121.645 -95.3657 146.015 -89.5416C170.244 -83.7509 180.695 -72.9622 175.774 -52.374L173.398 -42.4301ZM79.9586 -70.2392C70.9881 -32.7043 88.1832 -14.8257 125.998 -5.7882C163.673 3.21578 187.094 -4.95596 196.065 -42.4909C204.901 -79.4656 187.639 -97.0642 149.964 -106.068C112.149 -115.106 88.7952 -107.214 79.9586 -70.2392ZM224.455 -86.3409L201.359 10.2976L222.647 15.3853L231.149 -20.1888L263.642 -12.4233L276.849 28.339L300.378 33.9623L286.38 -9.06204C300.202 -9.90417 309.268 -18.1014 312.883 -33.2274C317.535 -52.6952 308.208 -66.3246 286.359 -71.5463L224.455 -86.3409ZM291.019 -36.5279C289.178 -28.8249 283.564 -24.5404 272.64 -27.1512L234.965 -36.1552L241.961 -65.4269L279.636 -56.4229C290.7 -53.7786 293.663 -47.5924 291.789 -39.7492L291.019 -36.5279ZM415.444 61.462L436.592 66.5163L459.688 -30.1222L427.475 -37.8208L383.132 20.7235L369.912 -51.5778L337.84 -59.2429L314.744 37.3956L333.932 41.9812L353.145 -38.4108L366.77 35.9121L388.899 41.2007L434.657 -18.93L415.444 61.462ZM494.272 38.5496L523.382 -0.242424L531.807 47.5201L494.272 38.5496ZM513.251 -17.3213L447.718 69.1752L467.606 73.9282L483.694 52.4556L534.954 64.7064L539.595 91.1329L561.583 96.388L542.382 -10.3591L513.251 -17.3213ZM595.657 2.37311L572.561 99.0116L654.074 118.492L658.191 101.265L597.967 86.8725L616.946 7.46087L595.657 2.37311ZM690.031 24.9275L666.935 121.566L688.223 126.654L711.319 30.0153L690.031 24.9275ZM767.37 127.358L734.877 119.593L749.739 57.408L782.231 65.1735C801.279 69.7257 809.903 79.4855 805.35 98.5331L803.242 107.357C798.556 126.964 786.417 131.91 767.37 127.358ZM732.567 35.0934L709.471 131.732L764.513 144.886C796.866 152.618 817.273 143.43 825.641 108.416C834.109 72.9821 819.962 55.9799 787.609 48.2479L732.567 35.0934ZM863.833 126.871L892.944 88.0794L901.368 135.842L863.833 126.871ZM882.812 71.0005L817.279 157.497L837.167 162.25L853.255 140.777L904.516 153.028L909.156 179.455L931.145 184.71L911.944 77.9627L882.812 71.0005ZM1000.02 182.96L967.528 175.194L982.39 113.01L1014.88 120.775C1033.93 125.327 1042.55 135.087 1038 154.135L1035.89 162.958C1031.21 182.566 1019.07 187.512 1000.02 182.96ZM965.218 90.6949L942.123 187.333L997.165 200.488C1029.52 208.22 1049.92 199.032 1058.29 164.018C1066.76 128.584 1052.61 111.581 1020.26 103.849L965.218 90.6949ZM1237.05 155.66L1199.38 228.385L1196.85 146.053L1170.94 139.861L1130.76 211.984L1130.61 130.221L1109.32 125.133L1109.75 227.395L1137.62 234.056L1177.91 162.107L1180.48 244.298L1208.07 250.892L1255.54 160.078L1237.05 155.66ZM1268.17 163.098L1245.08 259.736L1266.36 264.824L1289.46 168.186L1268.17 163.098ZM1345.51 265.529L1313.02 257.763L1327.88 195.578L1360.37 203.344C1379.42 207.896 1388.04 217.656 1383.49 236.703L1381.38 245.527C1376.7 265.135 1364.56 270.081 1345.51 265.529ZM1310.71 173.264L1287.61 269.902L1342.65 283.057C1375.01 290.789 1395.41 281.6 1403.78 246.587C1412.25 211.152 1398.1 194.15 1365.75 186.418L1310.71 173.264ZM1432.3 202.323L1409.2 298.961L1493.94 319.212L1497.85 302.825L1434.41 287.663L1440.4 262.593L1489.84 274.408L1493.62 258.582L1444.18 246.766L1449.67 223.797L1512.56 238.826L1516.47 222.44L1432.3 202.323Z" fill="black"/>
<rect x="-46.1855" y="190.029" width="1634.97" height="202" transform="rotate(5.62925 -46.1855 190.029)" fill="white"/>
<path d="M70.5758 319.732L100.245 322.602L109.811 223.703L89.7449 221.763L82.2446 299.305L37.1424 216.675L7.32952 213.791L-2.23642 312.689L17.8299 314.63L25.3579 236.802L70.5758 319.732ZM218.675 289.064C216.582 310.707 203.206 317.37 178.41 314.972C153.47 312.56 141.62 303.456 143.713 281.813L144.697 271.637C146.735 250.567 160.125 243.761 185.065 246.173C209.861 248.571 221.698 257.818 219.66 278.888L218.675 289.064ZM122.296 274.389C118.581 312.802 138.075 328.142 176.774 331.885C215.33 335.614 237.402 324.295 241.118 285.882C244.778 248.043 225.257 232.989 186.7 229.26C148.001 225.517 125.956 236.55 122.296 274.389ZM263.198 238.54L253.632 337.438L275.418 339.546L278.94 303.139L312.192 306.356L330.887 344.911L354.967 347.24L335.176 306.553C348.751 303.816 356.601 294.448 358.098 278.968C360.026 259.045 348.91 246.83 326.55 244.668L263.198 238.54ZM335.989 278.71C335.226 286.594 330.256 291.61 319.076 290.529L280.52 286.8L283.418 256.843L321.974 260.573C333.297 261.668 337.084 267.387 336.307 275.414L335.989 278.71ZM472.724 358.63L494.367 360.723L503.932 261.825L470.966 258.636L435.109 322.73L412.057 252.938L379.234 249.763L369.669 348.662L389.305 350.561L397.263 268.289L420.994 340.027L443.641 342.218L480.681 276.358L472.724 358.63ZM547.645 325.079L571.135 282.647L586.057 328.795L547.645 325.079ZM558.748 267.127L505.752 361.825L526.105 363.793L539.083 340.309L591.542 345.384L599.778 370.919L622.281 373.096L588.561 270.01L558.748 267.127ZM643.081 275.284L633.515 374.182L716.934 382.251L718.639 364.621L657.007 358.66L664.868 277.391L643.081 275.284ZM739.662 284.626L730.096 383.524L751.882 385.631L761.448 286.733L739.662 284.626ZM830.371 375.429L797.119 372.212L803.274 308.573L836.527 311.79C856.02 313.675 865.905 322.154 864.02 341.647L863.147 350.677C861.206 370.743 849.864 377.314 830.371 375.429ZM783.193 288.836L773.627 387.735L829.956 393.183C863.066 396.386 882.012 384.474 885.478 348.642C888.986 312.379 872.632 297.487 839.522 294.285L783.193 288.836ZM925.848 361.661L949.339 319.229L964.261 365.376L925.848 361.661ZM936.951 303.709L883.956 398.406L904.309 400.375L917.286 376.891L969.745 381.965L977.981 407.501L1000.48 409.677L966.764 306.592L936.951 303.709ZM1068.46 398.458L1035.21 395.242L1041.37 331.603L1074.62 334.819C1094.11 336.704 1104 345.184 1102.11 364.677L1101.24 373.707C1099.3 393.773 1087.96 400.343 1068.46 398.458ZM1021.28 311.866L1011.72 410.764L1068.05 416.213C1101.16 419.415 1120.1 407.504 1123.57 371.671C1127.08 335.408 1110.72 320.517 1077.61 317.314L1021.28 311.866ZM1299.47 338.773L1272.18 415.993L1258.34 334.794L1231.82 332.23L1201.95 409.199L1190.54 328.237L1168.75 326.13L1183.27 427.357L1211.79 430.116L1241.79 353.303L1255.65 434.358L1283.89 437.089L1318.39 340.603L1299.47 338.773ZM1331.32 341.854L1321.76 440.752L1343.54 442.86L1353.11 343.961L1331.32 341.854ZM1422.03 432.657L1388.78 429.441L1394.93 365.802L1428.19 369.018C1447.68 370.903 1457.57 379.382 1455.68 398.876L1454.81 407.905C1452.87 427.972 1441.52 434.542 1422.03 432.657ZM1374.85 346.065L1365.29 444.963L1421.62 450.411C1454.73 453.614 1473.67 441.703 1477.14 405.87C1480.65 369.607 1464.29 354.715 1431.18 351.513L1374.85 346.065ZM1499.29 358.1L1489.72 456.999L1576.44 465.386L1578.06 448.617L1513.13 442.336L1515.61 416.68L1566.21 421.574L1567.77 405.378L1517.18 400.484L1519.45 376.978L1583.81 383.202L1585.43 366.433L1499.29 358.1Z" fill="black"/>
<rect x="45.0008" y="317.206" width="1634.97" height="202" transform="rotate(-5.58679 45.0008 317.206)" fill="white"/>
<path d="M161.969 461.504L191.635 458.603L181.962 359.714L161.898 361.677L169.482 439.211L109.301 366.822L79.4912 369.738L89.1643 468.626L109.229 466.663L101.616 388.843L161.969 461.504ZM301.382 402.87C303.499 424.51 291.658 433.626 266.864 436.052C241.927 438.491 228.544 431.842 226.427 410.201L225.432 400.026C223.371 378.959 235.198 369.699 260.135 367.26C284.929 364.835 298.326 371.627 300.386 392.694L301.382 402.87ZM203.981 407.044C207.738 445.452 229.823 456.748 268.518 452.963C307.07 449.192 326.547 433.831 322.79 395.422C319.089 357.587 297.033 346.578 258.481 350.349C219.786 354.134 200.28 369.208 203.981 407.044ZM335.333 344.712L345.006 443.6L366.79 441.469L363.229 405.067L396.478 401.815L422.253 436.044L446.33 433.689L419.069 397.579C431.862 392.277 437.76 381.572 436.246 366.093C434.297 346.173 421.036 336.329 398.678 338.516L335.333 344.712ZM414.5 370.101C415.271 377.984 411.361 383.864 400.183 384.958L361.631 388.729L358.701 358.776L397.253 355.005C408.575 353.897 413.393 358.779 414.178 366.805L414.5 370.101ZM564.074 422.171L585.715 420.054L576.042 321.166L543.079 324.391L520.246 394.193L484.176 330.152L451.357 333.363L461.03 432.251L480.664 430.33L472.617 348.067L509.73 413.887L532.373 411.672L556.027 339.908L564.074 422.171ZM631.125 374.811L645.998 328.647L669.534 371.054L631.125 374.811ZM630.851 315.805L597.1 418.941L617.45 416.95L625.659 391.406L678.112 386.275L691.115 409.744L713.616 407.543L660.661 312.889L630.851 315.805ZM715.176 307.557L724.849 406.445L808.259 398.286L806.535 380.658L744.909 386.686L736.96 305.426L715.176 307.557ZM811.746 298.11L821.419 396.998L843.203 394.867L833.53 295.979L811.746 298.11ZM918.255 369.729L885.006 372.982L878.781 309.35L912.031 306.097C931.522 304.191 942.856 310.606 944.763 330.097L945.646 339.125C947.608 359.19 937.746 367.823 918.255 369.729ZM855.273 293.853L864.946 392.741L921.269 387.231C954.375 383.993 970.671 368.653 967.167 332.824C963.62 296.565 944.702 285.105 911.596 288.343L855.273 293.853ZM1009.29 337.819L1024.16 291.656L1047.7 334.062L1009.29 337.819ZM1009.02 278.814L975.263 381.95L995.614 379.959L1003.82 354.414L1056.28 349.283L1069.28 372.753L1091.78 370.552L1038.82 275.898L1009.02 278.814ZM1156.32 346.442L1123.07 349.695L1116.85 286.062L1150.1 282.81C1169.59 280.903 1180.92 287.318 1182.83 306.809L1183.71 315.838C1185.68 335.902 1175.81 344.536 1156.32 346.442ZM1093.34 270.565L1103.01 369.453L1159.34 363.944C1192.44 360.706 1208.74 345.366 1205.23 309.537C1201.69 273.278 1182.77 261.817 1149.66 265.056L1093.34 270.565ZM1371.5 243.356L1359.6 324.387L1330.37 247.38L1303.85 249.973L1289.38 331.257L1262.58 254.011L1240.79 256.142L1274.54 352.675L1303.06 349.885L1317.7 268.731L1346.92 345.595L1375.15 342.833L1390.41 241.506L1371.5 243.356ZM1403.34 240.241L1413.02 339.129L1434.8 336.998L1425.13 238.11L1403.34 240.241ZM1509.85 311.86L1476.6 315.113L1470.38 251.481L1503.63 248.228C1523.12 246.322 1534.45 252.737 1536.36 272.228L1537.24 281.256C1539.21 301.321 1529.34 309.954 1509.85 311.86ZM1446.87 235.984L1456.54 334.872L1512.87 329.362C1545.97 326.124 1562.27 310.784 1558.76 274.955C1555.22 238.696 1536.3 227.236 1503.19 230.474L1446.87 235.984ZM1571.29 223.813L1580.97 322.701L1667.67 314.219L1666.03 297.451L1601.11 303.802L1598.6 278.148L1649.19 273.2L1647.61 257.005L1597.02 261.954L1594.72 238.45L1659.07 232.155L1657.43 215.387L1571.29 223.813Z" fill="black"/>
</g>
<defs>
<clipPath id="clip0_2:585">
<rect width="1354" height="403" fill="white"/>
</clipPath>
</defs>
</svg>
