<svg width="1434" height="391" viewBox="0 0 1434 391" fill="none" xmlns="http://www.w3.org/2000/svg">
<g clip-path="url(#clip0_1:565)">
<rect width="1434" height="391" fill="white"/>
<rect x="-45" y="96.7852" width="1634.97" height="202" transform="rotate(-4.79909 -45 96.7852)" fill="white"/>
<path d="M69.9732 242.678L99.6767 240.184L91.364 141.172L71.2747 142.859L77.7923 220.49L18.612 147.28L-11.235 149.786L-2.92233 248.798L17.167 247.111L10.6253 169.193L69.9732 242.678ZM210.179 185.965C211.998 207.633 200.033 216.585 175.209 218.669C150.24 220.766 136.95 213.934 135.131 192.266L134.276 182.078C132.505 160.984 144.458 151.888 169.426 149.792C194.25 147.708 207.553 154.683 209.324 175.777L210.179 185.965ZM112.731 188.8C115.959 227.256 137.886 238.855 176.63 235.602C215.23 232.361 234.917 217.269 231.688 178.812C228.508 140.93 206.604 129.619 168.004 132.859C129.261 136.112 109.55 150.917 112.731 188.8ZM244.926 128.28L253.239 227.291L275.05 225.46L271.99 189.012L305.281 186.217L330.583 220.798L354.69 218.774L327.928 182.293C340.792 177.167 346.837 166.544 345.536 151.046C343.861 131.101 330.736 121.075 308.351 122.955L244.926 128.28ZM323.738 154.755C324.4 162.647 320.41 168.474 309.217 169.413L270.617 172.654L268.099 142.664L306.699 139.423C318.035 138.471 322.786 143.419 323.46 151.455L323.738 154.755ZM472.581 208.876L494.249 207.057L485.937 108.045L452.933 110.816L429.142 180.298L393.956 115.768L361.096 118.527L369.408 217.538L389.067 215.888L382.152 133.522L418.356 199.845L441.028 197.942L465.666 126.51L472.581 208.876ZM540.277 162.442L555.783 116.488L578.734 159.213L540.277 162.442ZM540.814 103.438L505.648 206.1L526.024 204.389L534.583 178.96L587.102 174.551L599.781 198.197L622.31 196.306L570.661 100.932L540.814 103.438ZM625.245 96.3496L633.557 195.361L717.071 188.35L715.59 170.7L653.887 175.88L647.056 94.5184L625.245 96.3496ZM721.936 88.2318L730.248 187.243L752.06 185.412L743.747 86.4006L721.936 88.2318ZM827.45 161.308L794.159 164.103L788.81 100.392L822.101 97.5966C841.616 95.9582 852.861 102.528 854.499 122.044L855.258 131.084C856.945 151.173 846.965 159.67 827.45 161.308ZM765.517 84.5729L773.829 183.585L830.223 178.85C863.37 176.067 879.876 160.953 876.864 125.079C873.816 88.7751 855.058 77.0553 821.91 79.8383L765.517 84.5729ZM918.914 130.653L934.419 84.6986L957.37 127.424L918.914 130.653ZM919.451 71.6491L884.285 174.311L904.661 172.6L913.22 147.171L965.739 142.762L978.418 166.408L1000.95 164.517L949.298 69.1432L919.451 71.6491ZM1065.81 141.296L1032.52 144.091L1027.17 80.3794L1060.47 77.5844C1079.98 75.9459 1091.23 82.5162 1092.86 102.032L1093.62 111.072C1095.31 131.161 1085.33 139.658 1065.81 141.296ZM1003.88 64.5606L1012.19 163.572L1068.59 158.838C1101.73 156.055 1118.24 140.941 1115.23 105.067C1112.18 68.7628 1093.42 57.0431 1060.27 59.826L1003.88 64.5606ZM1282.39 41.1784L1269.38 122.038L1241.2 44.6359L1214.66 46.8647L1199.06 127.941L1173.33 50.3343L1151.52 52.1655L1183.94 149.153L1212.49 146.756L1228.24 65.8106L1256.4 143.069L1284.67 140.696L1301.33 39.5881L1282.39 41.1784ZM1314.27 38.5012L1322.59 137.513L1344.4 135.682L1336.08 36.67L1314.27 38.5012ZM1419.79 111.578L1386.5 114.373L1381.15 50.661L1414.44 47.866C1433.95 46.2276 1445.2 52.7978 1446.84 72.3132L1447.6 81.3534C1449.28 101.443 1439.3 109.939 1419.79 111.578ZM1357.85 34.8423L1366.17 133.854L1422.56 129.119C1455.71 126.336 1472.21 111.223 1469.2 75.3488C1466.15 39.0445 1447.4 27.3248 1414.25 30.1077L1357.85 34.8423ZM1482.43 24.3832L1490.74 123.395L1577.56 116.106L1576.15 99.3173L1511.15 104.775L1508.99 79.0891L1559.64 74.8364L1558.28 58.6215L1507.63 62.8742L1505.65 39.341L1570.08 33.9317L1568.67 17.1428L1482.43 24.3832Z" fill="black"/>
<rect x="158" y="225.785" width="1634.97" height="202" transform="rotate(-4.79909 158 225.785)" fill="white"/>
<path d="M272.973 371.678L302.677 369.184L294.364 270.172L274.275 271.859L280.792 349.49L221.612 276.28L191.765 278.786L200.078 377.798L220.167 376.111L213.625 298.193L272.973 371.678ZM413.179 314.965C414.998 336.633 403.033 345.585 378.209 347.669C353.24 349.766 339.95 342.934 338.131 321.266L337.276 311.078C335.505 289.984 347.458 280.888 372.426 278.792C397.25 276.708 410.553 283.683 412.324 304.777L413.179 314.965ZM315.731 317.8C318.959 356.256 340.886 367.855 379.63 364.602C418.23 361.361 437.917 346.269 434.688 307.812C431.508 269.93 409.604 258.619 371.004 261.859C332.261 265.112 312.55 279.917 315.731 317.8ZM447.926 257.28L456.239 356.291L478.05 354.46L474.99 318.012L508.281 315.217L533.583 349.798L557.69 347.774L530.928 311.293C543.792 306.167 549.837 295.544 548.536 280.046C546.861 260.101 533.736 250.075 511.351 251.955L447.926 257.28ZM526.738 283.755C527.4 291.647 523.41 297.474 512.217 298.413L473.617 301.654L471.099 271.664L509.699 268.423C521.035 267.471 525.786 272.419 526.46 280.455L526.738 283.755ZM675.581 337.876L697.249 336.057L688.937 237.045L655.933 239.816L632.142 309.298L596.956 244.768L564.096 247.527L572.408 346.538L592.067 344.888L585.152 262.522L621.356 328.845L644.028 326.942L668.666 255.51L675.581 337.876ZM743.277 291.442L758.783 245.488L781.734 288.213L743.277 291.442ZM743.814 232.438L708.648 335.1L729.024 333.389L737.583 307.96L790.102 303.551L802.781 327.197L825.31 325.306L773.661 229.932L743.814 232.438ZM828.245 225.35L836.557 324.361L920.071 317.35L918.59 299.7L856.887 304.88L850.056 223.518L828.245 225.35ZM924.936 217.232L933.248 316.243L955.06 314.412L946.747 215.401L924.936 217.232ZM1030.45 290.308L997.159 293.103L991.81 229.392L1025.1 226.597C1044.62 224.958 1055.86 231.528 1057.5 251.044L1058.26 260.084C1059.95 280.173 1049.96 288.67 1030.45 290.308ZM968.517 213.573L976.829 312.585L1033.22 307.85C1066.37 305.067 1082.88 289.953 1079.86 254.079C1076.82 217.775 1058.06 206.055 1024.91 208.838L968.517 213.573ZM1121.91 259.653L1137.42 213.699L1160.37 256.424L1121.91 259.653ZM1122.45 200.649L1087.28 303.311L1107.66 301.6L1116.22 276.171L1168.74 271.762L1181.42 295.408L1203.95 293.517L1152.3 198.143L1122.45 200.649ZM1268.81 270.296L1235.52 273.091L1230.17 209.379L1263.47 206.584C1282.98 204.946 1294.23 211.516 1295.86 231.032L1296.62 240.072C1298.31 260.161 1288.33 268.658 1268.81 270.296ZM1206.88 193.561L1215.19 292.572L1271.59 287.838C1304.73 285.055 1321.24 269.941 1318.23 234.067C1315.18 197.763 1296.42 186.043 1263.27 188.826L1206.88 193.561ZM1485.39 170.178L1472.38 251.038L1444.2 173.636L1417.66 175.865L1402.06 256.941L1376.33 179.334L1354.52 181.166L1386.94 278.153L1415.49 275.756L1431.24 194.811L1459.4 272.069L1487.67 269.696L1504.33 168.588L1485.39 170.178ZM1517.27 167.501L1525.59 266.513L1547.4 264.682L1539.08 165.67L1517.27 167.501ZM1622.79 240.578L1589.5 243.373L1584.15 179.661L1617.44 176.866C1636.95 175.228 1648.2 181.798 1649.84 201.313L1650.6 210.353C1652.28 230.443 1642.3 238.939 1622.79 240.578ZM1560.85 163.842L1569.17 262.854L1625.56 258.119C1658.71 255.336 1675.21 240.223 1672.2 204.349C1669.15 168.044 1650.4 156.325 1617.25 159.108L1560.85 163.842ZM1685.43 153.383L1693.74 252.395L1780.56 245.106L1779.15 228.317L1714.15 233.775L1711.99 208.089L1762.64 203.836L1761.28 187.621L1710.63 191.874L1708.65 168.341L1773.08 162.932L1771.67 146.143L1685.43 153.383Z" fill="black"/>
<rect x="-0.0722656" y="227" width="1634.97" height="202" transform="rotate(1.68154 -0.0722656 227)" fill="white"/>
<path d="M97.6998 384.937L127.495 385.812L130.411 286.494L110.259 285.903L107.973 363.773L57.434 284.352L27.4949 283.473L24.5793 382.79L44.7306 383.382L47.0251 305.224L97.6998 384.937ZM243.411 344.411C242.773 366.146 229.874 373.691 204.972 372.96C179.927 372.224 167.493 363.936 168.131 342.201L168.431 331.982C169.052 310.823 181.955 303.134 207.001 303.869C231.902 304.6 244.332 313.033 243.711 334.192L243.411 344.411ZM146.265 336.229C145.133 374.804 165.611 388.803 204.474 389.944C243.193 391.081 264.457 378.307 265.59 339.732C266.705 301.732 246.219 288.021 207.499 286.885C168.636 285.744 147.381 298.229 146.265 336.229ZM284.447 291.016L281.531 390.334L303.41 390.976L304.483 354.416L337.877 355.396L359.114 392.611L383.295 393.321L360.822 354.053C374.182 350.411 381.387 340.538 381.844 324.993C382.431 304.986 370.522 293.543 348.067 292.884L284.447 291.016ZM359.766 326.218C359.534 334.134 354.911 339.473 343.684 339.143L304.965 338.007L305.848 307.924L344.567 309.06C355.938 309.394 360.1 314.847 359.863 322.907L359.766 326.218ZM501.55 396.793L523.285 397.431L526.201 298.114L493.095 297.142L461.614 363.495L433.936 295.405L400.975 294.437L398.059 393.755L417.778 394.333L420.204 311.713L448.691 381.699L471.433 382.367L503.976 314.172L501.55 396.793ZM574.054 358.296L594.648 314.385L612.63 359.428L574.054 358.296ZM581.248 299.73L534.719 397.766L555.158 398.367L566.532 374.066L619.214 375.612L629.142 400.538L651.741 401.202L611.187 300.609L581.248 299.73ZM665.939 302.216L663.023 401.533L746.795 403.992L747.315 386.288L685.421 384.471L687.817 302.858L665.939 302.216ZM762.928 305.063L760.012 404.38L781.891 405.023L784.807 305.705L762.928 305.063ZM859.52 389.582L826.126 388.602L828.002 324.693L861.396 325.674C880.972 326.248 891.403 334.046 890.829 353.621L890.562 362.689C889.971 382.841 879.095 390.157 859.52 389.582ZM806.644 306.347L803.728 405.664L860.296 407.324C893.545 408.301 911.651 395.146 912.707 359.162C913.777 322.745 896.461 308.983 863.211 308.007L806.644 306.347ZM953.859 369.446L974.453 325.535L992.435 370.578L953.859 369.446ZM961.053 310.88L914.524 408.916L934.963 409.516L946.337 385.216L999.019 386.762L1008.95 411.688L1031.55 412.352L990.992 311.758L961.053 310.88ZM1098.62 396.601L1065.23 395.621L1067.1 331.712L1100.5 332.693C1120.07 333.267 1130.5 341.065 1129.93 360.64L1129.66 369.709C1129.07 389.86 1118.2 397.176 1098.62 396.601ZM1045.74 313.366L1042.83 412.683L1099.4 414.344C1132.65 415.32 1150.75 402.165 1151.81 366.181C1152.88 329.765 1135.56 316.003 1102.31 315.026L1045.74 313.366ZM1325.11 321.567L1303.06 400.442L1283.8 320.354L1257.17 319.573L1232.53 398.371L1215.72 318.356L1193.84 317.713L1215.1 417.74L1243.75 418.581L1268.53 339.931L1287.79 419.874L1316.15 420.707L1344.11 322.125L1325.11 321.567ZM1357.09 322.506L1354.18 421.823L1376.06 422.466L1378.97 323.148L1357.09 322.506ZM1453.69 407.025L1420.29 406.045L1422.17 342.136L1455.56 343.116C1475.14 343.691 1485.57 351.489 1484.99 371.064L1484.73 380.132C1484.14 400.284 1473.26 407.6 1453.69 407.025ZM1400.81 323.789L1397.89 423.107L1454.46 424.767C1487.71 425.743 1505.82 412.589 1506.87 376.605C1507.94 340.188 1490.63 326.426 1457.38 325.45L1400.81 323.789ZM1525.77 327.458L1522.86 426.775L1609.94 429.332L1610.43 412.491L1545.23 410.577L1545.98 384.812L1596.8 386.303L1597.27 370.038L1546.46 368.547L1547.16 344.941L1611.78 346.838L1612.28 329.997L1525.77 327.458Z" fill="black"/>
<rect x="-45" y="0.100098" width="1634.97" height="202" transform="rotate(-4.5992 -45 0.100098)" fill="white"/>
<path d="M69.4635 146.393L99.1755 144.003L91.2084 44.9627L71.1133 46.5792L77.36 124.232L18.4354 50.8169L-11.4201 53.2186L-3.45292 152.259L16.6422 150.642L10.3723 72.7019L69.4635 146.393ZM209.866 90.1697C211.61 111.844 199.614 120.754 174.782 122.752C149.807 124.761 136.54 117.883 134.797 96.2086L133.977 86.0175C132.28 64.9177 144.264 55.8635 169.24 53.8544C194.071 51.8568 207.349 58.8788 209.047 79.9786L209.866 90.1697ZM112.409 92.6644C115.503 131.132 137.39 142.807 176.144 139.689C214.756 136.583 234.495 121.56 231.4 83.0922C228.352 45.1986 206.488 33.8111 167.877 36.9171C129.122 40.0347 109.36 54.7708 112.409 92.6644ZM244.815 32.606L252.782 131.646L274.599 129.891L271.667 93.4327L304.967 90.7539L330.148 125.422L354.262 123.483L327.628 86.9085C340.51 81.8272 346.591 71.2254 345.344 55.7235C343.739 35.7719 330.649 25.7011 308.258 27.5024L244.815 32.606ZM323.533 59.3561C324.168 67.2506 320.157 73.0629 308.961 73.9636L270.35 77.0696L267.937 47.0705L306.548 43.9645C317.888 43.0523 322.621 48.0167 323.268 56.0548L323.533 59.3561ZM472.187 113.996L493.861 112.253L485.894 13.2126L452.881 15.8683L428.848 85.2669L393.887 20.614L361.017 23.2582L368.985 122.298L388.649 120.716L382.021 38.3265L417.993 104.776L440.672 102.952L465.559 31.6064L472.187 113.996ZM540.044 67.7983L555.71 21.8983L578.512 64.7038L540.044 67.7983ZM540.788 8.79673L505.263 111.335L525.645 109.696L534.293 84.2966L586.827 80.0706L599.423 103.761L621.958 101.948L570.643 6.39502L540.788 8.79673ZM625.242 2.00288L633.209 101.043L716.747 94.3228L715.327 76.6678L653.606 81.6329L647.059 0.247789L625.242 2.00288ZM721.961 -5.77757L729.928 93.2625L751.745 91.5074L743.778 -7.53266L721.961 -5.77757ZM827.219 67.6668L793.919 70.3456L788.792 6.61546L822.092 3.93664C841.613 2.3663 852.836 8.97573 854.406 28.4967L855.133 37.5395C856.75 57.6346 846.74 66.0964 827.219 67.6668ZM765.554 -9.28442L773.521 89.7557L829.931 85.2178C863.088 82.5505 879.646 67.4944 876.76 31.6103C873.838 -4.70442 855.121 -16.4895 821.964 -13.8222L765.554 -9.28442ZM918.79 37.3305L934.456 -8.56946L957.257 34.236L918.79 37.3305ZM919.533 -21.6711L884.009 80.8676L904.391 79.228L913.038 53.8288L965.572 49.6028L978.168 73.293L1000.7 71.4802L949.388 -24.0728L919.533 -21.6711ZM1065.65 48.4863L1032.35 51.1651L1027.22 -12.565L1060.53 -15.2439C1080.05 -16.8142 1091.27 -10.2048 1092.84 9.31617L1093.57 18.359C1095.18 38.454 1085.17 46.9159 1065.65 48.4863ZM1003.99 -28.4649L1011.95 70.5751L1068.36 66.0373C1101.52 63.37 1118.08 48.3138 1115.19 12.4298C1112.27 -23.8849 1093.55 -35.67 1060.4 -33.0028L1003.99 -28.4649ZM1282.57 -50.8754L1269.28 29.9385L1241.38 -47.5615L1214.82 -45.4254L1198.95 35.5964L1173.48 -42.1L1151.67 -40.3449L1183.75 56.7553L1212.31 54.4576L1228.34 -26.4322L1256.23 50.9243L1284.51 48.6496L1301.52 -52.3996L1282.57 -50.8754ZM1314.47 -53.4413L1322.44 45.5988L1344.25 43.8437L1336.29 -55.1964L1314.47 -53.4413ZM1419.73 20.003L1386.43 22.6819L1381.3 -41.0483L1414.6 -43.7271C1434.12 -45.2974 1445.34 -38.688 1446.91 -19.1671L1447.64 -10.1243C1449.26 9.97082 1439.25 18.4327 1419.73 20.003ZM1358.06 -56.9481L1366.03 42.0919L1422.44 37.5541C1455.6 34.8868 1472.15 19.8306 1469.27 -16.0535C1466.35 -52.3682 1447.63 -64.1533 1414.47 -61.486L1358.06 -56.9481ZM1482.68 -66.9725L1490.64 32.0675L1577.48 25.0818L1576.13 8.28807L1511.11 13.5187L1509.04 -12.1743L1559.71 -16.2503L1558.41 -32.4699L1507.74 -28.3939L1505.84 -51.9339L1570.29 -57.1183L1568.94 -73.9121L1482.68 -66.9725Z" fill="black"/>
<rect x="391.423" y="116.785" width="1634.97" height="202" transform="rotate(-4.79909 391.423 116.785)" fill="white"/>
<path d="M517.271 233.662L546.974 231.168L538.662 132.157L518.572 133.843L525.09 211.474L465.91 138.265L436.063 140.771L444.375 239.782L464.465 238.096L457.923 160.178L517.271 233.662ZM657.477 176.949C659.296 198.617 647.331 207.57 622.506 209.654C597.538 211.75 584.248 204.918 582.429 183.25L581.573 173.062C579.802 151.968 591.755 142.872 616.724 140.776C641.548 138.692 654.85 145.667 656.621 166.761L657.477 176.949ZM560.028 179.784C563.257 218.241 585.184 229.839 623.928 226.586C662.528 223.345 682.214 208.254 678.986 169.797C675.805 131.914 653.902 120.603 615.302 123.844C576.558 127.096 556.848 141.901 560.028 179.784ZM692.224 119.264L700.537 218.276L722.348 216.445L719.288 179.997L752.579 177.202L777.881 211.782L801.988 209.758L775.226 173.277C788.09 168.151 794.134 157.528 792.833 142.031C791.159 122.085 778.034 112.06 755.649 113.939L692.224 119.264ZM771.035 145.739C771.698 153.632 767.707 159.458 756.515 160.398L717.914 163.638L715.397 133.648L753.997 130.407C765.333 129.455 770.083 134.403 770.758 142.439L771.035 145.739ZM919.879 199.861L941.547 198.041L933.234 99.0298L900.23 101.801L876.44 171.283L841.254 106.752L808.393 109.511L816.706 208.523L836.365 206.872L829.45 124.506L865.653 190.83L888.326 188.926L912.964 117.494L919.879 199.861ZM987.575 153.426L1003.08 107.472L1026.03 150.198L987.575 153.426ZM988.112 94.4224L952.946 197.084L973.322 195.374L981.881 169.945L1034.4 165.535L1047.08 189.181L1069.61 187.29L1017.96 91.9166L988.112 94.4224ZM1072.54 87.334L1080.85 186.346L1164.37 179.334L1162.89 161.684L1101.18 166.865L1094.35 85.5028L1072.54 87.334ZM1169.23 79.2162L1177.55 178.228L1199.36 176.397L1191.04 77.385L1169.23 79.2162ZM1274.75 152.293L1241.46 155.088L1236.11 91.376L1269.4 88.581C1288.91 86.9425 1300.16 93.5128 1301.8 113.028L1302.56 122.068C1304.24 142.158 1294.26 150.654 1274.75 152.293ZM1212.81 75.5572L1221.13 174.569L1277.52 169.834C1310.67 167.051 1327.17 151.938 1324.16 116.064C1321.11 79.7594 1302.36 68.0397 1269.21 70.8226L1212.81 75.5572ZM1366.21 121.637L1381.72 75.6829L1404.67 118.409L1366.21 121.637ZM1366.75 62.6335L1331.58 165.295L1351.96 163.585L1360.52 138.156L1413.04 133.746L1425.72 157.392L1448.24 155.501L1396.6 60.1276L1366.75 62.6335ZM1513.11 132.281L1479.82 135.076L1474.47 71.3637L1507.76 68.5687C1527.28 66.9303 1538.52 73.5006 1540.16 93.0159L1540.92 102.056C1542.61 122.145 1532.63 130.642 1513.11 132.281ZM1451.18 55.545L1459.49 154.557L1515.89 149.822C1549.03 147.039 1565.54 131.925 1562.53 96.0515C1559.48 59.7472 1540.72 48.0275 1507.57 50.8104L1451.18 55.545ZM1729.68 32.1627L1716.68 113.023L1688.5 35.6203L1661.95 37.8491L1646.36 118.926L1620.63 41.3187L1598.82 43.1499L1631.24 140.138L1659.79 137.74L1675.54 56.795L1703.7 134.054L1731.97 131.68L1748.63 30.5725L1729.68 32.1627ZM1761.57 29.4856L1769.88 128.497L1791.7 126.666L1783.38 27.6544L1761.57 29.4856ZM1867.09 102.562L1833.79 105.357L1828.45 41.6454L1861.74 38.8504C1881.25 37.212 1892.5 43.7822 1894.14 63.2976L1894.89 72.3378C1896.58 92.4271 1886.6 100.924 1867.09 102.562ZM1805.15 25.8267L1813.46 124.838L1869.86 120.104C1903.01 117.321 1919.51 102.207 1916.5 66.3332C1913.45 30.0289 1894.69 18.3091 1861.55 21.0921L1805.15 25.8267ZM1929.73 15.3676L1938.04 114.379L2024.86 107.091L2023.45 90.3017L1958.44 95.7592L1956.29 70.0735L2006.94 65.8208L2005.58 49.6059L1954.93 53.8586L1952.95 30.3254L2017.38 24.9161L2015.97 8.12716L1929.73 15.3676Z" fill="black"/>
<rect width="1635.01" height="217.698" transform="matrix(0.985301 0.170825 -0.169808 0.985477 -31.7936 16.8147)" fill="white"/>
<path d="M66.7917 159.943L96.1979 164.82L112.346 66.7813L92.4574 63.4823L79.7966 140.351L40.3218 54.8344L10.7735 49.9331L-5.37426 147.972L14.514 151.271L27.2216 74.1186L66.7917 159.943ZM216.582 139.393C213.048 160.848 199.26 166.589 174.683 162.512C149.965 158.412 138.751 148.524 142.285 127.069L143.946 116.981C147.387 96.0944 161.198 90.2112 185.917 94.3114C210.493 98.3879 221.683 108.418 218.243 129.305L216.582 139.393ZM121.416 118.207C115.144 156.286 133.566 172.916 171.922 179.279C210.136 185.617 232.911 175.82 239.183 137.741C245.361 100.23 226.892 83.8839 188.678 77.5453C150.322 71.183 127.594 80.696 121.416 118.207ZM264.371 91.9983L248.223 190.037L269.816 193.619L275.76 157.529L308.718 162.996L324.793 202.738L348.659 206.697L331.633 164.754C345.358 162.943 353.815 154.128 356.342 138.783C359.595 119.033 349.322 106.09 327.161 102.414L264.371 91.9983ZM334.303 137.025C333.016 144.839 327.723 149.508 316.642 147.67L278.428 141.332L283.319 111.636L321.533 117.974C332.756 119.836 336.152 125.8 334.841 133.757L334.303 137.025ZM465.37 226.056L486.821 229.615L502.969 131.576L470.295 126.156L430.244 187.679L411.909 116.471L379.378 111.075L363.23 209.114L382.692 212.342L396.125 130.785L415.008 203.982L437.454 207.705L478.803 144.499L465.37 226.056ZM542.351 197.663L568.618 156.916L580.423 203.978L542.351 197.663ZM557.298 140.587L498.106 231.486L518.278 234.833L532.792 212.28L584.786 220.904L591.297 246.944L613.6 250.644L586.846 145.489L557.298 140.587ZM640.883 154.452L624.735 252.491L707.413 266.205L710.292 248.729L649.206 238.596L662.476 158.034L640.883 154.452ZM736.606 170.33L720.458 268.369L742.051 271.951L758.199 173.912L736.606 170.33ZM821.032 267.098L788.074 261.631L798.465 198.545L831.423 204.011C850.743 207.216 860.038 216.348 856.856 235.672L855.381 244.623C852.105 264.515 840.352 270.302 821.032 267.098ZM779.751 177.486L763.603 275.525L819.432 284.786C852.248 290.229 871.944 279.63 877.795 244.108C883.716 208.161 868.395 192.19 835.58 186.747L779.751 177.486ZM917.198 259.84L943.465 219.093L955.27 266.155L917.198 259.84ZM932.144 202.765L872.953 293.664L893.125 297.01L907.639 274.457L959.633 283.081L966.143 309.122L988.447 312.821L961.693 207.666L932.144 202.765ZM1057.01 306.24L1024.05 300.773L1034.44 237.687L1067.4 243.154C1086.72 246.359 1096.02 255.491 1092.83 274.815L1091.36 283.766C1088.08 303.658 1076.33 309.445 1057.01 306.24ZM1015.73 216.629L999.582 314.668L1055.41 323.929C1088.23 329.372 1107.92 318.772 1113.77 283.251C1119.69 247.303 1104.37 231.333 1071.56 225.89L1015.73 216.629ZM1291.45 262.364L1259.07 337.567L1250.68 255.601L1224.4 251.241L1189.46 326.02L1183.48 244.455L1161.89 240.873L1169.61 342.871L1197.88 347.56L1232.93 272.947L1241.35 354.771L1269.33 359.413L1310.2 265.474L1291.45 262.364ZM1323.02 267.6L1306.87 365.639L1328.46 369.221L1344.61 271.182L1323.02 267.6ZM1407.44 364.368L1374.48 358.901L1384.87 295.815L1417.83 301.282C1437.15 304.486 1446.45 313.618 1443.26 332.942L1441.79 341.893C1438.51 361.785 1426.76 367.572 1407.44 364.368ZM1366.16 274.756L1350.01 372.796L1405.84 382.056C1438.66 387.499 1458.35 376.9 1464.2 341.378C1470.12 305.431 1454.8 289.46 1421.99 284.017L1366.16 274.756ZM1489.49 295.214L1473.34 393.253L1559.29 407.509L1562.03 390.885L1497.67 380.211L1501.86 354.777L1552.01 363.095L1554.65 347.04L1504.51 338.722L1508.35 315.42L1572.13 326L1574.87 309.376L1489.49 295.214Z" fill="black"/>
<rect x="-65.6738" y="-156" width="1634.97" height="177.488" transform="rotate(11.3206 -65.6738 -156)" fill="white"/>
<path d="M20.1344 10.7063L49.3624 16.5575L68.8666 -80.8694L49.0988 -84.8268L33.8064 -8.43842L-2.72099 -95.2007L-32.0903 -101.08L-51.5944 -3.65333L-31.8266 0.304035L-16.4777 -76.3667L20.1344 10.7063ZM170.574 -4.84944C166.306 16.4715 152.325 21.7499 127.898 16.8598C103.33 11.9413 92.4588 1.68793 96.7271 -19.633L98.734 -29.6581C102.889 -50.4143 116.898 -55.8339 141.466 -50.9155C165.893 -46.0253 176.736 -35.6307 172.581 -14.8745L170.574 -4.84944ZM76.1696 -29.1822C68.5941 8.65896 86.439 25.8891 124.563 33.5212C162.545 41.125 185.648 32.0922 193.223 -5.74894C200.686 -43.0253 182.784 -59.9731 144.802 -67.5769C106.678 -75.2089 83.6321 -66.4586 76.1696 -29.1822ZM219.971 -50.6194L200.467 46.8075L221.929 51.1041L229.109 15.2397L261.867 21.7976L276.573 62.0434L300.294 66.7922L284.713 24.3153C298.495 22.9623 307.251 14.4352 310.304 -0.814234C314.233 -20.4408 304.408 -33.7158 282.381 -38.1254L219.971 -50.6194ZM288.333 -3.30349C286.778 4.46242 281.327 8.95169 270.313 6.74687L232.331 -0.856931L238.239 -30.3674L276.221 -22.7636C287.376 -20.5305 290.566 -14.4582 288.983 -6.55105L288.333 -3.30349ZM416.298 90.0155L437.619 94.2838L457.124 -3.14313L424.648 -9.64452L382.502 50.5004L366.615 -21.2622L334.281 -27.7353L314.777 69.6916L334.121 73.5641L350.346 -7.48375L366.712 66.2841L389.021 70.7502L432.524 8.96759L416.298 90.0155ZM494.225 64.202L521.88 24.3595L532.066 71.7775L494.225 64.202ZM511.123 7.66719L448.836 96.5292L468.886 100.543L484.168 78.4899L535.847 88.8356L541.462 115.072L563.63 119.51L540.492 13.5467L511.123 7.66719ZM594.202 24.299L574.698 121.726L656.875 138.177L660.352 120.81L599.637 108.655L615.664 28.5955L594.202 24.299ZM689.345 43.346L669.841 140.773L691.303 145.069L710.807 47.6426L689.345 43.346ZM770.422 142.845L737.664 136.287L750.214 73.5949L782.972 80.1529C802.175 83.9972 811.154 93.4312 807.31 112.634L805.529 121.53C801.571 141.297 789.625 146.689 770.422 142.845ZM732.229 51.931L712.725 149.358L768.216 160.467C800.832 166.996 820.885 157.059 827.952 121.76C835.103 86.0366 820.337 69.5695 787.72 63.0398L732.229 51.931ZM866.801 138.789L894.456 98.9465L904.642 146.365L866.801 138.789ZM883.699 82.2543L821.412 171.116L841.462 175.13L856.745 153.077L908.423 163.423L914.038 189.659L936.206 194.097L913.069 88.1338L883.699 82.2543ZM1004.97 189.8L972.213 183.242L984.763 120.55L1017.52 127.108C1036.72 130.952 1045.7 140.386 1041.86 159.589L1040.08 168.485C1036.12 188.253 1024.17 193.644 1004.97 189.8ZM966.778 98.886L947.274 196.313L1002.76 207.422C1035.38 213.951 1055.43 204.014 1062.5 168.715C1069.65 132.992 1054.89 116.525 1022.27 109.995L966.778 98.886ZM1240.83 153.748L1205.88 227.817L1200.3 145.636L1174.18 140.406L1136.69 213.967L1133.51 132.265L1112.05 127.969L1116.27 230.145L1144.37 235.77L1181.97 162.379L1187.57 244.419L1215.39 249.988L1259.46 157.48L1240.83 153.748ZM1272.2 160.03L1252.7 257.457L1274.16 261.753L1293.66 164.326L1272.2 160.03ZM1353.28 259.529L1320.52 252.971L1333.07 190.279L1365.83 196.837C1385.03 200.681 1394.01 210.115 1390.17 229.318L1388.39 238.213C1384.43 257.981 1372.48 263.373 1353.28 259.529ZM1315.09 168.615L1295.58 266.042L1351.07 277.151C1383.69 283.68 1403.74 273.743 1410.81 238.444C1417.96 202.72 1403.19 186.253 1370.58 179.724L1315.09 168.615ZM1437.67 193.155L1418.16 290.582L1503.59 307.683L1506.9 291.163L1442.93 278.358L1447.99 253.084L1497.84 263.062L1501.03 247.107L1451.19 237.128L1455.82 213.972L1519.22 226.664L1522.53 210.143L1437.67 193.155Z" fill="black"/>
<rect width="2271.55" height="158.672" transform="matrix(0.9932 0.116418 -0.115392 0.99332 365.309 157.209)" fill="white"/>
<path d="M474.022 302.497L503.59 306.266L516.041 207.689L496.043 205.14L486.281 282.43L443.619 198.459L413.907 194.672L401.457 293.249L421.455 295.798L431.253 218.222L474.022 302.497ZM622.933 276.331C620.208 297.903 606.646 304.159 581.934 301.009C557.079 297.841 545.501 288.381 548.225 266.809L549.507 256.665C552.159 235.664 565.74 229.266 590.595 232.434C615.307 235.584 626.867 245.186 624.214 266.187L622.933 276.331ZM527.038 258.737C522.202 297.025 541.236 312.951 579.804 317.867C618.23 322.765 640.62 312.118 645.456 273.83C650.22 236.114 631.149 220.473 592.724 215.576C554.156 210.66 531.801 221.021 527.038 258.737ZM668.907 227.173L656.456 325.75L678.169 328.517L682.752 292.229L715.892 296.453L733.449 335.563L757.447 338.622L738.857 297.348C752.504 295.023 760.623 285.896 762.572 270.467C765.08 250.608 754.328 238.06 732.044 235.22L668.907 227.173ZM740.482 269.538C739.49 277.396 734.376 282.26 723.234 280.84L684.809 275.943L688.58 246.084L727.005 250.981C738.29 252.42 741.908 258.252 740.897 266.252L740.482 269.538ZM874.804 353.579L896.374 356.328L908.824 257.752L875.97 253.564L838.26 316.55L817.261 246.081L784.549 241.912L772.099 340.489L791.669 342.983L802.026 260.979L823.648 333.414L846.217 336.29L885.161 271.575L874.804 353.579ZM950.663 322.311L975.38 280.606L988.945 327.191L950.663 322.311ZM963.453 264.714L907.721 357.775L928.005 360.36L941.661 337.277L993.942 343.941L1001.43 369.718L1023.85 372.576L993.165 268.501L963.453 264.714ZM1047.5 275.427L1035.05 374.003L1118.19 384.599L1120.4 367.027L1058.98 359.198L1069.21 278.194L1047.5 275.427ZM1143.75 287.694L1131.3 386.271L1153.01 389.039L1165.47 290.462L1143.75 287.694ZM1231.76 381.22L1198.62 376.996L1206.63 313.564L1239.77 317.788C1259.2 320.264 1268.83 329.04 1266.37 348.469L1265.24 357.47C1262.71 377.471 1251.18 383.696 1231.76 381.22ZM1187.14 293.224L1174.69 391.801L1230.82 398.956C1263.82 403.161 1283.1 391.829 1287.62 356.112C1292.18 319.968 1276.27 304.585 1243.27 300.379L1187.14 293.224ZM1327.58 370.352L1352.3 328.646L1365.86 375.231L1327.58 370.352ZM1340.37 312.755L1284.64 405.815L1304.92 408.4L1318.58 385.318L1370.86 391.981L1378.35 417.758L1400.77 420.617L1370.08 316.542L1340.37 312.755ZM1469.04 411.463L1435.9 407.239L1443.91 343.807L1477.05 348.031C1496.48 350.507 1506.11 359.283 1503.66 378.712L1502.52 387.713C1499.99 407.714 1488.47 413.939 1469.04 411.463ZM1424.42 323.467L1411.97 422.044L1468.11 429.199C1501.1 433.404 1520.39 422.072 1524.9 386.355C1529.46 350.211 1513.55 334.828 1480.56 330.622L1424.42 323.467ZM1701.66 358.803L1672.13 435.17L1660.67 353.578L1634.24 350.21L1602.14 426.249L1593.1 344.966L1571.39 342.199L1582.94 443.834L1611.36 447.457L1643.59 371.579L1655.07 453.028L1683.21 456.615L1720.52 361.206L1701.66 358.803ZM1733.4 362.849L1720.95 461.426L1742.67 464.193L1755.12 365.616L1733.4 362.849ZM1821.41 456.374L1788.27 452.15L1796.28 388.718L1829.42 392.942C1848.85 395.418 1858.48 404.194 1856.03 423.624L1854.89 432.624C1852.36 452.625 1840.84 458.85 1821.41 456.374ZM1776.79 368.378L1764.34 466.955L1820.48 474.11C1853.47 478.316 1872.76 466.983 1877.27 431.267C1881.83 395.122 1865.92 379.739 1832.93 375.533L1776.79 368.378ZM1900.8 384.184L1888.35 482.761L1974.77 493.776L1976.88 477.061L1912.17 468.813L1915.4 443.24L1965.83 449.667L1967.87 433.523L1917.44 427.097L1920.4 403.667L1984.54 411.841L1986.65 395.126L1900.8 384.184Z" fill="black"/>
<rect x="-51.5468" y="119.484" width="1634.97" height="164.779" transform="rotate(-2.31764 -51.5468 119.484)" fill="white"/>
<path d="M60.8122 247.834L90.5958 246.628L86.5777 147.35L66.4342 148.165L69.5846 226.005L13.6294 150.302L-16.2981 151.513L-12.28 250.792L7.8635 249.977L4.70146 171.849L60.8122 247.834ZM203.342 197.244C204.221 218.971 191.88 227.397 166.988 228.404C141.953 229.417 128.971 222.016 128.092 200.29L127.678 190.074C126.822 168.924 139.158 160.354 164.193 159.341C189.085 158.333 202.072 165.878 202.928 187.029L203.342 197.244ZM105.862 195.857C107.423 234.418 128.827 246.954 167.675 245.382C206.38 243.816 226.701 229.59 225.14 191.03C223.603 153.045 202.21 140.796 163.506 142.363C124.658 143.935 104.325 157.872 105.862 195.857ZM240.554 141.118L244.572 240.396L266.442 239.511L264.963 202.965L298.344 201.614L322.125 237.258L346.297 236.279L321.14 198.674C334.214 194.11 340.712 183.758 340.084 168.219C339.274 148.219 326.596 137.635 304.15 138.544L240.554 141.118ZM318.145 170.98C318.466 178.894 314.226 184.542 303.004 184.996L264.299 186.563L263.082 156.491L301.787 154.925C313.153 154.465 317.685 159.614 318.011 167.671L318.145 170.98ZM464.506 231.495L486.232 230.616L482.214 131.337L449.122 132.676L422.345 201.063L389.986 135.07L357.037 136.403L361.055 235.682L380.767 234.884L377.424 152.296L410.722 220.125L433.456 219.205L461.164 148.907L464.506 231.495ZM534.149 188.035L551.63 142.795L572.709 186.475L534.149 188.035ZM537.24 129.11L497.662 230.153L518.093 229.326L527.745 204.292L580.406 202.16L592.049 226.333L614.638 225.419L567.168 127.899L537.24 129.11ZM621.898 125.684L625.916 224.962L709.656 221.573L708.939 203.876L647.07 206.38L643.768 124.799L621.898 125.684ZM718.85 121.76L722.868 221.039L744.738 220.153L740.72 120.875L718.85 121.76ZM821.101 199.336L787.721 200.687L785.135 136.804L818.516 135.453C838.084 134.661 849.034 141.712 849.826 161.28L850.193 170.344C851.008 190.488 840.669 198.544 821.101 199.336ZM762.549 119.991L766.567 219.27L823.112 216.981C856.349 215.636 873.493 201.251 872.038 165.281C870.564 128.878 852.331 116.358 819.094 117.703L762.549 119.991ZM913.807 172.67L931.287 127.43L952.367 171.109L913.807 172.67ZM916.898 113.744L877.32 214.788L897.751 213.961L907.403 188.926L960.064 186.795L971.707 210.967L994.296 210.053L946.826 112.533L916.898 113.744ZM1060.11 189.663L1026.73 191.014L1024.14 127.13L1057.52 125.779C1077.09 124.987 1088.04 132.038 1088.83 151.606L1089.2 160.671C1090.02 180.814 1079.68 188.871 1060.11 189.663ZM1001.56 110.318L1005.57 209.597L1062.12 207.308C1095.36 205.963 1112.5 191.578 1111.05 155.607C1109.57 119.205 1091.34 106.684 1058.1 108.029L1001.56 110.318ZM1280.81 99.0158L1264.31 179.237L1239.52 100.687L1212.9 101.764L1193.81 182.09L1171.46 103.442L1149.59 104.327L1177.78 202.627L1206.41 201.468L1225.65 121.281L1250.44 199.686L1278.79 198.539L1299.8 98.2472L1280.81 99.0158ZM1312.79 97.7218L1316.8 197.001L1338.67 196.115L1334.66 96.8367L1312.79 97.7218ZM1415.04 175.298L1381.66 176.649L1379.07 112.766L1412.45 111.415C1432.02 110.623 1442.97 117.674 1443.76 137.242L1444.13 146.306C1444.94 166.45 1434.6 174.506 1415.04 175.298ZM1356.48 95.9532L1360.5 195.232L1417.05 192.943C1450.28 191.598 1467.43 177.213 1465.97 141.243C1464.5 104.84 1446.27 92.3195 1413.03 93.6646L1356.48 95.9532ZM1481.4 90.8976L1485.42 190.176L1572.46 186.653L1571.78 169.819L1506.6 172.457L1505.56 146.702L1556.35 144.646L1555.69 128.388L1504.9 130.443L1503.95 106.847L1568.55 104.232L1567.87 87.3978L1481.4 90.8976Z" fill="black"/>
</g>
<defs>
<clipPath id="clip0_1:565">
<rect width="1434" height="391" fill="white"/>
</clipPath>
</defs>
</svg>
