<svg width="1262" height="294" viewBox="0 0 1262 294" fill="none" xmlns="http://www.w3.org/2000/svg">
<path d="M81.969 113.791H115.37V2.10423H92.7799V89.6729L33.5623 2.10423H0.000205175V113.791H22.5901V25.8983L81.969 113.791Z" fill="black"/>
<path d="M243.839 63.4509C243.839 87.8924 229.64 96.7949 201.725 96.7949C173.649 96.7949 159.45 87.8924 159.45 63.4509V51.9585C159.45 28.1644 173.649 19.1 201.725 19.1C229.64 19.1 243.839 28.1644 243.839 51.9585V63.4509ZM134.763 57.4619C134.763 100.842 158.159 115.895 201.725 115.895C245.13 115.895 268.527 100.842 268.527 57.4619C268.527 14.7297 245.13 0 201.725 0C158.159 0 134.763 14.7297 134.763 57.4619Z" fill="black"/>
<path d="M288.046 2.10423V113.791H312.572V72.6771H350.006L375.016 113.791H402.124L375.662 70.411C390.507 65.8788 398.252 54.5483 398.252 37.067C398.252 14.5678 384.536 2.10423 359.365 2.10423H288.046ZM373.564 39.1712C373.564 48.0737 368.562 54.2246 355.976 54.2246H312.572V20.3949H355.976C368.724 20.3949 373.564 26.3839 373.564 35.4483V39.1712Z" fill="black"/>
<path d="M534.689 113.791H559.054V2.10423H521.942L488.864 77.6949L455.625 2.10423H418.675V113.791H440.78V20.8805L474.988 98.5754H500.482L534.689 20.8805V113.791Z" fill="black"/>
<path d="M614.631 68.1449L636.253 18.1288L657.875 68.1449H614.631ZM620.763 2.10423L571.872 113.791H594.785L606.725 86.1119H665.781L677.721 113.791H703.054L654.325 2.10423H620.763Z" fill="black"/>
<path d="M715.702 2.10423V113.791H809.611V93.8814H740.228V2.10423H715.702Z" fill="black"/>
<path d="M824.428 2.10423V113.791H848.954V2.10423H824.428Z" fill="black"/>
<path d="M935.394 93.8814H897.96V22.0136H935.394C957.339 22.0136 969.279 30.4305 969.279 52.4441V62.6415C969.279 85.3026 957.339 93.8814 935.394 93.8814ZM873.434 2.10423V113.791H936.846C974.12 113.791 993.966 98.4136 993.966 57.9475C993.966 16.9958 974.12 2.10423 936.846 2.10423H873.434Z" fill="black"/>
<path d="M1040.4 68.1449L1062.02 18.1288L1083.64 68.1449H1040.4ZM1046.53 2.10423L997.637 113.791H1020.55L1032.49 86.1119H1091.55L1103.49 113.791H1128.82L1080.09 2.10423H1046.53Z" fill="black"/>
<path d="M1203.43 93.8814H1165.99V22.0136H1203.43C1225.37 22.0136 1237.31 30.4305 1237.31 52.4441V62.6415C1237.31 85.3026 1225.37 93.8814 1203.43 93.8814ZM1141.47 2.10423V113.791H1204.88C1242.15 113.791 1262 98.4136 1262 57.9475C1262 16.9958 1242.15 2.10423 1204.88 2.10423H1141.47Z" fill="black"/>
<path d="M147.157 182.314L125.051 271.663L100.847 182.314H70.9966L45.9864 271.663L24.5261 182.314H1.02587e-06L27.1078 294H59.2176L84.3891 204.813L108.593 294H140.38L168.456 182.314H147.157Z" fill="black"/>
<path d="M183.013 182.314V294H207.539V182.314H183.013Z" fill="black"/>
<path d="M293.979 274.091H256.544V202.223H293.979C315.923 202.223 327.864 210.64 327.864 232.653V242.851C327.864 265.512 315.923 274.091 293.979 274.091ZM232.018 182.314V294H295.431C332.704 294 352.551 278.623 352.551 238.157C352.551 197.205 332.704 182.314 295.431 182.314H232.018Z" fill="black"/>
<path d="M372.102 182.314V294H469.722V275.062H396.628V246.088H453.586V227.797H396.628V201.252H469.077V182.314H372.102Z" fill="black"/>
</svg>
