<svg width="1116" height="683" viewBox="0 0 1116 683" fill="none" xmlns="http://www.w3.org/2000/svg">
<path d="M15.4621 59.9938L15.5444 42.894L199.742 43.7844L199.567 80.084L62.7691 79.4227C68.7931 136.753 200.042 106.187 199.627 192.286C199.408 237.885 166.927 254.528 109.928 254.253C54.4284 253.984 19.4083 237.315 16.051 186.898L61.9505 187.12C65.132 211.736 78.8957 219.302 110.095 219.453C137.095 219.584 153.625 213.363 153.716 194.464L153.745 188.464C154.011 133.264 14.9348 169.493 15.4621 59.9938Z" fill="#010101"/>
<path d="M340.465 284.003L340.547 301.102L524.745 300.214L524.57 263.914L387.771 264.574C393.795 207.244 525.044 237.812 524.629 151.713C524.409 106.113 491.928 89.4696 434.929 89.7446C379.429 90.0124 344.409 106.682 341.052 157.098L386.952 156.877C390.133 132.261 403.897 124.695 435.096 124.544C462.096 124.414 478.626 130.634 478.718 149.534L478.747 155.534C479.013 210.733 339.936 174.504 340.465 284.003Z" fill="#010101"/>
<path d="M24.4647 623.003L24.5472 640.102L208.745 639.214L208.57 602.914L71.7715 603.574C77.795 546.244 209.044 576.812 208.629 490.713C208.409 445.113 175.928 428.47 118.929 428.745C63.4292 429.012 28.4092 445.682 25.0524 496.098L70.9519 495.877C74.1332 471.261 87.8968 463.695 119.096 463.544C146.096 463.414 162.626 469.634 162.718 488.534L162.747 494.534C163.013 549.733 23.9364 513.504 24.4647 623.003Z" fill="#010101"/>
<path d="M341.465 477.003L341.547 494.102L525.745 493.214L525.57 456.914L388.771 457.574C394.795 400.244 526.044 430.812 525.629 344.713C525.409 299.113 492.928 282.47 435.929 282.745C380.429 283.012 345.409 299.682 342.052 350.098L387.952 349.877C391.133 325.261 404.897 317.695 436.096 317.544C463.096 317.414 479.626 323.634 479.718 342.534L479.747 348.534C480.013 403.733 340.936 367.504 341.465 477.003Z" fill="#010101"/>
<path d="M772.465 625.003L772.547 642.102L956.745 641.214L956.57 604.914L819.771 605.574C825.795 548.244 957.044 578.812 956.629 492.713C956.409 447.113 923.928 430.47 866.929 430.745C811.429 431.012 776.409 447.682 773.052 498.098L818.952 497.877C822.133 473.261 835.897 465.695 867.096 465.544C894.096 465.414 910.626 471.634 910.718 490.534L910.747 496.534C911.013 551.733 771.936 515.504 772.465 625.003Z" fill="#010101"/>
<path d="M344.748 61.0425L344.84 43.9428L160.641 43.1377L160.448 79.4372L297.247 80.0351C290.642 137.307 159.709 105.534 159.25 191.633C159.008 237.232 191.318 254.174 248.317 254.423C303.817 254.665 339.004 238.319 342.873 187.935L296.973 187.735C293.542 212.32 279.702 219.76 248.503 219.623C221.503 219.505 205.037 213.133 205.137 194.234L205.169 188.234C205.463 133.034 344.165 170.541 344.748 61.0425Z" fill="#010101"/>
<path d="M671.031 282.965L671.113 300.065L486.915 300.953L486.74 264.654L623.539 263.994C616.962 206.725 486.014 238.557 485.599 152.458C485.379 106.858 517.697 89.9024 574.697 89.6274C630.196 89.3596 665.375 105.69 669.218 156.072L623.319 156.294C619.9 131.71 606.064 124.276 574.865 124.427C547.865 124.557 531.396 130.937 531.487 149.837L531.516 155.836C531.782 211.036 670.502 173.466 671.031 282.965Z" fill="#010101"/>
<path d="M771.465 432.003L771.547 449.102L955.745 448.214L955.57 411.914L818.771 412.574C824.795 355.244 956.044 385.812 955.629 299.713C955.409 254.113 922.928 237.47 865.929 237.745C810.429 238.012 775.409 254.682 772.052 305.098L817.952 304.877C821.133 280.261 834.897 272.695 866.096 272.544C893.096 272.414 909.626 278.634 909.718 297.534L909.747 303.534C910.013 358.733 770.936 322.504 771.465 432.003Z" fill="#010101"/>
<path d="M1100.61 429.965L1100.69 447.065L916.491 447.953L916.316 411.654L1053.11 410.994C1046.54 353.725 915.59 385.557 915.175 299.458C914.955 253.858 947.274 236.902 1004.27 236.627C1059.77 236.36 1094.95 252.69 1098.79 303.072L1052.9 303.294C1049.48 278.71 1035.64 271.276 1004.44 271.427C977.441 271.557 960.972 277.937 961.063 296.837L961.092 302.836C961.358 358.036 1100.08 320.466 1100.61 429.965Z" fill="#010101"/>
<path d="M353.607 620.965L353.689 638.065L169.491 638.953L169.316 602.654L306.115 601.994C299.538 544.725 168.59 576.557 168.175 490.458C167.955 444.858 200.274 427.902 257.273 427.627C312.772 427.36 347.951 443.69 351.795 494.072L305.895 494.294C302.476 469.71 288.64 462.276 257.441 462.427C230.441 462.557 213.972 468.937 214.063 487.837L214.092 493.836C214.358 549.036 353.079 511.466 353.607 620.965Z" fill="#010101"/>
<path d="M670.607 474.965L670.689 492.065L486.491 492.953L486.316 456.654L623.115 455.994C616.538 398.725 485.59 430.557 485.175 344.458C484.955 298.858 517.274 281.902 574.273 281.627C629.772 281.36 664.951 297.69 668.795 348.072L622.895 348.294C619.476 323.71 605.64 316.276 574.441 316.427C547.441 316.557 530.972 322.937 531.063 341.837L531.092 347.836C531.358 403.036 670.079 365.466 670.607 474.965Z" fill="#010101"/>
<path d="M1101.61 622.965L1101.69 640.065L917.491 640.953L917.316 604.654L1054.11 603.994C1047.54 546.725 916.59 578.557 916.175 492.458C915.955 446.858 948.274 429.902 1005.27 429.627C1060.77 429.36 1095.95 445.69 1099.79 496.072L1053.9 496.294C1050.48 471.71 1036.64 464.276 1005.44 464.427C978.441 464.557 961.972 470.937 962.063 489.837L962.092 495.836C962.358 551.036 1101.08 513.466 1101.61 622.965Z" fill="#010101"/>
<path d="M772.463 54.776L772.546 37.6762L956.743 38.5658L956.569 74.8654L819.77 74.2047C825.794 131.534 957.043 100.968 956.628 187.067C956.408 232.666 923.927 249.31 866.928 249.035C811.429 248.766 776.409 232.097 773.052 181.68L818.951 181.902C822.132 206.518 835.896 214.084 867.096 214.235C894.096 214.365 910.626 208.145 910.717 189.245L910.746 183.245C911.012 128.046 771.935 164.275 772.463 54.776Z" fill="#010101"/>
<path d="M1101.53 56.8113L1101.61 39.7115L917.411 38.7701L917.245 75.0697L1054.04 75.7688C1047.48 133.036 916.526 101.166 916.134 187.265C915.927 232.865 948.25 249.83 1005.25 250.122C1060.75 250.405 1095.92 234.085 1099.75 183.704L1053.85 183.469C1050.44 208.052 1036.61 215.482 1005.41 215.322C978.408 215.184 961.937 208.8 962.023 189.9L962.05 183.9C962.302 128.701 1101.03 166.31 1101.53 56.8113Z" fill="#010101"/>
</svg>
