<svg width="1442" height="898" viewBox="0 0 1442 898" fill="none" xmlns="http://www.w3.org/2000/svg">
<rect x="-3" y="-1" width="1445" height="508" fill="#FF603D"/>
<path d="M150.969 170.791H184.37V59.1042H161.78V146.673L102.562 59.1042H69.0002V170.791H91.59V82.8983L150.969 170.791Z" fill="black"/>
<path d="M312.839 120.451C312.839 144.892 298.64 153.795 270.725 153.795C242.649 153.795 228.45 144.892 228.45 120.451V108.958C228.45 85.1644 242.649 76.1 270.725 76.1C298.64 76.1 312.839 85.1644 312.839 108.958V120.451ZM203.763 114.462C203.763 157.842 227.159 172.895 270.725 172.895C314.13 172.895 337.527 157.842 337.527 114.462C337.527 71.7297 314.13 57 270.725 57C227.159 57 203.763 71.7297 203.763 114.462Z" fill="black"/>
<path d="M357.046 59.1042V170.791H381.572V129.677H419.006L444.016 170.791H471.124L444.662 127.411C459.507 122.879 467.252 111.548 467.252 94.067C467.252 71.5678 453.536 59.1042 428.365 59.1042H357.046ZM442.564 96.1712C442.564 105.074 437.562 111.225 424.976 111.225H381.572V77.3949H424.976C437.724 77.3949 442.564 83.3839 442.564 92.4483V96.1712Z" fill="black"/>
<path d="M603.689 170.791H628.054V59.1042H590.942L557.864 134.695L524.625 59.1042H487.675V170.791H509.78V77.8805L543.988 155.575H569.482L603.689 77.8805V170.791Z" fill="black"/>
<path d="M683.631 125.145L705.253 75.1288L726.875 125.145H683.631ZM689.763 59.1042L640.872 170.791H663.785L675.725 143.112H734.781L746.721 170.791H772.054L723.325 59.1042H689.763Z" fill="black"/>
<path d="M784.702 59.1042V170.791H878.611V150.881H809.228V59.1042H784.702Z" fill="black"/>
<path d="M893.428 59.1042V170.791H917.954V59.1042H893.428Z" fill="black"/>
<path d="M1004.39 150.881H966.96V79.0136H1004.39C1026.34 79.0136 1038.28 87.4305 1038.28 109.444V119.642C1038.28 142.303 1026.34 150.881 1004.39 150.881ZM942.434 59.1042V170.791H1005.85C1043.12 170.791 1062.97 155.414 1062.97 114.947C1062.97 73.9958 1043.12 59.1042 1005.85 59.1042H942.434Z" fill="black"/>
<path d="M1109.4 125.145L1131.02 75.1288L1152.64 125.145H1109.4ZM1115.53 59.1042L1066.64 170.791H1089.55L1101.49 143.112H1160.55L1172.49 170.791H1197.82L1149.09 59.1042H1115.53Z" fill="black"/>
<path d="M1272.43 150.881H1234.99V79.0136H1272.43C1294.37 79.0136 1306.31 87.4305 1306.31 109.444V119.642C1306.31 142.303 1294.37 150.881 1272.43 150.881ZM1210.47 59.1042V170.791H1273.88C1311.15 170.791 1331 155.414 1331 114.947C1331 73.9958 1311.15 59.1042 1273.88 59.1042H1210.47Z" fill="black"/>
<path d="M216.157 239.314L194.051 328.663L169.847 239.314H139.997L114.986 328.663L93.5261 239.314H69L96.1078 351H128.218L153.389 261.813L177.592 351H209.38L237.456 239.314H216.157Z" fill="black"/>
<path d="M252.013 239.314V351H276.539V239.314H252.013Z" fill="black"/>
<path d="M362.979 331.091H325.544V259.223H362.979C384.923 259.223 396.864 267.64 396.864 289.653V299.851C396.864 322.512 384.923 331.091 362.979 331.091ZM301.018 239.314V351H364.431C401.704 351 421.551 335.623 421.551 295.157C421.551 254.205 401.704 239.314 364.431 239.314H301.018Z" fill="black"/>
<path d="M441.102 239.314V351H538.722V332.062H465.628V303.088H522.586V284.797H465.628V258.252H538.077V239.314H441.102Z" fill="black"/>
<g clip-path="url(#clip0_13:607)">
<rect width="1434" height="391" transform="translate(8 507)" fill="white"/>
<rect x="-37" y="603.785" width="1634.97" height="202" transform="rotate(-4.79909 -37 603.785)" fill="white"/>
<path d="M77.9732 749.678L107.677 747.184L99.364 648.172L79.2747 649.859L85.7923 727.49L26.612 654.28L-3.235 656.786L5.07767 755.798L25.167 754.111L18.6253 676.193L77.9732 749.678ZM218.179 692.965C219.998 714.633 208.033 723.585 183.209 725.669C158.24 727.766 144.95 720.934 143.131 699.266L142.276 689.078C140.505 667.984 152.458 658.888 177.426 656.792C202.25 654.708 215.553 661.683 217.324 682.777L218.179 692.965ZM120.731 695.8C123.959 734.256 145.886 745.855 184.63 742.602C223.23 739.361 242.917 724.269 239.688 685.812C236.508 647.93 214.604 636.619 176.004 639.859C137.261 643.112 117.55 657.917 120.731 695.8ZM252.926 635.28L261.239 734.291L283.05 732.46L279.99 696.012L313.281 693.217L338.583 727.798L362.69 725.774L335.928 689.293C348.792 684.167 354.837 673.544 353.536 658.046C351.861 638.101 338.736 628.075 316.351 629.955L252.926 635.28ZM331.738 661.755C332.4 669.647 328.41 675.474 317.217 676.413L278.617 679.654L276.099 649.664L314.699 646.423C326.035 645.471 330.786 650.419 331.46 658.455L331.738 661.755ZM480.581 715.876L502.249 714.057L493.937 615.045L460.933 617.816L437.142 687.298L401.956 622.768L369.096 625.527L377.408 724.538L397.067 722.888L390.152 640.522L426.356 706.845L449.028 704.942L473.666 633.51L480.581 715.876ZM548.277 669.442L563.783 623.488L586.734 666.213L548.277 669.442ZM548.814 610.438L513.648 713.1L534.024 711.389L542.583 685.96L595.102 681.551L607.781 705.197L630.31 703.306L578.661 607.932L548.814 610.438ZM633.245 603.35L641.557 702.361L725.071 695.35L723.59 677.7L661.887 682.88L655.056 601.518L633.245 603.35ZM729.936 595.232L738.248 694.243L760.06 692.412L751.747 593.401L729.936 595.232ZM835.45 668.308L802.159 671.103L796.81 607.392L830.101 604.597C849.616 602.958 860.861 609.528 862.499 629.044L863.258 638.084C864.945 658.173 854.965 666.67 835.45 668.308ZM773.517 591.573L781.829 690.585L838.223 685.85C871.37 683.067 887.876 667.953 884.864 632.079C881.816 595.775 863.058 584.055 829.91 586.838L773.517 591.573ZM926.914 637.653L942.419 591.699L965.37 634.424L926.914 637.653ZM927.451 578.649L892.285 681.311L912.661 679.6L921.22 654.171L973.739 649.762L986.418 673.408L1008.95 671.517L957.298 576.143L927.451 578.649ZM1073.81 648.296L1040.52 651.091L1035.17 587.379L1068.47 584.584C1087.98 582.946 1099.23 589.516 1100.86 609.032L1101.62 618.072C1103.31 638.161 1093.33 646.658 1073.81 648.296ZM1011.88 571.561L1020.19 670.572L1076.59 665.838C1109.73 663.055 1126.24 647.941 1123.23 612.067C1120.18 575.763 1101.42 564.043 1068.27 566.826L1011.88 571.561ZM1290.39 548.178L1277.38 629.038L1249.2 551.636L1222.66 553.865L1207.06 634.941L1181.33 557.334L1159.52 559.166L1191.94 656.153L1220.49 653.756L1236.24 572.811L1264.4 650.069L1292.67 647.696L1309.33 546.588L1290.39 548.178ZM1322.27 545.501L1330.59 644.513L1352.4 642.682L1344.08 543.67L1322.27 545.501ZM1427.79 618.578L1394.5 621.373L1389.15 557.661L1422.44 554.866C1441.95 553.228 1453.2 559.798 1454.84 579.313L1455.6 588.353C1457.28 608.443 1447.3 616.939 1427.79 618.578ZM1365.85 541.842L1374.17 640.854L1430.56 636.119C1463.71 633.336 1480.21 618.223 1477.2 582.349C1474.15 546.044 1455.4 534.325 1422.25 537.108L1365.85 541.842ZM1490.43 531.383L1498.74 630.395L1585.56 623.106L1584.15 606.317L1519.15 611.775L1516.99 586.089L1567.64 581.836L1566.28 565.621L1515.63 569.874L1513.65 546.341L1578.08 540.932L1576.67 524.143L1490.43 531.383Z" fill="black"/>
<rect x="166" y="732.785" width="1634.97" height="202" transform="rotate(-4.79909 166 732.785)" fill="white"/>
<path d="M280.973 878.678L310.677 876.184L302.364 777.172L282.275 778.859L288.792 856.49L229.612 783.28L199.765 785.786L208.078 884.798L228.167 883.111L221.625 805.193L280.973 878.678ZM421.179 821.965C422.998 843.633 411.033 852.585 386.209 854.669C361.24 856.766 347.95 849.934 346.131 828.266L345.276 818.078C343.505 796.984 355.458 787.888 380.426 785.792C405.25 783.708 418.553 790.683 420.324 811.777L421.179 821.965ZM323.731 824.8C326.959 863.256 348.886 874.855 387.63 871.602C426.23 868.361 445.917 853.269 442.688 814.812C439.508 776.93 417.604 765.619 379.004 768.859C340.261 772.112 320.55 786.917 323.731 824.8ZM455.926 764.28L464.239 863.291L486.05 861.46L482.99 825.012L516.281 822.217L541.583 856.798L565.69 854.774L538.928 818.293C551.792 813.167 557.837 802.544 556.536 787.046C554.861 767.101 541.736 757.075 519.351 758.955L455.926 764.28ZM534.738 790.755C535.4 798.647 531.41 804.474 520.217 805.413L481.617 808.654L479.099 778.664L517.699 775.423C529.035 774.471 533.786 779.419 534.46 787.455L534.738 790.755ZM683.581 844.876L705.249 843.057L696.937 744.045L663.933 746.816L640.142 816.298L604.956 751.768L572.096 754.527L580.408 853.538L600.067 851.888L593.152 769.522L629.356 835.845L652.028 833.942L676.666 762.51L683.581 844.876ZM751.277 798.442L766.783 752.488L789.734 795.213L751.277 798.442ZM751.814 739.438L716.648 842.1L737.024 840.389L745.583 814.96L798.102 810.551L810.781 834.197L833.31 832.306L781.661 736.932L751.814 739.438ZM836.245 732.35L844.557 831.361L928.071 824.35L926.59 806.7L864.887 811.88L858.056 730.518L836.245 732.35ZM932.936 724.232L941.248 823.243L963.06 821.412L954.747 722.401L932.936 724.232ZM1038.45 797.308L1005.16 800.103L999.81 736.392L1033.1 733.597C1052.62 731.958 1063.86 738.528 1065.5 758.044L1066.26 767.084C1067.95 787.173 1057.96 795.67 1038.45 797.308ZM976.517 720.573L984.829 819.585L1041.22 814.85C1074.37 812.067 1090.88 796.953 1087.86 761.079C1084.82 724.775 1066.06 713.055 1032.91 715.838L976.517 720.573ZM1129.91 766.653L1145.42 720.699L1168.37 763.424L1129.91 766.653ZM1130.45 707.649L1095.28 810.311L1115.66 808.6L1124.22 783.171L1176.74 778.762L1189.42 802.408L1211.95 800.517L1160.3 705.143L1130.45 707.649ZM1276.81 777.296L1243.52 780.091L1238.17 716.379L1271.47 713.584C1290.98 711.946 1302.23 718.516 1303.86 738.032L1304.62 747.072C1306.31 767.161 1296.33 775.658 1276.81 777.296ZM1214.88 700.561L1223.19 799.572L1279.59 794.838C1312.73 792.055 1329.24 776.941 1326.23 741.067C1323.18 704.763 1304.42 693.043 1271.27 695.826L1214.88 700.561ZM1493.39 677.178L1480.38 758.038L1452.2 680.636L1425.66 682.865L1410.06 763.941L1384.33 686.334L1362.52 688.166L1394.94 785.153L1423.49 782.756L1439.24 701.811L1467.4 779.069L1495.67 776.696L1512.33 675.588L1493.39 677.178ZM1525.27 674.501L1533.59 773.513L1555.4 771.682L1547.08 672.67L1525.27 674.501ZM1630.79 747.578L1597.5 750.373L1592.15 686.661L1625.44 683.866C1644.95 682.228 1656.2 688.798 1657.84 708.313L1658.6 717.353C1660.28 737.443 1650.3 745.939 1630.79 747.578ZM1568.85 670.842L1577.17 769.854L1633.56 765.119C1666.71 762.336 1683.21 747.223 1680.2 711.349C1677.15 675.044 1658.4 663.325 1625.25 666.108L1568.85 670.842ZM1693.43 660.383L1701.74 759.395L1788.56 752.106L1787.15 735.317L1722.15 740.775L1719.99 715.089L1770.64 710.836L1769.28 694.621L1718.63 698.874L1716.65 675.341L1781.08 669.932L1779.67 653.143L1693.43 660.383Z" fill="black"/>
<rect x="7.92773" y="734" width="1634.97" height="202" transform="rotate(1.68154 7.92773 734)" fill="white"/>
<path d="M105.7 891.937L135.495 892.812L138.411 793.494L118.259 792.903L115.973 870.773L65.434 791.352L35.4949 790.473L32.5793 889.79L52.7306 890.382L55.0251 812.224L105.7 891.937ZM251.411 851.411C250.773 873.146 237.874 880.691 212.972 879.96C187.927 879.224 175.493 870.936 176.131 849.201L176.431 838.982C177.052 817.823 189.955 810.134 215.001 810.869C239.902 811.6 252.332 820.033 251.711 841.192L251.411 851.411ZM154.265 843.229C153.133 881.804 173.611 895.803 212.474 896.944C251.193 898.081 272.457 885.307 273.59 846.732C274.705 808.732 254.219 795.021 215.499 793.885C176.636 792.744 155.381 805.229 154.265 843.229ZM292.447 798.016L289.531 897.334L311.41 897.976L312.483 861.416L345.877 862.396L367.114 899.611L391.295 900.321L368.822 861.053C382.182 857.411 389.387 847.538 389.844 831.993C390.431 811.986 378.522 800.543 356.067 799.884L292.447 798.016ZM367.766 833.218C367.534 841.134 362.911 846.473 351.684 846.143L312.965 845.007L313.848 814.924L352.567 816.06C363.938 816.394 368.1 821.847 367.863 829.907L367.766 833.218ZM509.55 903.793L531.285 904.431L534.201 805.114L501.095 804.142L469.614 870.495L441.936 802.405L408.975 801.437L406.059 900.755L425.778 901.333L428.204 818.713L456.691 888.699L479.433 889.367L511.976 821.172L509.55 903.793ZM582.054 865.296L602.648 821.385L620.63 866.428L582.054 865.296ZM589.248 806.73L542.719 904.766L563.158 905.367L574.532 881.066L627.214 882.612L637.142 907.538L659.741 908.202L619.187 807.609L589.248 806.73ZM673.939 809.216L671.023 908.533L754.795 910.992L755.315 893.288L693.421 891.471L695.817 809.858L673.939 809.216ZM770.928 812.063L768.012 911.38L789.891 912.023L792.807 812.705L770.928 812.063ZM867.52 896.582L834.126 895.602L836.002 831.693L869.396 832.674C888.972 833.248 899.403 841.046 898.829 860.621L898.562 869.689C897.971 889.841 887.095 897.157 867.52 896.582ZM814.644 813.347L811.728 912.664L868.296 914.324C901.545 915.301 919.651 902.146 920.707 866.162C921.777 829.745 904.461 815.983 871.211 815.007L814.644 813.347ZM961.859 876.446L982.453 832.535L1000.43 877.578L961.859 876.446ZM969.053 817.88L922.524 915.916L942.963 916.516L954.337 892.216L1007.02 893.762L1016.95 918.688L1039.55 919.352L998.992 818.758L969.053 817.88ZM1106.62 903.601L1073.23 902.621L1075.1 838.712L1108.5 839.693C1128.07 840.267 1138.5 848.065 1137.93 867.64L1137.66 876.709C1137.07 896.86 1126.2 904.176 1106.62 903.601ZM1053.74 820.366L1050.83 919.683L1107.4 921.344C1140.65 922.32 1158.75 909.165 1159.81 873.181C1160.88 836.765 1143.56 823.003 1110.31 822.026L1053.74 820.366ZM1333.11 828.567L1311.06 907.442L1291.8 827.354L1265.17 826.573L1240.53 905.371L1223.72 825.356L1201.84 824.713L1223.1 924.74L1251.75 925.581L1276.53 846.931L1295.79 926.874L1324.15 927.707L1352.11 829.125L1333.11 828.567ZM1365.09 829.506L1362.18 928.823L1384.06 929.466L1386.97 830.148L1365.09 829.506ZM1461.69 914.025L1428.29 913.045L1430.17 849.136L1463.56 850.116C1483.14 850.691 1493.57 858.489 1492.99 878.064L1492.73 887.132C1492.14 907.284 1481.26 914.6 1461.69 914.025ZM1408.81 830.789L1405.89 930.107L1462.46 931.767C1495.71 932.743 1513.82 919.589 1514.87 883.605C1515.94 847.188 1498.63 833.426 1465.38 832.45L1408.81 830.789ZM1533.77 834.458L1530.86 933.775L1617.94 936.332L1618.43 919.491L1553.23 917.577L1553.98 891.812L1604.8 893.303L1605.27 877.038L1554.46 875.547L1555.16 851.941L1619.78 853.838L1620.28 836.997L1533.77 834.458Z" fill="black"/>
<rect x="-37" y="507.1" width="1634.97" height="202" transform="rotate(-4.5992 -37 507.1)" fill="white"/>
<path d="M77.4635 653.393L107.176 651.003L99.2084 551.963L79.1133 553.579L85.36 631.232L26.4354 557.817L-3.42011 560.219L4.54708 659.259L24.6422 657.642L18.3723 579.702L77.4635 653.393ZM217.866 597.17C219.61 618.844 207.614 627.754 182.782 629.752C157.807 631.761 144.54 624.883 142.797 603.209L141.977 593.017C140.28 571.918 152.264 562.864 177.24 560.854C202.071 558.857 215.349 565.879 217.047 586.979L217.866 597.17ZM120.409 599.664C123.503 638.132 145.39 649.807 184.144 646.689C222.756 643.583 242.495 628.56 239.4 590.092C236.352 552.199 214.488 540.811 175.877 543.917C137.122 547.035 117.36 561.771 120.409 599.664ZM252.815 539.606L260.782 638.646L282.599 636.891L279.667 600.433L312.967 597.754L338.148 632.422L362.262 630.483L335.628 593.909C348.51 588.827 354.591 578.225 353.344 562.723C351.739 542.772 338.649 532.701 316.258 534.502L252.815 539.606ZM331.533 566.356C332.168 574.251 328.157 580.063 316.961 580.964L278.35 584.07L275.937 554.071L314.548 550.964C325.888 550.052 330.621 555.017 331.268 563.055L331.533 566.356ZM480.187 620.996L501.861 619.253L493.894 520.213L460.881 522.868L436.848 592.267L401.887 527.614L369.017 530.258L376.985 629.298L396.649 627.716L390.021 545.327L425.993 611.776L448.672 609.952L473.559 538.606L480.187 620.996ZM548.044 574.798L563.71 528.898L586.512 571.704L548.044 574.798ZM548.788 515.797L513.263 618.335L533.645 616.696L542.293 591.297L594.827 587.071L607.423 610.761L629.958 608.948L578.643 513.395L548.788 515.797ZM633.242 509.003L641.209 608.043L724.747 601.323L723.327 583.668L661.606 588.633L655.059 507.248L633.242 509.003ZM729.961 501.222L737.928 600.262L759.745 598.507L751.778 499.467L729.961 501.222ZM835.219 574.667L801.919 577.346L796.792 513.615L830.092 510.937C849.613 509.366 860.836 515.976 862.406 535.497L863.133 544.539C864.75 564.635 854.74 573.096 835.219 574.667ZM773.554 497.716L781.521 596.756L837.931 592.218C871.088 589.551 887.646 574.494 884.76 538.61C881.838 502.296 863.121 490.51 829.964 493.178L773.554 497.716ZM926.79 544.331L942.456 498.431L965.257 541.236L926.79 544.331ZM927.533 485.329L892.009 587.868L912.391 586.228L921.038 560.829L973.572 556.603L986.168 580.293L1008.7 578.48L957.388 482.927L927.533 485.329ZM1073.65 555.486L1040.35 558.165L1035.22 494.435L1068.53 491.756C1088.05 490.186 1099.27 496.795 1100.84 516.316L1101.57 525.359C1103.18 545.454 1093.17 553.916 1073.65 555.486ZM1011.99 478.535L1019.95 577.575L1076.36 573.037C1109.52 570.37 1126.08 555.314 1123.19 519.43C1120.27 483.115 1101.55 471.33 1068.4 473.997L1011.99 478.535ZM1290.57 456.125L1277.28 536.939L1249.38 459.438L1222.82 461.575L1206.95 542.596L1181.48 464.9L1159.67 466.655L1191.75 563.755L1220.31 561.458L1236.34 480.568L1264.23 557.924L1292.51 555.65L1309.52 454.6L1290.57 456.125ZM1322.47 453.559L1330.44 552.599L1352.25 550.844L1344.29 451.804L1322.47 453.559ZM1427.73 527.003L1394.43 529.682L1389.3 465.952L1422.6 463.273C1442.12 461.703 1453.34 468.312 1454.91 487.833L1455.64 496.876C1457.26 516.971 1447.25 525.433 1427.73 527.003ZM1366.06 450.052L1374.03 549.092L1430.44 544.554C1463.6 541.887 1480.15 526.831 1477.27 490.947C1474.35 454.632 1455.63 442.847 1422.47 445.514L1366.06 450.052ZM1490.68 440.027L1498.64 539.068L1585.48 532.082L1584.13 515.288L1519.11 520.519L1517.04 494.826L1567.71 490.75L1566.41 474.53L1515.74 478.606L1513.84 455.066L1578.29 449.882L1576.94 433.088L1490.68 440.027Z" fill="black"/>
<rect x="399.423" y="623.785" width="1634.97" height="202" transform="rotate(-4.79909 399.423 623.785)" fill="white"/>
<path d="M525.271 740.662L554.974 738.168L546.662 639.157L526.572 640.843L533.09 718.474L473.91 645.265L444.063 647.771L452.375 746.782L472.465 745.096L465.923 667.178L525.271 740.662ZM665.477 683.949C667.296 705.617 655.331 714.57 630.506 716.654C605.538 718.75 592.248 711.918 590.429 690.25L589.573 680.062C587.802 658.968 599.755 649.872 624.724 647.776C649.548 645.692 662.85 652.667 664.621 673.761L665.477 683.949ZM568.028 686.784C571.257 725.241 593.184 736.839 631.928 733.586C670.528 730.345 690.214 715.254 686.986 676.797C683.805 638.914 661.902 627.603 623.302 630.844C584.558 634.096 564.848 648.901 568.028 686.784ZM700.224 626.264L708.537 725.276L730.348 723.445L727.288 686.997L760.579 684.202L785.881 718.782L809.988 716.758L783.226 680.277C796.09 675.151 802.134 664.528 800.833 649.031C799.159 629.085 786.034 619.06 763.649 620.939L700.224 626.264ZM779.035 652.739C779.698 660.632 775.707 666.458 764.515 667.398L725.914 670.638L723.397 640.648L761.997 637.407C773.333 636.455 778.083 641.403 778.758 649.439L779.035 652.739ZM927.879 706.861L949.547 705.041L941.234 606.03L908.23 608.801L884.44 678.283L849.254 613.752L816.393 616.511L824.706 715.523L844.365 713.872L837.45 631.506L873.653 697.83L896.326 695.926L920.964 624.494L927.879 706.861ZM995.575 660.426L1011.08 614.472L1034.03 657.198L995.575 660.426ZM996.112 601.422L960.946 704.084L981.322 702.374L989.881 676.945L1042.4 672.535L1055.08 696.181L1077.61 694.29L1025.96 598.917L996.112 601.422ZM1080.54 594.334L1088.85 693.346L1172.37 686.334L1170.89 668.684L1109.18 673.865L1102.35 592.503L1080.54 594.334ZM1177.23 586.216L1185.55 685.228L1207.36 683.397L1199.04 584.385L1177.23 586.216ZM1282.75 659.293L1249.46 662.088L1244.11 598.376L1277.4 595.581C1296.91 593.943 1308.16 600.513 1309.8 620.028L1310.56 629.068C1312.24 649.158 1302.26 657.654 1282.75 659.293ZM1220.81 582.557L1229.13 681.569L1285.52 676.834C1318.67 674.051 1335.17 658.938 1332.16 623.064C1329.11 586.759 1310.36 575.04 1277.21 577.823L1220.81 582.557ZM1374.21 628.637L1389.72 582.683L1412.67 625.409L1374.21 628.637ZM1374.75 569.633L1339.58 672.295L1359.96 670.585L1368.52 645.156L1421.04 640.746L1433.72 664.392L1456.24 662.501L1404.6 567.128L1374.75 569.633ZM1521.11 639.281L1487.82 642.076L1482.47 578.364L1515.76 575.569C1535.28 573.93 1546.52 580.501 1548.16 600.016L1548.92 609.056C1550.61 629.145 1540.63 637.642 1521.11 639.281ZM1459.18 562.545L1467.49 661.557L1523.89 656.822C1557.03 654.039 1573.54 638.925 1570.53 603.051C1567.48 566.747 1548.72 555.027 1515.57 557.81L1459.18 562.545ZM1737.68 539.163L1724.68 620.023L1696.5 542.62L1669.95 544.849L1654.36 625.926L1628.63 548.319L1606.82 550.15L1639.24 647.138L1667.79 644.74L1683.54 563.795L1711.7 641.054L1739.97 638.68L1756.63 537.572L1737.68 539.163ZM1769.57 536.486L1777.88 635.497L1799.7 633.666L1791.38 534.654L1769.57 536.486ZM1875.09 609.562L1841.79 612.357L1836.45 548.645L1869.74 545.85C1889.25 544.212 1900.5 550.782 1902.14 570.298L1902.89 579.338C1904.58 599.427 1894.6 607.924 1875.09 609.562ZM1813.15 532.827L1821.46 631.838L1877.86 627.104C1911.01 624.321 1927.51 609.207 1924.5 573.333C1921.45 537.029 1902.69 525.309 1869.55 528.092L1813.15 532.827ZM1937.73 522.368L1946.04 621.379L2032.86 614.091L2031.45 597.302L1966.44 602.759L1964.29 577.074L2014.94 572.821L2013.58 556.606L1962.93 560.859L1960.95 537.325L2025.38 531.916L2023.97 515.127L1937.73 522.368Z" fill="black"/>
<rect width="1635.01" height="217.698" transform="matrix(0.985301 0.170825 -0.169808 0.985477 -23.7936 523.815)" fill="white"/>
<path d="M74.7917 666.943L104.198 671.82L120.346 573.781L100.457 570.482L87.7966 647.351L48.3218 561.834L18.7735 556.933L2.62574 654.972L22.514 658.271L35.2216 581.119L74.7917 666.943ZM224.582 646.393C221.048 667.848 207.26 673.589 182.683 669.512C157.965 665.412 146.751 655.524 150.285 634.069L151.946 623.981C155.387 603.094 169.198 597.211 193.917 601.311C218.493 605.388 229.683 615.418 226.243 636.305L224.582 646.393ZM129.416 625.207C123.144 663.286 141.566 679.916 179.922 686.279C218.136 692.617 240.911 682.82 247.183 644.741C253.361 607.23 234.892 590.884 196.678 584.545C158.322 578.183 135.594 587.696 129.416 625.207ZM272.371 598.998L256.223 697.037L277.816 700.619L283.76 664.529L316.718 669.996L332.793 709.738L356.659 713.697L339.633 671.754C353.358 669.943 361.815 661.128 364.342 645.783C367.595 626.033 357.322 613.09 335.161 609.414L272.371 598.998ZM342.303 644.025C341.016 651.839 335.723 656.508 324.642 654.67L286.428 648.332L291.319 618.636L329.533 624.974C340.756 626.836 344.152 632.8 342.841 640.757L342.303 644.025ZM473.37 733.056L494.821 736.615L510.969 638.576L478.295 633.156L438.244 694.679L419.909 623.471L387.378 618.075L371.23 716.114L390.692 719.342L404.125 637.785L423.008 710.982L445.454 714.705L486.803 651.499L473.37 733.056ZM550.351 704.663L576.618 663.916L588.423 710.978L550.351 704.663ZM565.298 647.587L506.106 738.486L526.278 741.833L540.792 719.28L592.786 727.904L599.297 753.944L621.6 757.644L594.846 652.489L565.298 647.587ZM648.883 661.452L632.735 759.491L715.413 773.205L718.292 755.729L657.206 745.596L670.476 665.034L648.883 661.452ZM744.606 677.33L728.458 775.369L750.051 778.951L766.199 680.912L744.606 677.33ZM829.032 774.098L796.074 768.631L806.465 705.545L839.423 711.011C858.743 714.216 868.038 723.348 864.856 742.672L863.381 751.623C860.105 771.515 848.352 777.302 829.032 774.098ZM787.751 684.486L771.603 782.525L827.432 791.786C860.248 797.229 879.944 786.63 885.795 751.108C891.716 715.161 876.395 699.19 843.58 693.747L787.751 684.486ZM925.198 766.84L951.465 726.093L963.27 773.155L925.198 766.84ZM940.144 709.765L880.953 800.664L901.125 804.01L915.639 781.457L967.633 790.081L974.143 816.122L996.447 819.821L969.693 714.666L940.144 709.765ZM1065.01 813.24L1032.05 807.773L1042.44 744.687L1075.4 750.154C1094.72 753.359 1104.02 762.491 1100.83 781.815L1099.36 790.766C1096.08 810.658 1084.33 816.445 1065.01 813.24ZM1023.73 723.629L1007.58 821.668L1063.41 830.929C1096.23 836.372 1115.92 825.772 1121.77 790.251C1127.69 754.303 1112.37 738.333 1079.56 732.89L1023.73 723.629ZM1299.45 769.364L1267.07 844.567L1258.68 762.601L1232.4 758.241L1197.46 833.02L1191.48 751.455L1169.89 747.873L1177.61 849.871L1205.88 854.56L1240.93 779.947L1249.35 861.771L1277.33 866.413L1318.2 772.474L1299.45 769.364ZM1331.02 774.6L1314.87 872.639L1336.46 876.221L1352.61 778.182L1331.02 774.6ZM1415.44 871.368L1382.48 865.901L1392.87 802.815L1425.83 808.282C1445.15 811.486 1454.45 820.618 1451.26 839.942L1449.79 848.893C1446.51 868.785 1434.76 874.572 1415.44 871.368ZM1374.16 781.756L1358.01 879.796L1413.84 889.056C1446.66 894.499 1466.35 883.9 1472.2 848.378C1478.12 812.431 1462.8 796.46 1429.99 791.017L1374.16 781.756ZM1497.49 802.214L1481.34 900.253L1567.29 914.509L1570.03 897.885L1505.67 887.211L1509.86 861.777L1560.01 870.095L1562.65 854.04L1512.51 845.722L1516.35 822.42L1580.13 833L1582.87 816.376L1497.49 802.214Z" fill="black"/>
<rect x="-57.6738" y="351" width="1634.97" height="177.488" transform="rotate(11.3206 -57.6738 351)" fill="white"/>
<path d="M28.1344 517.706L57.3624 523.558L76.8666 426.131L57.0988 422.173L41.8064 498.562L5.27901 411.799L-24.0903 405.92L-43.5944 503.347L-23.8266 507.304L-8.47772 430.633L28.1344 517.706ZM178.574 502.151C174.306 523.472 160.325 528.75 135.898 523.86C111.33 518.941 100.459 508.688 104.727 487.367L106.734 477.342C110.889 456.586 124.898 451.166 149.466 456.085C173.893 460.975 184.736 471.369 180.581 492.125L178.574 502.151ZM84.1696 477.818C76.5941 515.659 94.439 532.889 132.563 540.521C170.545 548.125 193.648 539.092 201.223 501.251C208.686 463.975 190.784 447.027 152.802 439.423C114.678 431.791 91.6321 440.541 84.1696 477.818ZM227.971 456.381L208.467 553.808L229.929 558.104L237.109 522.24L269.867 528.798L284.573 569.043L308.294 573.792L292.713 531.315C306.495 529.962 315.251 521.435 318.304 506.186C322.233 486.559 312.408 473.284 290.381 468.875L227.971 456.381ZM296.333 503.697C294.778 511.462 289.327 515.952 278.313 513.747L240.331 506.143L246.239 476.633L284.221 484.236C295.376 486.469 298.566 492.542 296.983 500.449L296.333 503.697ZM424.298 597.015L445.619 601.284L465.124 503.857L432.648 497.355L390.502 557.5L374.615 485.738L342.281 479.265L322.777 576.692L342.121 580.564L358.346 499.516L374.712 573.284L397.021 577.75L440.524 515.968L424.298 597.015ZM502.225 571.202L529.88 531.359L540.066 578.778L502.225 571.202ZM519.123 514.667L456.836 603.529L476.886 607.543L492.168 585.49L543.847 595.836L549.462 622.072L571.63 626.51L548.492 520.547L519.123 514.667ZM602.202 531.299L582.698 628.726L664.875 645.177L668.352 627.81L607.637 615.655L623.664 535.596L602.202 531.299ZM697.345 550.346L677.841 647.773L699.303 652.069L718.807 554.643L697.345 550.346ZM778.422 649.845L745.664 643.287L758.214 580.595L790.972 587.153C810.175 590.997 819.154 600.431 815.31 619.634L813.529 628.53C809.571 648.297 797.625 653.689 778.422 649.845ZM740.229 558.931L720.725 656.358L776.216 667.467C808.832 673.996 828.885 664.059 835.952 628.76C843.103 593.037 828.337 576.57 795.72 570.04L740.229 558.931ZM874.801 645.789L902.456 605.947L912.642 653.365L874.801 645.789ZM891.699 589.254L829.412 678.116L849.462 682.13L864.745 660.077L916.423 670.423L922.038 696.659L944.206 701.097L921.069 595.134L891.699 589.254ZM1012.97 696.8L980.213 690.242L992.763 627.55L1025.52 634.108C1044.72 637.952 1053.7 647.386 1049.86 666.589L1048.08 675.485C1044.12 695.253 1032.17 700.644 1012.97 696.8ZM974.778 605.886L955.274 703.313L1010.76 714.422C1043.38 720.951 1063.43 711.014 1070.5 675.715C1077.65 639.992 1062.89 623.525 1030.27 616.995L974.778 605.886ZM1248.83 660.748L1213.88 734.817L1208.3 652.636L1182.18 647.406L1144.69 720.967L1141.51 639.265L1120.05 634.969L1124.27 737.145L1152.37 742.77L1189.97 669.379L1195.57 751.419L1223.39 756.988L1267.46 664.48L1248.83 660.748ZM1280.2 667.03L1260.7 764.457L1282.16 768.753L1301.66 671.326L1280.2 667.03ZM1361.28 766.529L1328.52 759.971L1341.07 697.279L1373.83 703.837C1393.03 707.681 1402.01 717.115 1398.17 736.318L1396.39 745.213C1392.43 764.981 1380.48 770.373 1361.28 766.529ZM1323.09 675.615L1303.58 773.042L1359.07 784.151C1391.69 790.68 1411.74 780.743 1418.81 745.444C1425.96 709.72 1411.19 693.253 1378.58 686.724L1323.09 675.615ZM1445.67 700.155L1426.16 797.582L1511.59 814.683L1514.9 798.163L1450.93 785.358L1455.99 760.084L1505.84 770.062L1509.03 754.107L1459.19 744.128L1463.82 720.972L1527.22 733.664L1530.53 717.143L1445.67 700.155Z" fill="black"/>
<rect width="2271.55" height="158.672" transform="matrix(0.9932 0.116418 -0.115392 0.99332 373.309 664.209)" fill="white"/>
<path d="M482.022 809.497L511.59 813.266L524.041 714.689L504.043 712.14L494.281 789.43L451.619 705.459L421.907 701.672L409.457 800.249L429.455 802.798L439.253 725.222L482.022 809.497ZM630.933 783.331C628.208 804.903 614.646 811.159 589.934 808.009C565.079 804.841 553.501 795.381 556.225 773.809L557.507 763.665C560.159 742.664 573.74 736.266 598.595 739.434C623.307 742.584 634.867 752.186 632.214 773.187L630.933 783.331ZM535.038 765.737C530.202 804.025 549.236 819.951 587.804 824.867C626.23 829.765 648.62 819.118 653.456 780.83C658.22 743.114 639.149 727.473 600.724 722.576C562.156 717.66 539.801 728.021 535.038 765.737ZM676.907 734.173L664.456 832.75L686.169 835.517L690.752 799.229L723.892 803.453L741.449 842.563L765.447 845.622L746.857 804.348C760.504 802.023 768.623 792.896 770.572 777.467C773.08 757.608 762.328 745.06 740.044 742.22L676.907 734.173ZM748.482 776.538C747.49 784.396 742.376 789.26 731.234 787.84L692.809 782.943L696.58 753.084L735.005 757.981C746.29 759.42 749.908 765.252 748.897 773.252L748.482 776.538ZM882.804 860.579L904.374 863.328L916.824 764.752L883.97 760.564L846.26 823.55L825.261 753.081L792.549 748.912L780.099 847.489L799.669 849.983L810.026 767.979L831.648 840.414L854.217 843.29L893.161 778.575L882.804 860.579ZM958.663 829.311L983.38 787.606L996.945 834.191L958.663 829.311ZM971.453 771.714L915.721 864.775L936.005 867.36L949.661 844.277L1001.94 850.941L1009.43 876.718L1031.85 879.576L1001.16 775.501L971.453 771.714ZM1055.5 782.427L1043.05 881.003L1126.19 891.599L1128.4 874.027L1066.98 866.198L1077.21 785.194L1055.5 782.427ZM1151.75 794.694L1139.3 893.271L1161.01 896.039L1173.47 797.462L1151.75 794.694ZM1239.76 888.22L1206.62 883.996L1214.63 820.564L1247.77 824.788C1267.2 827.264 1276.83 836.04 1274.37 855.469L1273.24 864.47C1270.71 884.471 1259.18 890.696 1239.76 888.22ZM1195.14 800.224L1182.69 898.801L1238.82 905.956C1271.82 910.161 1291.1 898.829 1295.62 863.112C1300.18 826.968 1284.27 811.585 1251.27 807.379L1195.14 800.224ZM1335.58 877.352L1360.3 835.646L1373.86 882.231L1335.58 877.352ZM1348.37 819.755L1292.64 912.815L1312.92 915.4L1326.58 892.318L1378.86 898.981L1386.35 924.758L1408.77 927.617L1378.08 823.542L1348.37 819.755ZM1477.04 918.463L1443.9 914.239L1451.91 850.807L1485.05 855.031C1504.48 857.507 1514.11 866.283 1511.66 885.712L1510.52 894.713C1507.99 914.714 1496.47 920.939 1477.04 918.463ZM1432.42 830.467L1419.97 929.044L1476.11 936.199C1509.1 940.404 1528.39 929.072 1532.9 893.355C1537.46 857.211 1521.55 841.828 1488.56 837.622L1432.42 830.467ZM1709.66 865.803L1680.13 942.17L1668.67 860.578L1642.24 857.21L1610.14 933.249L1601.1 851.966L1579.39 849.199L1590.94 950.834L1619.36 954.457L1651.59 878.579L1663.07 960.028L1691.21 963.615L1728.52 868.206L1709.66 865.803ZM1741.4 869.849L1728.95 968.426L1750.67 971.193L1763.12 872.616L1741.4 869.849ZM1829.41 963.374L1796.27 959.15L1804.28 895.718L1837.42 899.942C1856.85 902.418 1866.48 911.194 1864.03 930.624L1862.89 939.624C1860.36 959.625 1848.84 965.85 1829.41 963.374ZM1784.79 875.378L1772.34 973.955L1828.48 981.11C1861.47 985.316 1880.76 973.983 1885.27 938.267C1889.83 902.122 1873.92 886.739 1840.93 882.533L1784.79 875.378ZM1908.8 891.184L1896.35 989.761L1982.77 1000.78L1984.88 984.061L1920.17 975.813L1923.4 950.24L1973.83 956.667L1975.87 940.523L1925.44 934.097L1928.4 910.667L1992.54 918.841L1994.65 902.126L1908.8 891.184Z" fill="black"/>
<rect x="-43.5468" y="626.484" width="1634.97" height="164.779" transform="rotate(-2.31764 -43.5468 626.484)" fill="white"/>
<path d="M68.8122 754.834L98.5958 753.628L94.5777 654.35L74.4342 655.165L77.5846 733.005L21.6294 657.302L-8.29807 658.513L-4.28 757.792L15.8635 756.977L12.7015 678.849L68.8122 754.834ZM211.342 704.244C212.221 725.971 199.88 734.397 174.988 735.404C149.953 736.417 136.971 729.016 136.092 707.29L135.678 697.074C134.822 675.924 147.158 667.354 172.193 666.341C197.085 665.333 210.072 672.878 210.928 694.029L211.342 704.244ZM113.862 702.857C115.423 741.418 136.827 753.954 175.675 752.382C214.38 750.816 234.701 736.59 233.14 698.03C231.603 660.045 210.21 647.796 171.506 649.363C132.658 650.935 112.325 664.872 113.862 702.857ZM248.554 648.118L252.572 747.396L274.442 746.511L272.963 709.965L306.344 708.614L330.125 744.258L354.297 743.279L329.14 705.674C342.214 701.11 348.712 690.758 348.084 675.219C347.274 655.219 334.596 644.635 312.15 645.544L248.554 648.118ZM326.145 677.98C326.466 685.894 322.226 691.542 311.004 691.996L272.299 693.563L271.082 663.491L309.787 661.925C321.153 661.465 325.685 666.614 326.011 674.671L326.145 677.98ZM472.506 738.495L494.232 737.616L490.214 638.337L457.122 639.676L430.345 708.063L397.986 642.07L365.037 643.403L369.055 742.682L388.767 741.884L385.424 659.296L418.722 727.125L441.456 726.205L469.164 655.907L472.506 738.495ZM542.149 695.035L559.63 649.795L580.709 693.475L542.149 695.035ZM545.24 636.11L505.662 737.153L526.093 736.326L535.745 711.292L588.406 709.16L600.049 733.333L622.638 732.419L575.168 634.899L545.24 636.11ZM629.898 632.684L633.916 731.962L717.656 728.573L716.939 710.876L655.07 713.38L651.768 631.799L629.898 632.684ZM726.85 628.76L730.868 728.039L752.738 727.153L748.72 627.875L726.85 628.76ZM829.101 706.336L795.721 707.687L793.135 643.804L826.516 642.453C846.084 641.661 857.034 648.712 857.826 668.28L858.193 677.344C859.008 697.488 848.669 705.544 829.101 706.336ZM770.549 626.991L774.567 726.27L831.112 723.981C864.349 722.636 881.493 708.251 880.038 672.281C878.564 635.878 860.331 623.358 827.094 624.703L770.549 626.991ZM921.807 679.67L939.287 634.43L960.367 678.109L921.807 679.67ZM924.898 620.744L885.32 721.788L905.751 720.961L915.403 695.926L968.064 693.795L979.707 717.967L1002.3 717.053L954.826 619.533L924.898 620.744ZM1068.11 696.663L1034.73 698.014L1032.14 634.13L1065.52 632.779C1085.09 631.987 1096.04 639.038 1096.83 658.606L1097.2 667.671C1098.02 687.814 1087.68 695.871 1068.11 696.663ZM1009.56 617.318L1013.57 716.597L1070.12 714.308C1103.36 712.963 1120.5 698.578 1119.05 662.607C1117.57 626.205 1099.34 613.684 1066.1 615.029L1009.56 617.318ZM1288.81 606.016L1272.31 686.237L1247.52 607.687L1220.9 608.764L1201.81 689.09L1179.46 610.442L1157.59 611.327L1185.78 709.627L1214.41 708.468L1233.65 628.281L1258.44 706.686L1286.79 705.539L1307.8 605.247L1288.81 606.016ZM1320.79 604.722L1324.8 704.001L1346.67 703.115L1342.66 603.837L1320.79 604.722ZM1423.04 682.298L1389.66 683.649L1387.07 619.766L1420.45 618.415C1440.02 617.623 1450.97 624.674 1451.76 644.242L1452.13 653.306C1452.94 673.45 1442.6 681.506 1423.04 682.298ZM1364.48 602.953L1368.5 702.232L1425.05 699.943C1458.28 698.598 1475.43 684.213 1473.97 648.243C1472.5 611.84 1454.27 599.319 1421.03 600.665L1364.48 602.953ZM1489.4 597.898L1493.42 697.176L1580.46 693.653L1579.78 676.819L1514.6 679.457L1513.56 653.702L1564.35 651.646L1563.69 635.388L1512.9 637.443L1511.95 613.847L1576.55 611.232L1575.87 594.398L1489.4 597.898Z" fill="black"/>
</g>
<defs>
<clipPath id="clip0_13:607">
<rect width="1434" height="391" fill="white" transform="translate(8 507)"/>
</clipPath>
</defs>
</svg>
