<svg width="1434" height="391" viewBox="0 0 1434 391" fill="none" xmlns="http://www.w3.org/2000/svg">
<g clip-path="url(#clip0_410:2348)">
<rect width="1434" height="391" fill="white"/>
<rect x="-45" y="96.7852" width="1634.97" height="202" transform="rotate(-4.79909 -45 96.7852)" fill="white"/>
<path d="M69.9735 242.678L99.677 240.184L91.3643 141.172L71.275 142.859L77.7926 220.49L18.6123 147.28L-11.2347 149.786L-2.92203 248.798L17.1673 247.111L10.6256 169.193L69.9735 242.678ZM210.179 185.965C211.998 207.633 200.034 216.585 175.209 218.669C150.241 220.766 136.951 213.934 135.131 192.266L134.276 182.078C132.505 160.984 144.458 151.888 169.426 149.792C194.251 147.708 207.553 154.683 209.324 175.777L210.179 185.965ZM112.731 188.8C115.96 227.256 137.887 238.855 176.63 235.602C215.231 232.361 234.917 217.269 231.688 178.812C228.508 140.93 206.605 129.619 168.005 132.859C129.261 136.112 109.55 150.917 112.731 188.8ZM244.927 128.28L253.239 227.291L275.051 225.46L271.99 189.012L305.281 186.217L330.583 220.798L354.69 218.774L327.928 182.293C340.793 177.167 346.837 166.544 345.536 151.046C343.861 131.101 330.737 121.075 308.351 122.955L244.927 128.28ZM323.738 154.755C324.4 162.647 320.41 168.474 309.217 169.413L270.617 172.654L268.099 142.664L306.699 139.423C318.036 138.471 322.786 143.419 323.461 151.455L323.738 154.755ZM472.582 208.876L494.249 207.057L485.937 108.045L452.933 110.816L429.143 180.298L393.956 115.768L361.096 118.527L369.409 217.538L389.068 215.888L382.152 133.522L418.356 199.845L441.028 197.942L465.667 126.51L472.582 208.876ZM540.277 162.442L555.783 116.488L578.734 159.213L540.277 162.442ZM540.815 103.438L505.648 206.1L526.025 204.389L534.583 178.96L587.102 174.551L599.781 198.197L622.31 196.306L570.662 100.932L540.815 103.438ZM625.245 96.3496L633.557 195.361L717.072 188.35L715.59 170.7L653.887 175.88L647.056 94.5184L625.245 96.3496ZM721.936 88.2318L730.249 187.243L752.06 185.412L743.747 86.4006L721.936 88.2318ZM827.45 161.308L794.159 164.103L788.81 100.392L822.101 97.5966C841.616 95.9582 852.861 102.528 854.5 122.044L855.259 131.084C856.945 151.173 846.965 159.67 827.45 161.308ZM765.517 84.5729L773.83 183.585L830.223 178.85C863.371 176.067 879.876 160.953 876.864 125.079C873.816 88.7751 855.058 77.0553 821.911 79.8383L765.517 84.5729ZM918.914 130.653L934.42 84.6986L957.371 127.424L918.914 130.653ZM919.451 71.6491L884.285 174.311L904.661 172.6L913.22 147.171L965.739 142.762L978.418 166.408L1000.95 164.517L949.298 69.1432L919.451 71.6491ZM1065.81 141.296L1032.52 144.091L1027.17 80.3794L1060.47 77.5844C1079.98 75.9459 1091.23 82.5162 1092.86 102.032L1093.62 111.072C1095.31 131.161 1085.33 139.658 1065.81 141.296ZM1003.88 64.5606L1012.19 163.572L1068.59 158.838C1101.74 156.055 1118.24 140.941 1115.23 105.067C1112.18 68.7628 1093.42 57.0431 1060.28 59.826L1003.88 64.5606ZM1282.39 41.1784L1269.38 122.038L1241.2 44.6359L1214.66 46.8647L1199.07 127.941L1173.33 50.3343L1151.52 52.1655L1183.94 149.153L1212.49 146.756L1228.24 65.8106L1256.4 143.069L1284.67 140.696L1301.33 39.5881L1282.39 41.1784ZM1314.27 38.5012L1322.59 137.513L1344.4 135.682L1336.09 36.67L1314.27 38.5012ZM1419.79 111.578L1386.5 114.373L1381.15 50.661L1414.44 47.866C1433.95 46.2276 1445.2 52.7978 1446.84 72.3132L1447.6 81.3534C1449.28 101.443 1439.3 109.939 1419.79 111.578ZM1357.85 34.8423L1366.17 133.854L1422.56 129.119C1455.71 126.336 1472.21 111.223 1469.2 75.3488C1466.15 39.0445 1447.4 27.3248 1414.25 30.1077L1357.85 34.8423ZM1482.43 24.3832L1490.74 123.395L1577.56 116.106L1576.15 99.3173L1511.15 104.775L1508.99 79.0891L1559.64 74.8364L1558.28 58.6215L1507.63 62.8742L1505.65 39.341L1570.08 33.9317L1568.67 17.1428L1482.43 24.3832Z" fill="black"/>
<rect x="158" y="225.785" width="1634.97" height="202" transform="rotate(-4.79909 158 225.785)" fill="white"/>
<path d="M272.974 371.678L302.677 369.184L294.364 270.172L274.275 271.859L280.793 349.49L221.612 276.28L191.765 278.786L200.078 377.798L220.167 376.111L213.626 298.193L272.974 371.678ZM413.179 314.965C414.998 336.633 403.034 345.585 378.209 347.669C353.241 349.766 339.951 342.934 338.131 321.266L337.276 311.078C335.505 289.984 347.458 280.888 372.426 278.792C397.251 276.708 410.553 283.683 412.324 304.777L413.179 314.965ZM315.731 317.8C318.96 356.256 340.887 367.855 379.63 364.602C418.231 361.361 437.917 346.269 434.688 307.812C431.508 269.93 409.605 258.619 371.005 261.859C332.261 265.112 312.55 279.917 315.731 317.8ZM447.927 257.28L456.239 356.291L478.051 354.46L474.99 318.012L508.281 315.217L533.583 349.798L557.69 347.774L530.928 311.293C543.793 306.167 549.837 295.544 548.536 280.046C546.861 260.101 533.737 250.075 511.351 251.955L447.927 257.28ZM526.738 283.755C527.4 291.647 523.41 297.474 512.217 298.413L473.617 301.654L471.099 271.664L509.699 268.423C521.036 267.471 525.786 272.419 526.461 280.455L526.738 283.755ZM675.582 337.876L697.249 336.057L688.937 237.045L655.933 239.816L632.143 309.298L596.956 244.768L564.096 247.527L572.409 346.538L592.068 344.888L585.152 262.522L621.356 328.845L644.028 326.942L668.667 255.51L675.582 337.876ZM743.277 291.442L758.783 245.488L781.734 288.213L743.277 291.442ZM743.815 232.438L708.648 335.1L729.025 333.389L737.583 307.96L790.102 303.551L802.781 327.197L825.31 325.306L773.662 229.932L743.815 232.438ZM828.245 225.35L836.557 324.361L920.072 317.35L918.59 299.7L856.887 304.88L850.056 223.518L828.245 225.35ZM924.936 217.232L933.249 316.243L955.06 314.412L946.747 215.401L924.936 217.232ZM1030.45 290.308L997.159 293.103L991.81 229.392L1025.1 226.597C1044.62 224.958 1055.86 231.528 1057.5 251.044L1058.26 260.084C1059.95 280.173 1049.97 288.67 1030.45 290.308ZM968.517 213.573L976.83 312.585L1033.22 307.85C1066.37 305.067 1082.88 289.953 1079.86 254.079C1076.82 217.775 1058.06 206.055 1024.91 208.838L968.517 213.573ZM1121.91 259.653L1137.42 213.699L1160.37 256.424L1121.91 259.653ZM1122.45 200.649L1087.29 303.311L1107.66 301.6L1116.22 276.171L1168.74 271.762L1181.42 295.408L1203.95 293.517L1152.3 198.143L1122.45 200.649ZM1268.81 270.296L1235.52 273.091L1230.17 209.379L1263.47 206.584C1282.98 204.946 1294.23 211.516 1295.86 231.032L1296.62 240.072C1298.31 260.161 1288.33 268.658 1268.81 270.296ZM1206.88 193.561L1215.19 292.572L1271.59 287.838C1304.74 285.055 1321.24 269.941 1318.23 234.067C1315.18 197.763 1296.42 186.043 1263.28 188.826L1206.88 193.561ZM1485.39 170.178L1472.38 251.038L1444.2 173.636L1417.66 175.865L1402.07 256.941L1376.33 179.334L1354.52 181.166L1386.94 278.153L1415.49 275.756L1431.24 194.811L1459.4 272.069L1487.67 269.696L1504.33 168.588L1485.39 170.178ZM1517.27 167.501L1525.59 266.513L1547.4 264.682L1539.09 165.67L1517.27 167.501ZM1622.79 240.578L1589.5 243.373L1584.15 179.661L1617.44 176.866C1636.95 175.228 1648.2 181.798 1649.84 201.313L1650.6 210.353C1652.28 230.443 1642.3 238.939 1622.79 240.578ZM1560.85 163.842L1569.17 262.854L1625.56 258.119C1658.71 255.336 1675.21 240.223 1672.2 204.349C1669.15 168.044 1650.4 156.325 1617.25 159.108L1560.85 163.842ZM1685.43 153.383L1693.74 252.395L1780.56 245.106L1779.15 228.317L1714.15 233.775L1711.99 208.089L1762.64 203.836L1761.28 187.621L1710.63 191.874L1708.65 168.341L1773.08 162.932L1771.67 146.143L1685.43 153.383Z" fill="black"/>
<rect x="-1" y="242.028" width="1634.97" height="202" transform="rotate(-0.351441 -1 242.028)" fill="white"/>
<path d="M102.314 396.397L132.121 396.215L131.512 296.857L111.352 296.98L111.83 374.883L58.505 297.304L28.5535 297.488L29.163 396.846L49.3226 396.723L48.843 318.532L102.314 396.397ZM246.495 350.728C246.629 372.472 234.005 380.469 209.094 380.622C184.038 380.776 171.318 372.934 171.185 351.19L171.122 340.966C170.992 319.799 183.614 311.657 208.67 311.504C233.581 311.351 246.303 319.337 246.432 340.504L246.495 350.728ZM149.12 345.997C149.357 384.589 170.319 397.852 209.198 397.614C247.933 397.376 268.731 383.856 268.494 345.265C268.261 307.25 247.301 294.274 208.566 294.512C169.686 294.75 148.887 307.982 149.12 345.997ZM285.611 295.911L286.221 395.269L308.108 395.135L307.884 358.56L341.291 358.355L363.835 394.793L388.027 394.645L364.174 356.199C377.397 352.085 384.248 341.963 384.152 326.411C384.029 306.396 371.722 295.383 349.258 295.521L285.611 295.911ZM362.132 328.419C362.181 336.338 357.75 341.838 346.518 341.907L307.783 342.144L307.599 312.049L346.334 311.811C357.71 311.741 362.062 317.043 362.112 325.107L362.132 328.419ZM506.331 393.919L528.074 393.786L527.465 294.428L494.345 294.631L465.238 362.059L435.163 294.994L402.187 295.196L402.797 394.554L422.524 394.433L422.017 311.779L452.969 380.71L475.72 380.571L505.824 311.265L506.331 393.919ZM577.423 352.874L596.446 308.261L616.014 352.638L577.423 352.874ZM582.535 294.09L539.513 393.716L559.961 393.59L570.465 368.901L623.168 368.578L633.975 393.136L656.583 392.998L612.486 293.906L582.535 294.09ZM667.26 293.57L667.87 392.928L751.676 392.414L751.568 374.703L689.649 375.083L689.148 293.436L667.26 293.57ZM764.29 292.975L764.899 392.333L786.787 392.199L786.177 292.841L764.29 292.975ZM863.819 374.014L830.412 374.219L830.019 310.284L863.427 310.079C883.01 309.959 893.712 317.382 893.832 336.965L893.888 346.037C894.012 366.197 883.403 373.894 863.819 374.014ZM808.023 292.707L808.633 392.065L865.224 391.718C898.487 391.514 916.115 377.725 915.894 341.726C915.67 305.295 897.878 292.156 864.614 292.36L808.023 292.707ZM957.385 350.544L976.408 305.93L995.976 350.307L957.385 350.544ZM962.496 291.759L919.475 391.385L939.922 391.26L950.427 366.571L1003.13 366.248L1013.94 390.806L1036.54 390.667L992.448 291.576L962.496 291.759ZM1103.02 372.547L1069.61 372.752L1069.22 308.817L1102.63 308.612C1122.21 308.492 1132.91 315.915 1133.03 335.498L1133.09 344.57C1133.21 364.73 1122.6 372.427 1103.02 372.547ZM1047.22 291.24L1047.83 390.598L1104.42 390.251C1137.69 390.047 1155.31 376.258 1155.09 340.259C1154.87 303.828 1137.08 290.688 1103.81 290.893L1047.22 291.24ZM1326.7 289.525L1307.46 369.133L1285.37 289.779L1258.73 289.942L1236.9 369.566L1217.26 290.197L1195.38 290.331L1220.18 389.541L1248.83 389.365L1270.81 309.885L1292.9 389.095L1321.26 388.921L1345.71 289.409L1326.7 289.525ZM1358.7 289.329L1359.31 388.687L1381.2 388.553L1380.59 289.195L1358.7 289.329ZM1458.23 370.368L1424.82 370.573L1424.43 306.638L1457.84 306.433C1477.42 306.313 1488.12 313.736 1488.24 333.319L1488.3 342.391C1488.42 362.551 1477.81 370.248 1458.23 370.368ZM1402.43 289.061L1403.04 388.419L1459.63 388.072C1492.9 387.868 1510.53 374.079 1510.3 338.08C1510.08 301.649 1492.29 288.51 1459.02 288.714L1402.43 289.061ZM1527.45 288.294L1528.06 387.652L1615.18 387.118L1615.07 370.27L1549.84 370.67L1549.68 344.895L1600.51 344.583L1600.41 328.311L1549.58 328.623L1549.44 305.007L1614.09 304.611L1613.99 287.763L1527.45 288.294Z" fill="black"/>
<rect x="-45" y="0.100098" width="1634.97" height="202" transform="rotate(-4.5992 -45 0.100098)" fill="white"/>
<path d="M69.4637 146.393L99.1757 144.003L91.2085 44.9625L71.1134 46.579L77.3601 124.232L18.4356 50.8166L-11.42 53.2183L-3.4528 152.258L16.6423 150.642L10.3725 72.7016L69.4637 146.393ZM209.866 90.1694C211.61 111.843 199.614 120.754 174.782 122.752C149.807 124.761 136.541 117.882 134.797 96.2083L133.977 86.0173C132.28 64.9174 144.264 55.8633 169.24 53.8542C194.072 51.8566 207.349 58.8785 209.047 79.9784L209.866 90.1694ZM112.409 92.6641C115.503 131.132 137.39 142.806 176.145 139.689C214.756 136.583 234.495 121.56 231.4 83.092C228.352 45.1984 206.488 33.8108 167.877 36.9169C129.122 40.0345 109.36 54.7705 112.409 92.6641ZM244.815 32.6058L252.782 131.646L274.599 129.891L271.667 93.4325L304.967 90.7537L330.148 125.422L354.262 123.482L327.628 86.9083C340.51 81.8269 346.591 71.2252 345.344 55.7232C343.739 35.7717 330.649 25.7009 308.258 27.5021L244.815 32.6058ZM323.533 59.3559C324.168 67.2503 320.157 73.0627 308.962 73.9633L270.35 77.0694L267.937 47.0703L306.548 43.9642C317.888 43.052 322.621 48.0165 323.268 56.0545L323.533 59.3559ZM472.187 113.996L493.861 112.252L485.894 13.2124L452.881 15.8681L428.848 85.2666L393.887 20.6137L361.018 23.2579L368.985 122.298L388.649 120.716L382.021 38.3263L417.993 104.776L440.672 102.951L465.56 31.6061L472.187 113.996ZM540.044 67.7981L555.71 21.8981L578.512 64.7036L540.044 67.7981ZM540.788 8.79648L505.263 111.335L525.646 109.696L534.293 84.2964L586.827 80.0703L599.423 103.761L621.958 101.948L570.643 6.39478L540.788 8.79648ZM625.242 2.00263L633.209 101.043L716.747 94.3226L715.327 76.6676L653.607 81.6326L647.06 0.247545L625.242 2.00263ZM721.961 -5.77782L729.928 93.2622L751.746 91.5072L743.778 -7.53291L721.961 -5.77782ZM827.219 67.6665L793.919 70.3453L788.792 6.61522L822.093 3.9364C841.614 2.36606 852.836 8.97549 854.406 28.4964L855.133 37.5392C856.75 57.6343 846.74 66.0962 827.219 67.6665ZM765.554 -9.28466L773.522 89.7554L829.931 85.2176C863.088 82.5503 879.646 67.4941 876.76 31.61C873.838 -4.70466 855.121 -16.4898 821.964 -13.8225L765.554 -9.28466ZM918.79 37.3303L934.456 -8.5697L957.257 34.2358L918.79 37.3303ZM919.533 -21.6713L884.009 80.8674L904.391 79.2278L913.038 53.8286L965.572 49.6025L978.169 73.2928L1000.7 71.48L949.389 -24.073L919.533 -21.6713ZM1065.65 48.486L1032.35 51.1648L1027.23 -12.5653L1060.53 -15.2441C1080.05 -16.8145 1091.27 -10.205 1092.84 9.31593L1093.57 18.3587C1095.18 38.4538 1085.17 46.9157 1065.65 48.486ZM1003.99 -28.4652L1011.95 70.5749L1068.36 66.0371C1101.52 63.3698 1118.08 48.3136 1115.19 12.4295C1112.27 -23.8852 1093.55 -35.6703 1060.4 -33.003L1003.99 -28.4652ZM1282.57 -50.8757L1269.28 29.9383L1241.38 -47.5618L1214.82 -45.4257L1198.95 35.5961L1173.48 -42.1002L1151.67 -40.3451L1183.75 56.7551L1212.31 54.4573L1228.34 -26.4325L1256.23 50.924L1284.51 48.6494L1301.52 -52.3998L1282.57 -50.8757ZM1314.47 -53.4416L1322.44 45.5985L1344.25 43.8434L1336.29 -55.1966L1314.47 -53.4416ZM1419.73 20.0028L1386.43 22.6816L1381.3 -41.0485L1414.6 -43.7273C1434.12 -45.2977 1445.34 -38.6882 1446.91 -19.1673L1447.64 -10.1245C1449.26 9.97057 1439.25 18.4325 1419.73 20.0028ZM1358.06 -56.9484L1366.03 42.0917L1422.44 37.5538C1455.6 34.8866 1472.15 19.8304 1469.27 -16.0537C1466.35 -52.3684 1447.63 -64.1535 1414.47 -61.4862L1358.06 -56.9484ZM1482.68 -66.9728L1490.64 32.0673L1577.48 25.0816L1576.13 8.28782L1511.11 13.5185L1509.04 -12.1745L1559.71 -16.2505L1558.41 -32.4701L1507.74 -28.3942L1505.84 -51.9341L1570.29 -57.1186L1568.94 -73.9123L1482.68 -66.9728Z" fill="black"/>
<rect x="391.423" y="116.785" width="1634.97" height="202" transform="rotate(-4.79909 391.423 116.785)" fill="white"/>
<path d="M517.271 233.662L546.975 231.168L538.662 132.157L518.573 133.843L525.09 211.474L465.91 138.265L436.063 140.771L444.376 239.782L464.465 238.096L457.923 160.178L517.271 233.662ZM657.477 176.949C659.296 198.617 647.331 207.57 622.507 209.654C597.539 211.75 584.248 204.918 582.429 183.25L581.574 173.062C579.803 151.968 591.756 142.872 616.724 140.776C641.549 138.692 654.851 145.667 656.622 166.761L657.477 176.949ZM560.029 179.784C563.257 218.241 585.185 229.839 623.928 226.586C662.528 223.345 682.215 208.254 678.986 169.797C675.806 131.914 653.903 120.603 615.302 123.844C576.559 127.096 556.848 141.901 560.029 179.784ZM692.224 119.264L700.537 218.276L722.348 216.445L719.288 179.997L752.579 177.202L777.881 211.782L801.988 209.758L775.226 173.277C788.091 168.151 794.135 157.528 792.834 142.031C791.159 122.085 778.035 112.06 755.649 113.939L692.224 119.264ZM771.036 145.739C771.698 153.632 767.708 159.458 756.515 160.398L717.915 163.638L715.397 133.648L753.997 130.407C765.333 129.455 770.084 134.403 770.759 142.439L771.036 145.739ZM919.88 199.861L941.547 198.041L933.235 99.0298L900.231 101.801L876.44 171.283L841.254 106.752L808.394 109.511L816.707 208.523L836.365 206.872L829.45 124.506L865.654 190.83L888.326 188.926L912.964 117.494L919.88 199.861ZM987.575 153.426L1003.08 107.472L1026.03 150.198L987.575 153.426ZM988.113 94.4224L952.946 197.084L973.323 195.374L981.881 169.945L1034.4 165.535L1047.08 189.181L1069.61 187.29L1017.96 91.9166L988.113 94.4224ZM1072.54 87.334L1080.86 186.346L1164.37 179.334L1162.89 161.684L1101.18 166.865L1094.35 85.5028L1072.54 87.334ZM1169.23 79.2162L1177.55 178.228L1199.36 176.397L1191.05 77.385L1169.23 79.2162ZM1274.75 152.293L1241.46 155.088L1236.11 91.376L1269.4 88.581C1288.91 86.9425 1300.16 93.5128 1301.8 113.028L1302.56 122.068C1304.24 142.158 1294.26 150.654 1274.75 152.293ZM1212.81 75.5572L1221.13 174.569L1277.52 169.834C1310.67 167.051 1327.17 151.938 1324.16 116.064C1321.11 79.7594 1302.36 68.0397 1269.21 70.8226L1212.81 75.5572ZM1366.21 121.637L1381.72 75.6829L1404.67 118.409L1366.21 121.637ZM1366.75 62.6335L1331.58 165.295L1351.96 163.585L1360.52 138.156L1413.04 133.746L1425.72 157.392L1448.24 155.501L1396.6 60.1276L1366.75 62.6335ZM1513.11 132.281L1479.82 135.076L1474.47 71.3637L1507.76 68.5687C1527.28 66.9303 1538.52 73.5006 1540.16 93.0159L1540.92 102.056C1542.61 122.145 1532.63 130.642 1513.11 132.281ZM1451.18 55.545L1459.49 154.557L1515.89 149.822C1549.03 147.039 1565.54 131.925 1562.53 96.0515C1559.48 59.7472 1540.72 48.0275 1507.57 50.8104L1451.18 55.545ZM1729.68 32.1627L1716.68 113.023L1688.5 35.6203L1661.95 37.8491L1646.36 118.926L1620.63 41.3187L1598.82 43.1499L1631.24 140.138L1659.79 137.74L1675.54 56.795L1703.7 134.054L1731.97 131.68L1748.63 30.5725L1729.68 32.1627ZM1761.57 29.4856L1769.88 128.497L1791.7 126.666L1783.38 27.6544L1761.57 29.4856ZM1867.09 102.562L1833.79 105.357L1828.45 41.6454L1861.74 38.8504C1881.25 37.212 1892.5 43.7822 1894.14 63.2976L1894.89 72.3378C1896.58 92.4271 1886.6 100.924 1867.09 102.562ZM1805.15 25.8267L1813.47 124.838L1869.86 120.104C1903.01 117.321 1919.51 102.207 1916.5 66.3332C1913.45 30.0289 1894.69 18.3091 1861.55 21.0921L1805.15 25.8267ZM1929.73 15.3676L1938.04 114.379L2024.86 107.091L2023.45 90.3017L1958.44 95.7592L1956.29 70.0735L2006.94 65.8208L2005.58 49.6059L1954.93 53.8586L1952.95 30.3254L2017.38 24.9161L2015.97 8.12716L1929.73 15.3676Z" fill="black"/>
<rect width="1635.01" height="217.698" transform="matrix(0.990173 0.139844 -0.138822 0.990317 -38.9072 41.936)" fill="white"/>
<path d="M64.1178 181.902L93.6625 185.855L106.728 87.3581L86.7461 84.6844L76.502 161.912L34.3649 77.6756L4.6775 73.7033L-8.38803 172.201L11.5939 174.874L21.8759 97.3612L64.1178 181.902ZM213.19 156.665C210.33 178.221 196.729 184.391 172.037 181.087C147.202 177.764 135.684 168.233 138.543 146.677L139.887 136.542C142.671 115.558 156.291 109.245 181.126 112.568C205.818 115.872 217.318 125.546 214.534 146.53L213.19 156.665ZM117.406 138.474C112.331 176.731 131.266 192.776 169.803 197.932C208.196 203.069 230.653 192.563 235.728 154.306C240.727 116.62 221.754 100.86 183.36 95.7232C144.824 90.5668 122.405 100.788 117.406 138.474ZM259.469 107.796L246.404 206.293L268.098 209.196L272.908 172.937L306.021 177.368L323.334 216.586L347.312 219.795L328.98 178.406C342.641 176.166 350.817 167.09 352.862 151.673C355.494 131.831 344.821 119.216 322.555 116.237L259.469 107.796ZM330.779 150.607C329.737 158.458 324.593 163.291 313.46 161.801L275.067 156.664L279.024 126.829L317.418 131.966C328.694 133.475 332.275 139.33 331.214 147.324L330.779 150.607ZM464.573 235.485L486.125 238.369L499.191 139.871L466.363 135.479L428.261 198.228L407.702 127.63L375.018 123.256L361.952 221.754L381.506 224.37L392.375 142.432L413.544 215L436.095 218.018L475.442 153.547L464.573 235.485ZM540.626 204.691L565.603 163.141L578.877 209.809L540.626 204.691ZM553.775 147.175L497.463 239.886L517.731 242.598L531.531 219.601L583.769 226.59L591.093 252.414L613.501 255.412L583.463 151.147L553.775 147.175ZM637.754 158.412L624.689 256.909L707.756 268.024L710.085 250.466L648.712 242.254L659.449 161.315L637.754 158.412ZM733.928 171.28L720.863 269.777L742.557 272.68L755.623 174.183L733.928 171.28ZM821.347 265.353L788.235 260.922L796.642 197.541L829.755 201.972C849.166 204.569 858.743 213.406 856.168 232.82L854.975 241.813C852.324 261.798 840.758 267.95 821.347 265.353ZM777.276 177.08L764.211 275.578L820.303 283.083C853.273 287.495 872.627 276.282 877.361 240.595C882.152 204.479 866.339 188.997 833.368 184.586L777.276 177.08ZM917.238 255.084L942.215 213.533L955.49 260.202L917.238 255.084ZM930.388 197.567L874.076 290.278L894.343 292.99L908.143 269.993L960.381 276.983L967.705 302.806L990.114 305.804L960.075 201.54L930.388 197.567ZM1058.44 297.077L1025.32 292.646L1033.73 229.265L1066.84 233.696C1086.26 236.293 1095.83 245.129 1093.26 264.543L1092.06 273.536C1089.41 293.521 1077.85 299.674 1058.44 297.077ZM1014.37 208.804L1001.3 307.301L1057.39 314.807C1090.36 319.218 1109.72 308.006 1114.45 272.319C1119.24 236.203 1103.43 220.721 1070.46 216.31L1014.37 208.804ZM1291.38 245.87L1261.38 322.052L1250.42 240.389L1224.01 236.856L1191.44 312.694L1182.91 231.356L1161.21 228.453L1172.13 330.159L1200.53 333.959L1233.23 258.283L1244.2 339.803L1272.32 343.565L1310.22 248.391L1291.38 245.87ZM1323.1 250.114L1310.03 348.611L1331.73 351.514L1344.79 253.017L1323.1 250.114ZM1410.52 344.187L1377.41 339.756L1385.81 276.375L1418.93 280.806C1438.34 283.403 1447.91 292.239 1445.34 311.653L1444.15 320.646C1441.49 340.631 1429.93 346.784 1410.52 344.187ZM1366.45 255.914L1353.38 354.411L1409.47 361.917C1442.44 366.328 1461.8 355.116 1466.53 319.429C1471.32 283.313 1455.51 267.831 1422.54 263.42L1366.45 255.914ZM1490.36 272.494L1477.29 370.991L1563.64 382.545L1565.86 365.844L1501.2 357.192L1504.59 331.64L1554.98 338.382L1557.12 322.251L1506.73 315.51L1509.84 292.099L1573.92 300.673L1576.14 283.972L1490.36 272.494Z" fill="black"/>
<rect x="-65.6738" y="-156" width="1634.97" height="195.249" transform="rotate(11.3206 -65.6738 -156)" fill="white"/>
<path d="M20.1344 10.7063L49.3624 16.5575L68.8666 -80.8694L49.0988 -84.8268L33.8064 -8.43842L-2.72099 -95.2007L-32.0903 -101.08L-51.5944 -3.65333L-31.8266 0.304035L-16.4777 -76.3667L20.1344 10.7063ZM170.574 -4.84944C166.306 16.4715 152.325 21.7499 127.898 16.8598C103.33 11.9413 92.4588 1.68793 96.7271 -19.633L98.734 -29.6581C102.889 -50.4143 116.898 -55.8339 141.466 -50.9155C165.893 -46.0253 176.736 -35.6307 172.581 -14.8745L170.574 -4.84944ZM76.1696 -29.1822C68.5941 8.65896 86.439 25.8891 124.563 33.5212C162.545 41.125 185.648 32.0922 193.223 -5.74894C200.686 -43.0253 182.784 -59.9731 144.802 -67.5769C106.678 -75.2089 83.6321 -66.4586 76.1696 -29.1822ZM219.971 -50.6194L200.467 46.8075L221.929 51.1041L229.109 15.2397L261.867 21.7976L276.573 62.0434L300.294 66.7922L284.713 24.3153C298.495 22.9623 307.251 14.4352 310.304 -0.814234C314.233 -20.4408 304.408 -33.7158 282.381 -38.1254L219.971 -50.6194ZM288.333 -3.30349C286.778 4.46242 281.327 8.95169 270.313 6.74687L232.331 -0.856931L238.239 -30.3674L276.221 -22.7636C287.376 -20.5305 290.566 -14.4582 288.983 -6.55105L288.333 -3.30349ZM416.298 90.0155L437.619 94.2838L457.124 -3.14313L424.648 -9.64452L382.502 50.5004L366.615 -21.2622L334.281 -27.7353L314.777 69.6916L334.121 73.5641L350.346 -7.48375L366.712 66.2841L389.021 70.7502L432.524 8.96759L416.298 90.0155ZM494.225 64.202L521.88 24.3595L532.066 71.7775L494.225 64.202ZM511.123 7.66719L448.836 96.5292L468.886 100.543L484.168 78.4899L535.847 88.8356L541.462 115.072L563.63 119.51L540.492 13.5467L511.123 7.66719ZM594.202 24.299L574.698 121.726L656.875 138.177L660.352 120.81L599.637 108.655L615.664 28.5955L594.202 24.299ZM689.345 43.346L669.841 140.773L691.303 145.069L710.807 47.6426L689.345 43.346ZM770.422 142.845L737.664 136.287L750.214 73.5949L782.972 80.1529C802.175 83.9972 811.154 93.4312 807.31 112.634L805.529 121.53C801.571 141.297 789.625 146.689 770.422 142.845ZM732.229 51.931L712.725 149.358L768.216 160.467C800.832 166.996 820.885 157.059 827.952 121.76C835.103 86.0366 820.337 69.5695 787.72 63.0398L732.229 51.931ZM866.801 138.789L894.456 98.9465L904.642 146.365L866.801 138.789ZM883.699 82.2543L821.412 171.116L841.462 175.13L856.745 153.077L908.423 163.423L914.038 189.659L936.206 194.097L913.069 88.1338L883.699 82.2543ZM1004.97 189.8L972.213 183.242L984.763 120.55L1017.52 127.108C1036.72 130.952 1045.7 140.386 1041.86 159.589L1040.08 168.485C1036.12 188.253 1024.17 193.644 1004.97 189.8ZM966.778 98.886L947.274 196.313L1002.76 207.422C1035.38 213.951 1055.43 204.014 1062.5 168.715C1069.65 132.992 1054.89 116.525 1022.27 109.995L966.778 98.886ZM1240.83 153.748L1205.88 227.817L1200.3 145.636L1174.18 140.406L1136.69 213.967L1133.51 132.265L1112.05 127.969L1116.27 230.145L1144.37 235.77L1181.97 162.379L1187.57 244.419L1215.39 249.988L1259.46 157.48L1240.83 153.748ZM1272.2 160.03L1252.7 257.457L1274.16 261.753L1293.66 164.326L1272.2 160.03ZM1353.28 259.529L1320.52 252.971L1333.07 190.279L1365.83 196.837C1385.03 200.681 1394.01 210.115 1390.17 229.318L1388.39 238.213C1384.43 257.981 1372.48 263.373 1353.28 259.529ZM1315.09 168.615L1295.58 266.042L1351.07 277.151C1383.69 283.68 1403.74 273.743 1410.81 238.444C1417.96 202.72 1403.19 186.253 1370.58 179.724L1315.09 168.615ZM1437.67 193.155L1418.16 290.582L1503.59 307.683L1506.9 291.163L1442.93 278.358L1447.99 253.084L1497.84 263.062L1501.03 247.107L1451.19 237.128L1455.82 213.972L1519.22 226.664L1522.53 210.143L1437.67 193.155Z" fill="black"/>
<rect width="2300.2" height="158.672" transform="matrix(0.995588 0.0938318 -0.0928036 0.995684 272.725 185)" fill="white"/>
<path d="M413.227 330.469L442.874 333.565L453.082 234.731L433.031 232.637L425.027 310.129L380.469 227.148L350.679 224.037L340.471 322.871L360.522 324.965L368.555 247.187L413.227 330.469ZM561.506 300.927C559.272 322.556 545.855 329.118 521.077 326.53C496.157 323.928 484.367 314.734 486.601 293.105L487.652 282.935C489.827 261.879 503.259 255.174 528.179 257.776C552.956 260.364 564.731 269.701 562.556 290.757L561.506 300.927ZM465.236 285.516C461.271 323.904 480.662 339.394 519.332 343.433C557.858 347.456 580.001 336.304 583.966 297.916C587.872 260.101 568.451 244.898 529.925 240.874C491.255 236.836 469.142 247.701 465.236 285.516ZM606.351 250.738L596.143 349.572L617.912 351.846L621.67 315.463L654.898 318.933L673.339 357.634L697.4 360.147L677.877 319.306C691.467 316.672 699.378 307.363 700.976 291.893C703.032 271.983 691.997 259.683 669.655 257.349L606.351 250.738ZM678.87 291.467C678.057 299.345 673.055 304.324 661.883 303.158L623.357 299.134L626.449 269.197L664.975 273.221C676.29 274.403 680.039 280.151 679.211 288.172L678.87 291.467ZM815.066 372.436L836.693 374.694L846.901 275.86L813.96 272.42L777.691 336.246L755.096 266.272L722.299 262.847L712.09 361.681L731.712 363.73L740.204 281.512L763.465 353.437L786.094 355.8L823.558 290.217L815.066 372.436ZM890.195 339.453L913.959 297.197L928.579 343.462L890.195 339.453ZM901.674 281.58L848.07 375.882L868.407 378.006L881.535 354.62L933.954 360.094L942.023 385.695L964.508 388.043L931.464 284.692L901.674 281.58ZM985.943 290.381L975.735 389.215L1059.09 397.921L1060.91 380.302L999.324 373.871L1007.71 292.655L985.943 290.381ZM1082.45 300.46L1072.24 399.294L1094.01 401.568L1104.22 302.733L1082.45 300.46ZM1172.56 391.962L1139.33 388.492L1145.9 324.894L1179.12 328.365C1198.6 330.399 1208.43 338.954 1206.42 358.434L1205.49 367.458C1203.42 387.512 1192.03 393.996 1172.56 391.962ZM1125.95 305.003L1115.74 403.837L1172.02 409.715C1205.11 413.17 1224.13 401.402 1227.83 365.593C1231.57 329.354 1215.32 314.336 1182.23 310.881L1125.95 305.003ZM1268.11 378.921L1291.87 336.665L1306.49 382.929L1268.11 378.921ZM1279.59 321.048L1225.98 415.35L1246.32 417.474L1259.45 394.087L1311.87 399.562L1319.94 425.162L1342.42 427.511L1309.38 324.159L1279.59 321.048ZM1410.46 416.808L1377.24 413.338L1383.81 349.741L1417.03 353.211C1436.51 355.245 1446.34 363.8 1444.33 383.281L1443.4 392.305C1441.33 412.358 1429.94 418.843 1410.46 416.808ZM1363.86 329.849L1353.65 428.683L1409.93 434.561C1443.02 438.017 1462.04 426.249 1465.74 390.439C1469.48 354.2 1453.23 339.182 1420.14 335.727L1363.86 329.849ZM1641.83 358.879L1614.04 435.898L1600.72 354.587L1574.23 351.819L1543.86 428.568L1532.98 347.512L1511.21 345.238L1525.06 446.585L1553.57 449.562L1584.06 372.971L1597.39 454.139L1625.61 457.085L1660.73 360.854L1641.83 358.879ZM1673.66 362.203L1663.45 461.037L1685.22 463.311L1695.43 364.477L1673.66 362.203ZM1763.76 453.705L1730.53 450.235L1737.1 386.638L1770.33 390.108C1789.81 392.142 1799.64 400.697 1797.63 420.178L1796.69 429.202C1794.62 449.255 1783.24 455.74 1763.76 453.705ZM1717.15 366.746L1706.95 465.58L1763.23 471.458C1796.32 474.914 1815.34 463.146 1819.04 427.336C1822.78 391.097 1806.52 376.079 1773.44 372.624L1717.15 366.746ZM1841.49 379.731L1831.28 478.566L1917.93 487.615L1919.66 470.856L1854.79 464.08L1857.43 438.441L1907.99 443.721L1909.66 427.535L1859.11 422.255L1861.53 398.764L1925.84 405.48L1927.57 388.721L1841.49 379.731Z" fill="black"/>
<rect x="-41.4854" y="142.639" width="1634.97" height="151.695" transform="rotate(-2.31764 -41.4854 142.639)" fill="white"/>
<path d="M70.6874 266.419L100.471 265.213L96.4529 165.935L76.3094 166.75L79.4598 244.59L23.5047 168.887L-6.42282 170.098L-2.40476 269.377L17.7387 268.562L14.5767 190.434L70.6874 266.419ZM213.217 215.83C214.096 237.556 201.755 245.982 176.864 246.989C151.828 248.003 138.846 240.601 137.967 218.875L137.553 208.66C136.697 187.509 149.033 178.939 174.068 177.926C198.96 176.918 211.948 184.463 212.804 205.614L213.217 215.83ZM115.737 214.443C117.298 253.003 138.702 265.54 177.551 263.967C216.255 262.401 236.576 248.176 235.016 209.615C233.478 171.63 212.086 159.381 173.381 160.948C134.533 162.52 114.2 176.458 115.737 214.443ZM250.429 159.703L254.447 258.982L276.318 258.097L274.838 221.55L308.219 220.199L332 255.843L356.172 254.865L331.015 217.259C344.089 212.695 350.588 202.343 349.959 186.804C349.149 166.805 336.471 156.221 314.025 157.129L250.429 159.703ZM328.02 189.566C328.341 197.479 324.102 203.127 312.879 203.581L274.175 205.148L272.958 175.076L311.662 173.51C323.029 173.05 327.56 178.199 327.887 186.256L328.02 189.566ZM474.382 250.08L496.108 249.201L492.09 149.922L458.997 151.262L432.22 219.648L399.861 153.655L366.912 154.989L370.93 254.267L390.642 253.47L387.3 170.881L420.598 238.71L443.331 237.79L471.039 167.492L474.382 250.08ZM544.024 206.621L561.505 161.381L582.584 205.06L544.024 206.621ZM547.116 147.695L507.537 248.738L527.969 247.912L537.62 222.877L590.281 220.745L601.924 244.918L624.514 244.004L577.043 146.484L547.116 147.695ZM631.773 144.269L635.791 243.548L719.531 240.159L718.815 222.461L656.945 224.965L653.644 143.384L631.773 144.269ZM728.725 140.345L732.743 239.624L754.613 238.739L750.595 139.46L728.725 140.345ZM830.976 217.922L797.596 219.273L795.01 155.389L828.391 154.038C847.959 153.246 858.909 160.297 859.701 179.865L860.068 188.929C860.883 209.073 850.544 217.13 830.976 217.922ZM772.424 138.576L776.442 237.855L832.988 235.567C866.224 234.221 883.369 219.836 881.913 183.866C880.44 147.464 862.206 134.943 828.97 136.288L772.424 138.576ZM923.682 191.255L941.163 146.015L962.242 189.694L923.682 191.255ZM926.774 132.33L887.195 233.373L907.627 232.546L917.278 207.511L969.939 205.38L981.582 229.553L1004.17 228.638L956.701 131.118L926.774 132.33ZM1069.98 208.248L1036.6 209.599L1034.02 145.716L1067.4 144.365C1086.97 143.573 1097.92 150.624 1098.71 170.192L1099.08 179.256C1099.89 199.4 1089.55 207.456 1069.98 208.248ZM1011.43 128.903L1015.45 228.182L1072 225.893C1105.23 224.548 1122.38 210.163 1120.92 174.193C1119.45 137.79 1101.21 125.27 1067.98 126.615L1011.43 128.903ZM1290.69 117.601L1274.19 197.822L1249.39 119.272L1222.78 120.35L1203.69 200.675L1181.34 122.027L1159.47 122.912L1187.66 221.212L1216.29 220.053L1235.53 139.866L1260.32 218.272L1288.66 217.124L1309.68 116.832L1290.69 117.601ZM1322.66 116.307L1326.68 215.586L1348.55 214.701L1344.53 115.422L1322.66 116.307ZM1424.91 193.883L1391.53 195.234L1388.95 131.351L1422.33 130C1441.89 129.208 1452.84 136.259 1453.64 155.827L1454 164.891C1454.82 185.035 1444.48 193.092 1424.91 193.883ZM1366.36 114.538L1370.38 213.817L1426.92 211.529C1460.16 210.183 1477.3 195.798 1475.85 159.828C1474.38 123.426 1456.14 110.905 1422.91 112.25L1366.36 114.538ZM1491.27 109.483L1495.29 208.762L1582.34 205.238L1581.66 188.404L1516.48 191.042L1515.44 165.287L1566.23 163.232L1565.57 146.973L1514.78 149.029L1513.82 125.432L1578.43 122.817L1577.75 105.983L1491.27 109.483Z" fill="black"/>
</g>
<defs>
<clipPath id="clip0_410:2348">
<rect width="1434" height="391" fill="white"/>
</clipPath>
</defs>
</svg>
